<svg width="20" height="20" viewBox="0 0 20 20" fill="none" xmlns="http://www.w3.org/2000/svg">
<g clip-path="url(#clip0_5292_1261)">
<path d="M0.634774 10.263L0.567941 10.2294C0.417568 10.1453 0.30061 10.0191 0.217069 9.85922C0.100112 9.64048 0.0499878 9.43856 0.0499878 9.22824L0.066696 9.11887C0.066696 8.9506 0.108466 8.79917 0.183653 8.65615L0.250486 8.52995C0.283902 8.46265 0.334027 8.40375 0.375797 8.34486C0.425922 8.28597 0.434276 8.21025 0.417568 8.14295L0.375797 8.00834C0.325673 7.84008 0.292256 7.67182 0.292256 7.50355L0.267194 7.4026C0.267194 7.21751 0.317318 7.03242 0.434276 6.89781L0.517817 6.78844C0.576295 6.70431 0.66819 6.65383 0.768439 6.62018C0.85198 6.59494 0.910459 6.51081 0.918813 6.40985L0.935521 6.12381C0.935521 5.89666 1.04412 5.68633 1.21121 5.53489L1.4117 5.38346C1.45347 5.34139 1.49524 5.29933 1.52866 5.23202C1.57043 5.18154 1.57879 5.11424 1.57043 5.06376C1.55372 4.97963 1.57043 4.95439 1.6122 4.94598C1.74587 4.99646 1.82941 4.97963 1.88789 4.91232L1.99649 4.7693L2.29724 4.43278C2.38078 4.34865 2.41419 4.19721 2.36407 4.07943L2.26382 3.86069C2.24711 3.81021 2.26382 3.75132 2.30559 3.73449C2.41419 3.73449 2.48938 3.77656 2.5228 3.84386L2.55621 3.90275C2.60634 4.00371 2.72329 4.05419 2.80684 4.01212C2.99063 3.94482 3.141 3.92799 3.28302 3.92799H3.55035C3.73414 3.92799 3.88451 3.8018 3.91793 3.6083C3.95135 3.37273 4.03489 3.18764 4.15184 3.06145C4.27715 2.91842 4.41917 2.80905 4.58626 2.72492C4.80346 2.60714 4.93713 2.43888 4.9789 2.22014C5.03738 1.95092 5.1794 1.75742 5.37154 1.63122L6.00645 1.26946L6.19024 1.16009C6.29884 1.09279 6.39909 1.00865 6.48263 0.907697L6.64971 0.705783C6.73326 0.621653 6.8168 0.562761 6.91704 0.537522C7.00059 0.512282 7.11754 0.495456 7.21779 0.503869L7.55196 0.529109C7.71904 0.529109 7.8527 0.571174 7.98637 0.630066L8.06991 0.672131C8.15345 0.705783 8.23699 0.688957 8.27876 0.630066L8.35395 0.588L8.71317 0.209412C8.79671 0.125281 8.89696 0.0916284 9.00557 0.108455C9.11417 0.125281 9.22277 0.167346 9.32302 0.217825C9.47339 0.301955 9.59871 0.335608 9.74073 0.335608H9.82427C10.0081 0.335608 10.1918 0.360847 10.3756 0.402912L10.5009 0.436565C10.6263 0.470217 10.7516 0.419739 10.8351 0.318782C10.8602 0.276716 10.9187 0.268303 10.9521 0.301955C10.9771 0.318782 10.9855 0.335608 10.9938 0.360847C11.0105 0.529109 11.1108 0.655305 11.2445 0.69737L11.3781 0.739436C11.5201 0.781501 11.6455 0.874045 11.729 0.991828C11.8125 1.11802 11.9128 1.24422 12.0297 1.32835L12.1133 1.41248C12.1968 1.49661 12.3138 1.53027 12.4307 1.52185H12.9236C13.1241 1.52185 13.3163 1.5555 13.5084 1.63964C13.6922 1.72377 13.8844 1.74059 14.0598 1.67329C14.2436 1.6144 14.4357 1.58916 14.6279 1.6144L14.9871 1.67329C15.1542 1.69011 15.3213 1.77424 15.4215 1.90044L15.4633 1.94251C15.5468 2.02664 15.6304 2.13601 15.7139 2.25379C15.764 2.36316 15.881 2.42205 15.9979 2.42205H16.5159C16.6412 2.42205 16.7665 2.44729 16.8668 2.50618C16.9754 2.59031 17.0673 2.67444 17.1508 2.75858L17.2343 2.86795C17.3346 2.98573 17.3847 3.14558 17.3764 3.31384C17.3764 3.44845 17.4766 3.56623 17.6103 3.56623L17.7774 3.58306C17.8943 3.58306 17.9946 3.66719 18.053 3.77656L18.1366 3.94482L18.3538 4.43278C18.3872 4.51691 18.3956 4.60104 18.3872 4.66834C18.3872 4.75248 18.4123 4.81978 18.4707 4.85343L18.5543 4.91232C18.6629 4.99646 18.7214 5.12265 18.7047 5.26567L18.6462 5.66109L18.6295 5.82935C18.6128 5.91348 18.6545 6.02285 18.7297 6.08174C18.855 6.16587 18.9135 6.27524 18.9219 6.40144V6.5697C18.9219 6.65383 18.9052 6.75479 18.8383 6.82209C18.7882 6.8894 18.7548 6.97353 18.7548 7.07449L18.7798 7.26799C18.7798 7.4026 18.8634 7.52038 18.9469 7.60451C19.0639 7.68864 19.1307 7.82325 19.1474 7.95786C19.1808 8.16819 19.1892 8.33645 19.1892 8.50471V8.69821C19.1892 8.76552 19.1892 8.83282 19.2143 8.90012C19.231 8.95902 19.2727 9.01791 19.3229 9.05156L19.4899 9.17776C19.657 9.28713 19.774 9.43015 19.8408 9.62365C19.9244 9.80874 19.9494 10.0022 19.9494 10.1957V10.263C19.9494 10.4145 19.9327 10.5743 19.8826 10.7174C19.8408 10.8688 19.8492 11.0118 19.9076 11.138C19.9745 11.2558 20.0163 11.3904 20.033 11.5334C20.0664 11.7017 20.0497 11.8699 19.9912 12.0046L19.9745 12.0634C19.9327 12.1644 19.8659 12.2569 19.7823 12.3327C19.6988 12.4168 19.6153 12.4673 19.5651 12.5262C19.515 12.5766 19.4816 12.6608 19.5067 12.7365L19.5317 12.8543C19.5735 13.0225 19.5735 13.1908 19.5317 13.3422V13.4095C19.4983 13.5357 19.4482 13.6451 19.398 13.7461C19.3396 13.8554 19.256 13.9396 19.1474 13.9985L19.0221 14.0826C18.9636 14.1162 18.9219 14.192 18.9219 14.2677C18.9219 14.3518 18.8884 14.4359 18.8383 14.4864L18.713 14.6547C18.6295 14.764 18.5209 14.8566 18.4039 14.9071C18.287 14.9912 18.1867 15.0753 18.1115 15.1595C18.028 15.2604 17.9611 15.3782 17.9277 15.496C17.8943 15.6474 17.7774 15.7315 17.652 15.7315H17.2009C17.084 15.7315 16.9754 15.8157 16.9252 15.9166C16.8668 16.0512 16.8083 16.1438 16.7331 16.2279C16.6496 16.3121 16.5994 16.413 16.566 16.5308C16.5493 16.6317 16.4658 16.6991 16.3822 16.6654C16.2736 16.6149 16.165 16.6654 16.1149 16.7495C16.0146 16.9178 15.9144 17.044 15.8058 17.1534L15.7473 17.2038C15.6387 17.288 15.4967 17.3553 15.3714 17.3553C15.221 17.3553 15.1458 17.4226 15.1208 17.5235C15.0957 17.6077 15.079 17.717 15.0706 17.8096C15.0539 17.9105 15.0205 18.0031 14.9871 18.0872L14.9453 18.1377C14.8618 18.2639 14.7949 18.3901 14.7114 18.4995L14.678 18.5499C14.5694 18.693 14.4274 18.8023 14.2603 18.8444C14.0598 18.9117 13.8844 18.9285 13.7089 18.9285H13.592C13.5084 18.9285 13.4249 18.979 13.3664 19.0631L13.3163 19.1473L13.2661 19.2482L13.1575 19.4333C13.074 19.5847 12.9487 19.6857 12.7816 19.7362C12.6145 19.7782 12.4224 19.7951 12.247 19.7867L12.1133 19.7698C11.9963 19.7698 11.8877 19.7362 11.7791 19.6857C11.6956 19.652 11.5786 19.6857 11.5285 19.7698C11.445 19.8876 11.3447 19.9549 11.2361 19.9886L10.9855 20.0727C10.8184 20.1148 10.6346 20.1148 10.4592 20.0727L10.3255 20.0306C10.242 20.0306 10.1584 19.9886 10.0916 19.9465C10.0081 19.9044 9.92451 19.8876 9.84097 19.896L9.73237 19.9128C9.56529 19.9297 9.41492 19.9128 9.26454 19.8708L9.03898 19.8203C8.93873 19.7867 8.84684 19.7193 8.78836 19.6268C8.74659 19.5427 8.65469 19.4754 8.53774 19.4585H8.27041C8.10332 19.4333 7.95295 19.3744 7.8527 19.2482L7.51854 18.9285L7.40158 18.8276L7.21779 18.693L7.10919 18.6088C6.98388 18.5247 6.8335 18.4574 6.67478 18.4406L6.17353 18.3564C6.12341 18.3564 6.08999 18.3396 6.03987 18.3312L5.84772 18.2891C5.76418 18.2723 5.68064 18.205 5.62216 18.1209C5.57204 18.0367 5.48014 18.0031 5.3966 18.0367C5.22952 18.104 5.09585 18.1209 4.96219 18.1461H4.84523C4.62803 18.1629 4.42753 18.1293 4.22703 18.0367C4.02653 17.9526 3.89287 17.8264 3.76756 17.6666C3.66731 17.5235 3.51693 17.4142 3.33314 17.3805L3.09923 17.33C2.93215 17.2964 2.76507 17.2291 2.61469 17.1281C2.44761 17.0103 2.36407 16.901 2.29724 16.7664C2.2304 16.6402 2.18863 16.4971 2.18028 16.3457V16.2784C2.16357 16.1101 2.04661 15.9587 1.88789 15.9166C1.69574 15.8577 1.55372 15.7736 1.42841 15.6642C1.31145 15.5549 1.24462 15.395 1.24462 15.2268L1.26133 14.8566C1.26133 14.7136 1.21956 14.5874 1.11931 14.4948C1.01906 14.3939 0.952229 14.2677 0.952229 14.1331L0.927167 13.8302C0.910459 13.6115 0.868688 13.3927 0.818564 13.174C0.768439 12.9805 0.843626 12.787 1.00235 12.6944L1.06083 12.6524C1.14437 12.5935 1.17779 12.4841 1.12766 12.3831L1.06083 12.299C0.977291 12.2149 0.89375 12.156 0.81021 12.1307C0.743377 12.1139 0.726669 12.0466 0.726669 12.0046L0.81021 11.9036C0.860334 11.8447 0.85198 11.7522 0.81021 11.7017C0.743377 11.6344 0.70996 11.5502 0.701606 11.4661L0.684898 10.8772C0.684898 10.7594 0.701606 10.6416 0.735023 10.5239C0.768439 10.4229 0.735023 10.3051 0.634774 10.2546V10.263ZM8.90532 9.15252C8.9638 9.09363 8.95544 8.98426 8.90532 8.94219C8.82178 8.87489 8.7633 8.79917 8.71317 8.71504L8.62963 8.58043C8.57115 8.47106 8.49597 8.37851 8.41243 8.29438L8.39572 8.27756C8.31218 8.21025 8.2537 8.12612 8.20357 8.02516C8.1618 7.94103 8.1618 7.8569 8.20357 7.77277L8.2537 7.68864C8.30382 7.60451 8.33724 7.48673 8.33724 7.38577V7.35212C8.33724 7.26799 8.30382 7.18386 8.2537 7.09973C8.22028 7.03242 8.18687 6.94829 8.17016 6.86416V6.81368C8.14509 6.71272 8.17016 6.60335 8.23699 6.51922C8.30382 6.40985 8.35395 6.3089 8.37901 6.1827V6.16587C8.41243 6.08174 8.39572 5.97237 8.34559 5.88824C8.29547 5.80411 8.27876 5.71998 8.31218 5.61902L8.37066 5.45076C8.42078 5.29933 8.49597 5.16472 8.59622 5.04693L8.71317 4.92074L8.79671 4.81978L8.84684 4.7693C8.89696 4.71882 8.90532 4.63469 8.86355 4.56739C8.82178 4.48326 8.79671 4.39913 8.81342 4.315L8.83013 4.19721C8.85519 4.02895 8.91367 3.86069 9.02227 3.72608L9.05569 3.69243C9.181 3.52417 9.33973 3.4148 9.52352 3.3559L9.74908 3.27177C9.84933 3.23812 9.91616 3.12875 9.91616 3.01938C9.91616 2.88477 9.95793 2.76699 10.0331 2.65762L10.0749 2.61555C10.1584 2.47253 10.2587 2.32951 10.3255 2.17807L10.384 2.0687C10.4007 2.04346 10.4091 2.00981 10.4091 1.98457C10.4091 1.84155 10.3255 1.71535 10.1918 1.70694L9.82427 1.6817C9.61541 1.66487 9.40656 1.6817 9.20606 1.6817L8.49597 1.76583C8.38736 1.76583 8.30382 1.84996 8.29547 1.96775C8.29547 2.08553 8.21193 2.18649 8.11168 2.22014L7.81093 2.30427L7.72739 2.32951L7.47677 2.41364C7.29298 2.47253 7.1426 2.60714 7.05906 2.79223L6.99223 2.9016C6.90869 3.08669 6.76667 3.23812 6.59124 3.34749C6.42415 3.45686 6.34061 3.63354 6.32391 3.83545V3.91958C6.3072 4.08784 6.25707 4.2561 6.15682 4.37389L6.11505 4.44119C6.04822 4.52532 6.03151 4.63469 6.07328 4.72724C6.11505 4.82819 6.14012 4.93756 6.13176 5.04693V5.49283C6.13176 5.61061 6.04822 5.71157 5.96468 5.74522C5.84772 5.78728 5.77254 5.87983 5.73912 5.99761L5.69735 6.16587C5.66393 6.33414 5.72241 6.5024 5.86443 6.60335C5.9981 6.70431 6.08164 6.85575 6.11505 7.04083V7.19227C6.14012 7.36053 6.23201 7.52879 6.38238 7.61292C6.53276 7.71388 6.64971 7.86532 6.71655 8.03358L6.75832 8.16819C6.82515 8.35327 6.97552 8.46264 7.14261 8.47947H7.19273C7.3431 8.47947 7.47677 8.5636 7.56031 8.69821C7.64385 8.83282 7.77752 8.92536 7.92789 8.9506L8.1618 9.01791C8.30382 9.05997 8.43749 9.13569 8.54609 9.24506L8.5628 9.26189C8.64634 9.32919 8.78001 9.32078 8.85519 9.22824L8.91367 9.16093L8.90532 9.15252ZM9.85768 8.37851C9.94122 8.42899 10.0248 8.40375 10.0582 8.32804L10.0832 8.28597C10.1417 8.16819 10.2169 8.0504 10.3004 7.94945L10.4675 7.69705C10.4926 7.69705 10.5009 7.68023 10.5093 7.6634L10.7098 7.39418C10.7933 7.31005 10.8936 7.25116 11.0105 7.25116C11.1191 7.25116 11.211 7.19227 11.2612 7.0829C11.2946 6.96512 11.3447 6.85575 11.445 6.7632L11.4867 6.71272C11.5703 6.62859 11.6538 6.58653 11.7374 6.54446C11.846 6.52764 11.9462 6.51081 12.0465 6.51081H12.2971C12.3973 6.51081 12.4809 6.46874 12.531 6.38461C12.5811 6.30048 12.6563 6.24159 12.7398 6.19953L12.8234 6.16587C12.957 6.10698 13.1074 6.06492 13.2578 6.04809L13.4249 6.03126C13.5251 6.03126 13.6337 6.03126 13.734 6.09016C13.8175 6.14905 13.9261 6.14063 14.0097 6.07333L14.0681 6.03968C14.1935 5.95555 14.3355 5.88824 14.4858 5.87142H14.5026C14.6696 5.83776 14.82 5.83776 14.9871 5.84618H15.0706C15.2377 5.87142 15.3797 5.93031 15.4883 6.0565L15.5134 6.09016C15.5969 6.17429 15.7306 6.24159 15.8476 6.24159H15.9896C16.0314 6.24159 16.0731 6.22476 16.0982 6.1827C16.1232 6.15746 16.165 6.13222 16.2068 6.13222H16.2903C16.4073 6.13222 16.5159 6.16587 16.6245 6.19953L16.7665 6.25842C16.9002 6.30048 17.0422 6.34255 17.1842 6.35937H17.2845C17.3513 6.35937 17.3931 6.31731 17.3931 6.25842C17.3931 6.17429 17.3764 6.09016 17.3346 6.02285L17.2761 5.88824C17.2093 5.77887 17.1592 5.66109 17.109 5.55172L17.0923 5.50965C17.0505 5.42552 17.0505 5.34139 17.0923 5.25726V5.2152C17.109 5.14789 17.0756 5.07217 17.0088 5.04693H16.9419C16.8083 5.00487 16.6913 4.92915 16.6078 4.81978L16.5242 4.73565C16.4407 4.65152 16.3906 4.52532 16.3572 4.39913C16.3154 4.28976 16.2235 4.20563 16.1065 4.20563H15.7557C15.6304 4.1888 15.5218 4.12149 15.4466 4.02054L15.4131 3.97847C15.3547 3.89434 15.3045 3.79338 15.2711 3.69243C15.2294 3.6083 15.1375 3.55782 15.0539 3.58306L14.9537 3.61671C14.7866 3.6756 14.6195 3.70084 14.4524 3.68401L14.3188 3.66719C14.1767 3.66719 14.0431 3.6083 13.9345 3.52417L13.8509 3.46527C13.7841 3.4148 13.7173 3.38114 13.6421 3.34749C13.5585 3.31384 13.4917 3.33067 13.4416 3.38956L13.3998 3.44004C13.3163 3.52417 13.1993 3.59147 13.0824 3.6083L12.6312 3.63354C12.5477 3.63354 12.4642 3.6756 12.4057 3.73449C12.3388 3.79338 12.2637 3.83545 12.1801 3.85228H12.1634C12.0799 3.85228 11.9963 3.91117 11.9128 3.97006V3.98689C11.8292 4.07102 11.7206 4.11308 11.612 4.11308L11.5786 4.12991C11.4784 4.12991 11.3781 4.12991 11.2779 4.15515H11.1776C11.0356 4.18039 10.927 4.29817 10.8936 4.4496L10.8602 4.64311C10.8351 4.77771 10.7766 4.8955 10.6931 5.00487C10.6096 5.10582 10.5093 5.17313 10.384 5.17313H10.2587H10.242C10.1584 5.18996 10.0749 5.2825 10.0916 5.38346C10.1083 5.52648 10.0916 5.65268 10.0665 5.77887L10.0331 5.92189C9.9997 6.04809 9.91616 6.14905 9.80756 6.19111L9.75743 6.21635H9.74073C9.6906 6.25 9.65718 6.32572 9.69895 6.38461C9.74908 6.46874 9.76579 6.55288 9.75743 6.63701L9.73237 6.90622C9.73237 7.00718 9.6906 7.09973 9.64883 7.18386C9.59871 7.26799 9.59871 7.35212 9.63212 7.43625L9.71566 7.62134C9.75743 7.70547 9.76579 7.7896 9.74073 7.89056C9.71566 7.97469 9.69895 8.05882 9.70731 8.14295C9.70731 8.22708 9.75743 8.31121 9.82427 8.34486L9.84097 8.36169L9.85768 8.37851ZM16.4574 14.4612C16.541 14.5453 16.6663 14.579 16.7665 14.5117L16.9336 14.4023C17.0171 14.3434 17.084 14.2593 17.1174 14.1499V14.1331L17.2009 13.8807L17.251 13.7965L17.2845 13.7124L17.3179 13.6535C17.3513 13.5862 17.4014 13.5357 17.485 13.5105L17.5184 13.4937C17.5852 13.4768 17.627 13.4095 17.627 13.3422C17.627 13.2581 17.6688 13.1908 17.7105 13.1319L17.7774 13.073L17.9444 12.8543V12.8374C17.9946 12.7701 18.028 12.6944 18.0447 12.6103C18.0614 12.5262 18.0447 12.442 18.0113 12.3579L17.9946 12.3242C17.9611 12.2401 17.9444 12.1812 17.9361 12.1055L17.911 11.8699L17.886 11.6176C17.886 11.5334 17.9194 11.4493 17.9695 11.3652C18.028 11.2979 18.0697 11.2137 18.1032 11.1296V11.0959L18.1199 11.0791C18.1366 10.995 18.0948 10.9109 18.0196 10.9109C17.9361 10.8688 17.8525 10.8015 17.8275 10.7005L17.8024 10.65C17.7606 10.4986 17.7356 10.3472 17.7356 10.1957L17.7523 9.77509V9.74985C17.7523 9.60682 17.6353 9.49745 17.5017 9.49745H17.485C17.3179 9.49745 17.1842 9.44698 17.0673 9.32919L17.0004 9.24506L16.8333 9.05156L16.6161 8.79917C16.5326 8.68139 16.4491 8.58043 16.3405 8.47947C16.2569 8.39534 16.1316 8.31121 16.0063 8.29438L15.8392 8.26914C15.7557 8.25232 15.6471 8.21025 15.5552 8.15136C15.4883 8.10088 15.3881 8.11771 15.3213 8.18501L15.2127 8.3028L15.1625 8.33645C15.104 8.35327 15.0456 8.31962 15.0205 8.25232C14.9871 8.15136 14.9871 8.03358 15.0372 7.93262V7.88214C15.0372 7.82325 14.9871 7.78119 14.937 7.79801H14.8033C14.6529 7.79801 14.5026 7.78119 14.3605 7.71388L14.277 7.68023C14.1935 7.63816 14.0932 7.61292 14.0013 7.61292C13.9178 7.61292 13.8342 7.62975 13.7507 7.68023L13.7173 7.70547C13.617 7.77277 13.5001 7.80642 13.3831 7.81484H13.1074C12.9821 7.81484 12.8568 7.8569 12.7733 7.92421C12.6647 7.99151 12.5477 8.03358 12.4224 8.05882L12.1968 8.09247C12.0966 8.11771 11.988 8.15977 11.8961 8.23549C11.8125 8.31962 11.6956 8.3701 11.587 8.40375L11.5452 8.42058C11.4115 8.46264 11.2946 8.54678 11.211 8.67297L11.1108 8.77393C11.0523 8.85806 11.0523 8.95902 11.1108 9.04315C11.1609 9.12728 11.2612 9.15252 11.3614 9.12728L11.4867 9.0768C11.5536 9.05156 11.6287 9.0768 11.6872 9.11045C11.7374 9.15252 11.8125 9.17776 11.8877 9.16934L12.0966 9.1441C12.2135 9.1441 12.3305 9.1441 12.4474 9.17776C12.5728 9.21982 12.6814 9.26189 12.7816 9.34602C12.8819 9.43015 12.9905 9.4638 13.1158 9.48063C13.2411 9.49745 13.3664 9.52269 13.4834 9.56476L13.5669 9.58158C13.6504 9.60682 13.7173 9.66572 13.7674 9.74985C13.8092 9.81715 13.8509 9.91811 13.8509 10.0022V10.0275C13.8509 10.1284 13.9345 10.1957 14.018 10.1957H14.0681C14.2018 10.1957 14.3438 10.2126 14.4858 10.2546L14.5443 10.2799C14.6279 10.3135 14.7114 10.364 14.7699 10.4481C14.8367 10.5323 14.8785 10.6164 14.9036 10.7005L14.9286 10.8183C14.9537 10.9445 14.962 11.0707 14.962 11.2053V11.2474C14.962 11.3315 15.0205 11.4156 15.1124 11.4493C15.1959 11.4661 15.2962 11.4998 15.3881 11.5502L15.4299 11.5671C15.5385 11.6344 15.6471 11.7185 15.7306 11.8195L15.7724 11.8784C15.881 12.0046 15.9395 12.1644 15.9395 12.3242V12.3831C15.9395 12.5093 15.9144 12.6355 15.8726 12.7533C15.8392 12.8543 15.8726 12.9721 15.9812 13.0057L16.0397 13.0478C16.165 13.0983 16.2736 13.1908 16.3572 13.3002C16.4407 13.4264 16.4741 13.5694 16.4741 13.7208V13.9732C16.4574 14.0573 16.4323 14.1246 16.3906 14.1835C16.3488 14.2424 16.3488 14.3266 16.3906 14.3855L16.4407 14.4696L16.4574 14.4612ZM11.1108 10.1537H11.0941C11.0607 10.1537 11.044 10.1957 11.0523 10.2378L11.0857 10.4061C11.1192 10.5407 11.1359 10.6753 11.1526 10.8099C11.1693 10.9445 11.2361 11.0623 11.3364 11.1464H11.3698C11.4951 11.2474 11.5703 11.3988 11.5786 11.5502V11.9709C11.5619 12.055 11.5786 12.1392 11.6287 12.2065L11.6705 12.2485C11.7541 12.3495 11.7875 12.4673 11.7958 12.5851L11.8209 13.0478C11.8209 13.1571 11.7541 13.2497 11.6538 13.2665L11.5703 13.2833C11.5118 13.2833 11.4867 13.3506 11.4867 13.4095C11.4867 13.4768 11.5118 13.5526 11.5369 13.6199V13.6367C11.5619 13.7208 11.5703 13.805 11.5619 13.8891L11.5285 14.1162C11.4951 14.2845 11.445 14.4359 11.3614 14.5874L11.3029 14.6883C11.2612 14.7725 11.2027 14.8229 11.1359 14.8566C11.0523 14.8902 10.9938 14.9575 10.9688 15.0417L10.9019 15.3445C10.8602 15.5128 10.785 15.6811 10.6847 15.8493H10.668C10.5678 15.9839 10.4425 16.1017 10.2921 16.1859L10.1918 16.2532L9.94122 16.3794C9.85768 16.413 9.80756 16.4887 9.79085 16.5813L9.74908 16.8589C9.72402 17.0272 9.66554 17.1702 9.54858 17.2796L9.43998 17.4058L9.31467 17.5319L9.18936 17.6666C9.08911 17.7843 8.93873 17.8348 8.77165 17.8096L8.47091 17.7507L8.19522 17.717H8.12003C8.08662 17.7507 8.07826 17.8012 8.10332 17.8516C8.1618 17.9526 8.2537 18.0199 8.35395 18.0199L8.53774 18.0536C8.62128 18.0536 8.72153 18.0956 8.80507 18.1377C8.88861 18.1966 8.97215 18.2386 9.0724 18.2639H9.08911C9.19771 18.306 9.31467 18.3144 9.42327 18.306L9.54858 18.2891C9.6906 18.2723 9.82427 18.2891 9.94122 18.3396L10.0415 18.3733C10.0832 18.3901 10.1501 18.3733 10.1918 18.3312C10.242 18.2807 10.2921 18.2471 10.3589 18.2218L10.4258 18.205C10.5344 18.1713 10.643 18.1545 10.7599 18.1545H10.8268C10.927 18.1545 11.0189 18.1713 11.1024 18.2218L11.1359 18.2386C11.1943 18.2639 11.2612 18.2386 11.3029 18.1882C11.328 18.1293 11.3865 18.0704 11.445 18.0199L11.6538 17.8769L11.7875 17.7928L11.8543 17.7507C11.9378 17.6918 12.0548 17.6666 12.1551 17.6666L12.4558 17.6413C12.5728 17.6245 12.673 17.5404 12.7064 17.4226C12.7398 17.2964 12.79 17.1702 12.8735 17.0608C12.957 16.9514 13.0406 16.8589 13.1241 16.7748C13.2327 16.6906 13.3413 16.6486 13.4583 16.6402H13.5251C13.6588 16.6149 13.759 16.4887 13.7507 16.3541V16.3373V15.7904C13.7674 15.7063 13.8008 15.5969 13.8509 15.5128L14.018 15.2604L14.0849 15.1763C14.135 15.1342 14.1684 15.0753 14.2269 15.008L14.3104 14.8987C14.3605 14.8145 14.3605 14.7052 14.2937 14.6294C14.2102 14.5453 14.1684 14.4275 14.1517 14.3097V14.2761C14.135 14.1415 14.135 13.9985 14.1767 13.8554V13.8134C14.2185 13.704 14.277 13.5946 14.3438 13.4937C14.4107 13.4095 14.4023 13.2918 14.3188 13.2244L14.1767 13.0983C14.0598 12.9973 13.993 12.8459 13.9762 12.6944L13.9595 12.5262C13.9595 12.4757 13.9595 12.4168 13.9428 12.3579L13.9261 12.2317C13.9094 12.0887 13.8259 11.9793 13.7089 11.8952L13.6504 11.8784C13.5669 11.8279 13.4834 11.7522 13.4165 11.6512C13.3497 11.5671 13.3163 11.4493 13.2912 11.3315L13.2661 11.1885C13.2661 11.138 13.2327 11.1044 13.1826 11.0791L13.0489 11.037L12.7816 10.9529C12.6981 10.9361 12.6145 10.8688 12.5561 10.8099H12.5393C12.4892 10.7426 12.4057 10.7426 12.3556 10.7931L12.272 10.8772C12.2553 10.9024 12.2386 10.9109 12.2135 10.9024C12.1634 10.9024 12.13 10.8604 12.1467 10.8183C12.1634 10.6837 12.1133 10.5491 12.0047 10.465L11.8961 10.3808L11.6455 10.2126C11.5786 10.1873 11.4784 10.2126 11.445 10.2967L11.4115 10.3472C11.4115 10.364 11.3865 10.3724 11.3781 10.3808C11.3447 10.3808 11.2946 10.3808 11.2946 10.3388L11.2695 10.2967C11.2445 10.2462 11.186 10.2126 11.1359 10.1957L11.1108 10.1537ZM10.1083 10.995L10.0665 10.9529C10.0248 10.9193 9.98299 10.9277 9.94122 10.9697C9.88274 11.0707 9.83262 11.1801 9.80756 11.2894V11.3063C9.7825 11.4156 9.68225 11.4914 9.582 11.4745H9.49846H9.48175C9.36479 11.4745 9.2729 11.5755 9.2729 11.6933C9.2729 11.8447 9.22277 11.9961 9.13088 12.1139L9.08075 12.1644C8.99721 12.2738 8.8719 12.3495 8.74659 12.3916L8.67976 12.4084C8.59622 12.4336 8.52938 12.4925 8.51267 12.5935C8.51267 12.6776 8.46255 12.7617 8.39572 12.829L8.31218 12.8963C8.21193 13.0057 8.06155 13.0646 7.91118 13.0814L7.49348 13.1235C7.35981 13.1235 7.24285 13.2076 7.15931 13.3338C7.07577 13.46 6.95046 13.5441 6.82515 13.561L6.64136 13.5778C6.5077 13.5946 6.36568 13.5946 6.22366 13.561L6.14012 13.5441L5.91456 13.4853C5.83101 13.46 5.76418 13.4853 5.71406 13.5441L5.63052 13.6535C5.52191 13.7797 5.36319 13.8386 5.21281 13.8218L4.6698 13.7545C4.58626 13.7545 4.51942 13.7124 4.44424 13.6703C4.3607 13.6199 4.30222 13.561 4.24374 13.5021L4.03489 13.2497C4.00982 13.2329 3.96805 13.2244 3.92628 13.2329L3.80933 13.2833L3.3415 13.4011C3.25796 13.4264 3.14935 13.4011 3.06581 13.3506C2.98227 13.2833 2.88202 13.2665 2.78177 13.2665H2.67317C2.57292 13.2918 2.50609 13.4011 2.53951 13.5021L2.57292 13.6703C2.59798 13.7545 2.58963 13.8554 2.54786 13.9396C2.50609 14.0237 2.51444 14.1078 2.57292 14.192L2.62305 14.2593C2.68988 14.3602 2.79013 14.4443 2.87367 14.5285C2.95721 14.6126 3.04075 14.6967 3.10758 14.8061L3.23289 15.0333C3.29973 15.151 3.39998 15.2183 3.53364 15.2183C3.65895 15.2183 3.78426 15.2604 3.88451 15.3445L4.13514 15.5801C4.20197 15.639 4.30222 15.6474 4.36905 15.5969L4.41082 15.5801C4.46094 15.5801 4.49436 15.6138 4.49436 15.6642V15.7063C4.49436 15.8157 4.5779 15.9166 4.6865 15.9587L5.06244 16.0428C5.1961 16.0849 5.32977 16.127 5.45508 16.2111H5.52191C5.58875 16.2111 5.64722 16.1522 5.63887 16.0765V15.782C5.63887 15.6979 5.67229 15.6138 5.73912 15.5801L5.78089 15.5633C5.82266 15.5801 5.86443 15.6138 5.84772 15.6474V15.7904C5.84772 15.8998 5.88114 16.0008 5.95633 16.0765C6.03987 16.1606 6.14847 16.1774 6.24036 16.1438C6.34061 16.1017 6.44086 16.0933 6.54947 16.1017L6.85857 16.1185C7.00894 16.1354 7.15096 16.1185 7.27627 16.0597C7.42664 16.0092 7.55196 15.9419 7.66891 15.8493L7.71904 15.8157L7.96966 15.5885C8.0532 15.5044 8.1618 15.4623 8.26205 15.4623H8.59622C8.7633 15.4455 8.91367 15.2941 8.93038 15.1258L8.9638 14.9575C8.9638 14.8482 9.01392 14.7472 9.08911 14.6631C9.17265 14.579 9.25619 14.5285 9.33973 14.4948L9.43998 14.4528C9.582 14.3939 9.6906 14.2677 9.74073 14.1162L9.79085 13.9143C9.83262 13.7461 9.91616 13.5778 10.0415 13.4684L10.0582 13.4516C10.1584 13.3675 10.1751 13.1992 10.1083 13.0814L10.0832 13.0225C10.0248 12.9384 10.0164 12.8122 10.0582 12.7028C10.1 12.5851 10.1417 12.4841 10.2086 12.3831L10.2921 12.2654C10.3255 12.1981 10.3255 12.0971 10.2754 12.0382C10.2253 11.9709 10.1918 11.8868 10.1918 11.8026L10.1751 11.6849V11.3988C10.1918 11.3147 10.1751 11.2053 10.1501 11.1212L10.1167 11.0202L10.1083 10.995ZM8.91367 10.3556V10.3303C8.91367 10.2462 8.86355 10.1957 8.79671 10.1957H8.57951C8.49597 10.2126 8.41243 10.2126 8.34559 10.1957H7.96966C7.77752 10.1957 7.59373 10.1621 7.40994 10.1116L7.20944 10.0611L7.04236 10.0107L6.66642 9.88446C6.46592 9.82556 6.31555 9.69096 6.22366 9.50587L6.18189 9.42174C6.12341 9.29554 5.9981 9.22824 5.87279 9.25347C5.73077 9.25347 5.58875 9.25347 5.45508 9.18617L5.35483 9.1441C5.16269 9.05997 5.02067 8.89171 5.02067 8.66456L4.98725 8.43741C4.96219 8.31962 4.887 8.21025 4.78675 8.16819C4.6698 8.11771 4.56119 8.0504 4.45259 7.97469L4.41082 7.94945C4.28551 7.84849 4.17691 7.71388 4.11843 7.55403L4.10172 7.50355C4.05995 7.36894 4.05159 7.22592 4.08501 7.0829L4.10172 7.03242C4.13514 6.92305 4.14349 6.81368 4.14349 6.6959C4.14349 6.59494 4.10172 6.49398 4.02653 6.41827L3.90957 6.3089C3.77591 6.19953 3.69237 6.03968 3.68401 5.863C3.66731 5.67791 3.66731 5.50124 3.70072 5.32457V5.29933V5.27409C3.70072 5.17313 3.61718 5.10583 3.53364 5.10583H3.50858C3.39998 5.10583 3.30808 5.17313 3.25796 5.27409C3.21619 5.39187 3.14935 5.48441 3.07417 5.57696L3.04075 5.61902L2.87367 5.78728L2.79013 5.87142C2.70659 5.95555 2.65646 6.08174 2.63975 6.20794C2.62305 6.33414 2.58963 6.46033 2.53951 6.57811L2.5228 6.62018C2.48103 6.72114 2.41419 6.81368 2.33065 6.87257C2.24711 6.93988 2.18863 7.04083 2.18863 7.14179L2.17193 7.52879C2.17193 7.69705 2.14686 7.86532 2.08838 8.03358L2.07168 8.10088C2.02991 8.21025 2.07168 8.32804 2.17193 8.37851L2.5228 8.52995L2.55621 8.54678C2.58128 8.54678 2.58963 8.5636 2.59798 8.58884C2.62305 8.62249 2.59798 8.67297 2.57292 8.67297L2.48938 8.71504C2.43926 8.73186 2.40584 8.78234 2.38913 8.84123L2.37242 8.92536V8.94219L2.28888 9.41332C2.27217 9.48063 2.27217 9.55634 2.27217 9.63206C2.27217 9.69937 2.31394 9.75826 2.37242 9.7835L2.55621 9.86763C2.63975 9.91811 2.74 9.977 2.80684 10.0359L2.89038 10.1032C2.91544 10.1368 2.95721 10.1705 2.99063 10.1873L3.02404 10.221C3.08252 10.2715 3.12429 10.3388 3.141 10.4145L3.22454 10.7931C3.22454 10.894 3.30808 10.9782 3.39162 11.0034L3.52529 11.0455C3.52529 11.0455 3.55035 11.0455 3.56706 11.0623L3.73414 11.1128C3.8678 11.1548 3.98476 11.2305 4.08501 11.3315C4.18526 11.4156 4.28551 11.525 4.36905 11.6428L4.40247 11.6764C4.4693 11.7606 4.56955 11.8026 4.6698 11.7774C4.77005 11.7522 4.87865 11.7437 4.98725 11.7437H5.11256C5.1961 11.7437 5.30471 11.769 5.3966 11.8279C5.48014 11.8784 5.58875 11.912 5.68899 11.9541H5.71406C5.81431 11.9961 5.92291 11.9793 6.00645 11.9204C6.08999 11.8531 6.19859 11.8195 6.3072 11.8195L6.69984 11.8447C6.78338 11.8447 6.86692 11.8279 6.90869 11.7606H6.9254L7.06742 11.626L7.10919 11.5839C7.17602 11.4998 7.27627 11.4661 7.37652 11.4577H7.75245C7.8527 11.4577 7.9446 11.3736 7.98637 11.2894C8.02814 11.2053 8.11168 11.138 8.21193 11.1212L8.37901 11.0875C8.44584 11.0875 8.50432 11.0286 8.52938 10.9529C8.55445 10.8688 8.59622 10.8015 8.65469 10.751L8.78836 10.6164C8.8719 10.5323 8.91367 10.4481 8.93038 10.3472L8.91367 10.3556Z" fill="#222427"/>
</g>
<defs>
<clipPath id="clip0_5292_1261">
<rect width="20" height="20" fill="white"/>
</clipPath>
</defs>
</svg>
