<svg width="51" height="51" viewBox="0 0 51 51" fill="none" xmlns="http://www.w3.org/2000/svg">
<path fill-rule="evenodd" clip-rule="evenodd" d="M5.69985 0.333252H45.9666C48.735 0.333252 51 3.18326 51 6.6666V44.6667C51 48.15 48.735 51 45.9666 51H5.69985C2.93151 51 0.666504 48.15 0.666504 44.6667L0.691671 6.6666C0.691671 3.18326 2.93151 0.333252 5.69985 0.333252ZM27.1666 27.7885L44.9595 13.7918C45.5887 13.2852 45.9662 12.4302 45.9662 11.5118C45.9662 9.39015 44.129 8.12348 42.6945 9.23182L25.8328 22.5002L8.97104 9.23182C7.53653 8.12348 5.69936 9.39015 5.69936 11.5118C5.69936 12.4302 6.07686 13.2852 6.70603 13.7918L24.4989 27.7885C25.3043 28.4219 26.3613 28.4219 27.1666 27.7885Z" fill="#FA8E41"/>
</svg>
