<svg width="64" height="51" viewBox="0 0 64 51" fill="none" xmlns="http://www.w3.org/2000/svg">
<path fill-rule="evenodd" clip-rule="evenodd" d="M6.99985 0.333252H57.6667C61.15 0.333252 64 3.18326 64 6.6666V44.6667C64 48.15 61.15 51 57.6667 51H6.99985C3.51651 51 0.666504 48.15 0.666504 44.6667L0.698171 6.6666C0.698171 3.18326 3.51651 0.333252 6.99985 0.333252ZM34.011 27.7885L56.3994 13.7918C57.191 13.2851 57.666 12.4301 57.666 11.5118C57.666 9.39014 55.3544 8.12347 53.5494 9.2318L32.3326 22.5002L11.1159 9.2318C9.31092 8.12347 6.99925 9.39014 6.99925 11.5118C6.99925 12.4301 7.47425 13.2851 8.26592 13.7918L30.6543 27.7885C31.6676 28.4218 32.9976 28.4218 34.011 27.7885Z" fill="#FA8E41"/>
</svg>
