<svg width="20" height="20" viewBox="0 0 20 20" fill="none" xmlns="http://www.w3.org/2000/svg">
<path fill-rule="evenodd" clip-rule="evenodd" d="M3.33335 3.33325H16.6667C17.5834 3.33325 18.3334 4.08325 18.3334 4.99992V14.9999C18.3334 15.9166 17.5834 16.6666 16.6667 16.6666H3.33335C2.41669 16.6666 1.66669 15.9166 1.66669 14.9999L1.67502 4.99992C1.67502 4.08325 2.41669 3.33325 3.33335 3.33325ZM10.4417 10.5583L16.3334 6.87492C16.5417 6.74159 16.6667 6.51659 16.6667 6.27492C16.6667 5.71659 16.0584 5.38325 15.5834 5.67492L10 9.16659L4.41669 5.67492C3.94169 5.38325 3.33335 5.71659 3.33335 6.27492C3.33335 6.51659 3.45835 6.74159 3.66669 6.87492L9.55835 10.5583C9.82502 10.7249 10.175 10.7249 10.4417 10.5583Z" fill="#222427"/>
</svg>
