<svg width="52" height="50" viewBox="0 0 52 50" fill="none" xmlns="http://www.w3.org/2000/svg">
<path fill-rule="evenodd" clip-rule="evenodd" d="M26 0.622559C12.0623 0.622559 0.761902 11.9208 0.761902 25.8607C0.761902 37.0117 7.99262 46.4718 18.0206 49.8095C19.2825 50.043 19.7452 49.2627 19.7452 48.596C19.7452 47.9945 19.722 46.007 19.7115 43.8975C12.6911 45.4244 11.2084 40.9194 11.2084 40.9194C10.06 38.0023 8.40694 37.2262 8.40694 37.2262C6.11659 35.6593 8.5794 35.693 8.5794 35.693C11.1137 35.8718 12.4471 38.2946 12.4471 38.2946C14.6975 42.1518 18.3508 41.0372 19.7914 40.3915C20.0186 38.7594 20.6727 37.6468 21.394 37.0159C15.7891 36.3786 9.89599 34.2145 9.89599 24.5441C9.89599 21.7889 10.8824 19.5364 12.4976 17.7697C12.2347 17.1325 11.3703 14.5666 12.7416 11.0901C12.7416 11.0901 14.8616 10.4128 19.6842 13.677C21.6969 13.1175 23.8548 12.8378 26 12.8273C28.1452 12.8378 30.3052 13.1175 32.3221 13.677C37.1384 10.4107 39.2563 11.0901 39.2563 11.0901C40.6297 14.5666 39.7653 17.1325 39.5045 17.7697C41.1218 19.5364 42.1019 21.7889 42.1019 24.5441C42.1019 34.2376 36.1983 36.3723 30.5786 36.997C31.483 37.7793 32.2906 39.3168 32.2906 41.6702C32.2906 45.0479 32.2612 47.7652 32.2612 48.596C32.2612 49.2669 32.7154 50.0556 33.9942 49.8074C44.0179 46.4655 51.2402 37.0096 51.2402 25.8628C51.2381 11.9229 39.9377 0.622559 26 0.622559Z" fill="#FA8E41"/>
</svg>
