<svg width="20" height="20" viewBox="0 0 20 20" fill="none" xmlns="http://www.w3.org/2000/svg">
<g clip-path="url(#clip0_5292_1246)">
<path fill-rule="evenodd" clip-rule="evenodd" d="M10 0.246582C4.4775 0.246582 0 4.72325 0 10.2466C0 14.6649 2.865 18.4132 6.83833 19.7357C7.33833 19.8282 7.52167 19.5191 7.52167 19.2549C7.52167 19.0166 7.5125 18.2291 7.50833 17.3932C4.72667 17.9982 4.13917 16.2132 4.13917 16.2132C3.68417 15.0574 3.02917 14.7499 3.02917 14.7499C2.12167 14.1291 3.0975 14.1424 3.0975 14.1424C4.10167 14.2132 4.63 15.1732 4.63 15.1732C5.52167 16.7016 6.96917 16.2599 7.54 16.0041C7.63 15.3574 7.88917 14.9166 8.175 14.6666C5.95417 14.4141 3.61917 13.5566 3.61917 9.72492C3.61917 8.63325 4.01 7.74075 4.65 7.04075C4.54583 6.78825 4.20333 5.77158 4.74667 4.39408C4.74667 4.39408 5.58667 4.12575 7.4975 5.41908C8.295 5.19741 9.15 5.08658 10 5.08242C10.85 5.08658 11.7058 5.19741 12.505 5.41908C14.4133 4.12492 15.2525 4.39408 15.2525 4.39408C15.7967 5.77158 15.4542 6.78825 15.3508 7.04075C15.9917 7.74075 16.38 8.63325 16.38 9.72492C16.38 13.5657 14.0408 14.4116 11.8142 14.6591C12.1725 14.9691 12.4925 15.5782 12.4925 16.5107C12.4925 17.8491 12.4808 18.9257 12.4808 19.2549C12.4808 19.5208 12.6608 19.8332 13.1675 19.7349C17.1392 18.4107 20.0008 14.6641 20.0008 10.2474C20 4.72408 15.5225 0.246582 10 0.246582Z" fill="#222427"/>
<path d="M3.78753 14.6049C3.76586 14.6549 3.68753 14.6699 3.61586 14.6358C3.54336 14.6033 3.50253 14.5349 3.52586 14.4858C3.54753 14.4349 3.62586 14.4208 3.69836 14.4549C3.77086 14.4866 3.81253 14.5549 3.78753 14.6049Z" fill="#222427"/>
<path d="M4.19249 15.0565C4.14499 15.1007 4.05166 15.0799 3.98833 15.0107C3.92249 14.9407 3.91083 14.8474 3.95916 14.8032C4.00833 14.759 4.09833 14.7799 4.16416 14.8499C4.22999 14.919 4.24249 15.0115 4.19249 15.0565Z" fill="#222427"/>
<path d="M4.58664 15.6323C4.52497 15.6748 4.42497 15.6348 4.3633 15.5465C4.30164 15.4573 4.30164 15.3506 4.36497 15.3081C4.42664 15.2656 4.5258 15.304 4.5883 15.3923C4.64914 15.4823 4.64914 15.589 4.58664 15.6323Z" fill="#222427"/>
<path d="M5.12669 16.1891C5.07169 16.25 4.95502 16.2333 4.87002 16.1508C4.78252 16.07 4.75836 15.9558 4.81336 15.895C4.86919 15.8341 4.98669 15.8516 5.07252 15.9333C5.15919 16.0141 5.18502 16.1291 5.12669 16.1891Z" fill="#222427"/>
<path d="M5.8725 16.5116C5.84833 16.59 5.73583 16.6258 5.6225 16.5925C5.50917 16.5583 5.435 16.4666 5.45833 16.3875C5.48167 16.3083 5.595 16.2716 5.70917 16.3075C5.82167 16.3408 5.89583 16.4325 5.8725 16.5116Z" fill="#222427"/>
<path d="M6.69086 16.5717C6.69336 16.6542 6.59753 16.7225 6.47836 16.7242C6.3592 16.7267 6.2617 16.66 6.26086 16.5792C6.26086 16.4958 6.35503 16.4283 6.4742 16.4258C6.59336 16.4233 6.69086 16.49 6.69086 16.5717Z" fill="#222427"/>
<path d="M7.4525 16.4425C7.46666 16.5225 7.38416 16.6058 7.26583 16.6275C7.15 16.6491 7.0425 16.5991 7.0275 16.5191C7.01333 16.4366 7.0975 16.3541 7.21333 16.3325C7.33083 16.3116 7.4375 16.36 7.4525 16.4425Z" fill="#222427"/>
</g>
<defs>
<clipPath id="clip0_5292_1246">
<rect width="20" height="20" fill="white"/>
</clipPath>
</defs>
</svg>
