<svg width="2382" height="44" viewBox="0 0 2382 44" fill="none" xmlns="http://www.w3.org/2000/svg">
<path d="M2326.77 37.1958L2321 31.4223L2315.23 37.1958L2321 42.9693L2326.77 37.1958ZM20.2265 37.1958L26 42.9693L31.7735 37.1958L26 31.4223L20.2265 37.1958ZM26 38.1958C28.2534 38.1958 30.5021 38.1958 32.746 38.1958C34.9898 38.1958 37.229 38.1958 39.4634 38.1958C41.6977 38.1958 43.9274 38.1958 46.1523 38.1958C48.3772 38.1958 50.5974 38.1958 52.8129 38.1958C55.0284 38.1958 57.2392 38.1958 59.4453 38.1958C61.6514 38.1958 63.8529 38.1958 66.0496 38.1958C68.2464 38.1958 70.4385 38.1958 72.626 38.1958C74.8134 38.1958 76.9962 38.1958 79.1744 38.1958C81.3526 38.1958 83.5262 38.1958 85.6951 38.1958C87.8641 38.1958 90.0284 38.1958 92.1882 38.1958C94.348 38.1958 96.5031 38.1958 98.6538 38.1958C100.804 38.1958 102.95 38.1958 105.092 38.1958C107.233 38.1958 109.37 38.1958 111.503 38.1958C113.635 38.1958 115.763 38.1958 117.886 38.1958C120.01 38.1958 122.129 38.1958 124.243 38.1958C126.357 38.1958 128.467 38.1958 130.573 38.1958C132.678 38.1958 134.779 38.1958 136.876 38.1958C138.972 38.1958 141.064 38.1958 143.152 38.1958C145.239 38.1958 147.323 38.1958 149.401 38.1958C151.48 38.1958 153.555 38.1958 155.625 38.1958C157.695 38.1958 159.76 38.1958 161.821 38.1958C163.882 38.1958 165.939 38.1958 167.992 38.1958C170.044 38.1958 172.092 38.1958 174.136 38.1958C176.18 38.1958 178.219 38.1958 180.255 38.1958C182.29 38.1958 184.32 38.1958 186.347 38.1958C188.373 38.1958 190.396 38.1958 192.414 38.1958C194.432 38.1958 196.445 38.1958 198.455 38.1958C200.464 38.1958 202.469 38.1958 204.47 38.1958C206.471 38.1958 208.468 38.1958 210.46 38.1958C212.453 38.1958 214.441 38.1958 216.425 38.1958C218.409 38.1958 220.389 38.1958 222.364 38.1958C224.34 38.1958 226.312 38.1958 228.279 38.1958C230.246 38.1958 232.209 38.1958 234.168 38.1958C236.127 38.1958 238.082 38.1958 240.033 38.1958C241.984 38.1958 243.93 38.1958 245.873 38.1958C247.815 38.1958 249.754 38.1958 251.688 38.1958C253.622 38.1958 255.553 38.1958 257.479 38.1958C259.405 38.1958 261.327 38.1958 263.245 38.1958C265.163 38.1958 267.077 38.1958 268.987 38.1958C270.897 38.1958 272.803 38.1958 274.705 38.1958C276.607 38.1958 278.505 38.1958 280.399 38.1958C282.293 38.1958 284.183 38.1958 286.069 38.1958C287.955 38.1958 289.837 38.1958 291.715 38.1958C293.593 38.1958 295.467 38.1958 297.338 38.1958C299.208 38.1958 301.074 38.1958 302.937 38.1958C304.799 38.1958 306.657 38.1958 308.512 38.1958C310.367 38.1958 312.217 38.1958 314.064 38.1958C315.911 38.1958 317.754 38.1958 319.593 38.1958C321.432 38.1958 323.267 38.1958 325.099 38.1958C326.93 38.1958 328.758 38.1958 330.581 38.1958C332.405 38.1958 334.225 38.1958 336.041 38.1958C337.857 38.1958 339.67 38.1958 341.478 38.1958C343.287 38.1958 345.092 38.1958 346.893 38.1958C348.694 38.1958 350.491 38.1958 352.285 38.1958C354.078 38.1958 355.868 38.1958 357.654 38.1958C359.44 38.1958 361.223 38.1958 363.001 38.1958C364.78 38.1958 366.555 38.1958 368.326 38.1958C370.098 38.1958 371.865 38.1958 373.629 38.1958C375.393 38.1958 377.153 38.1958 378.91 38.1958C380.667 38.1958 382.42 38.1958 384.169 38.1958C385.919 38.1958 387.664 38.1958 389.407 38.1958C391.149 38.1958 392.887 38.1958 394.622 38.1958C396.357 38.1958 398.089 38.1958 399.817 38.1958C401.545 38.1958 403.269 38.1958 404.99 38.1958C406.71 38.1958 408.428 38.1958 410.141 38.1958C411.855 38.1958 413.565 38.1958 415.272 38.1958C416.978 38.1958 418.682 38.1958 420.381 38.1958C422.081 38.1958 423.777 38.1958 425.47 38.1958C427.163 38.1958 428.852 38.1958 430.538 38.1958C432.223 38.1958 433.906 38.1958 435.585 38.1958C437.264 38.1958 438.939 38.1958 440.611 38.1958C442.283 38.1958 443.952 38.1958 445.617 38.1958C447.283 38.1958 448.945 38.1958 450.603 38.1958C452.262 38.1958 453.917 38.1958 455.569 38.1958C457.22 38.1958 458.869 38.1958 460.514 38.1958C462.159 38.1958 463.801 38.1958 465.439 38.1958C467.078 38.1958 468.713 38.1958 470.345 38.1958C471.977 38.1958 473.606 38.1958 475.231 38.1958C476.856 38.1958 478.478 38.1958 480.097 38.1958C481.716 38.1958 483.331 38.1958 484.944 38.1958C486.556 38.1958 488.165 38.1958 489.771 38.1958C491.377 38.1958 492.979 38.1958 494.579 38.1958C496.178 38.1958 497.775 38.1958 499.368 38.1958C500.961 38.1958 502.551 38.1958 504.137 38.1958C505.724 38.1958 507.308 38.1958 508.888 38.1958C510.469 38.1958 512.046 38.1958 513.62 38.1958C515.194 38.1958 516.766 38.1958 518.333 38.1958C519.901 38.1958 521.466 38.1958 523.028 38.1958C524.59 38.1958 526.149 38.1958 527.704 38.1958C529.26 38.1958 530.813 38.1958 532.362 38.1958C533.912 38.1958 535.458 38.1958 537.002 38.1958C538.545 38.1958 540.086 38.1958 541.623 38.1958C543.161 38.1958 544.695 38.1958 546.227 38.1958C547.758 38.1958 549.287 38.1958 550.812 38.1958C552.338 38.1958 553.86 38.1958 555.38 38.1958C556.9 38.1958 558.416 38.1958 559.93 38.1958C561.444 38.1958 562.955 38.1958 564.462 38.1958C565.97 38.1958 567.475 38.1958 568.978 38.1958C570.48 38.1958 571.979 38.1958 573.475 38.1958C574.972 38.1958 576.465 38.1958 577.956 38.1958C579.447 38.1958 580.934 38.1958 582.419 38.1958C583.904 38.1958 585.387 38.1958 586.866 38.1958C588.345 38.1958 589.822 38.1958 591.296 38.1958C592.769 38.1958 594.24 38.1958 595.708 38.1958C597.177 38.1958 598.642 38.1958 600.105 38.1958C601.567 38.1958 603.027 38.1958 604.485 38.1958C605.942 38.1958 607.396 38.1958 608.848 38.1958C610.3 38.1958 611.749 38.1958 613.195 38.1958C614.641 38.1958 616.085 38.1958 617.526 38.1958C618.967 38.1958 620.405 38.1958 621.841 38.1958C623.276 38.1958 624.709 38.1958 626.14 38.1958C627.57 38.1958 628.998 38.1958 630.423 38.1958C631.848 38.1958 633.271 38.1958 634.69 38.1958C636.11 38.1958 637.528 38.1958 638.942 38.1958C640.357 38.1958 641.769 38.1958 643.179 38.1958C644.588 38.1958 645.995 38.1958 647.4 38.1958C648.804 38.1958 650.206 38.1958 651.606 38.1958C653.005 38.1958 654.402 38.1958 655.796 38.1958C657.191 38.1958 658.583 38.1958 659.972 38.1958C661.362 38.1958 662.748 38.1958 664.133 38.1958C665.517 38.1958 666.899 38.1958 668.279 38.1958C669.659 38.1958 671.036 38.1958 672.41 38.1958C673.785 38.1958 675.157 38.1958 676.527 38.1958C677.897 38.1958 679.265 38.1958 680.63 38.1958C681.995 38.1958 683.357 38.1958 684.718 38.1958C686.078 38.1958 687.436 38.1958 688.792 38.1958C690.147 38.1958 691.501 38.1958 692.852 38.1958C694.203 38.1958 695.551 38.1958 696.898 38.1958C698.244 38.1958 699.588 38.1958 700.93 38.1958C702.271 38.1958 703.611 38.1958 704.948 38.1958C706.285 38.1958 707.62 38.1958 708.953 38.1958C710.285 38.1958 711.616 38.1958 712.944 38.1958C714.272 38.1958 715.598 38.1958 716.922 38.1958C718.246 38.1958 719.567 38.1958 720.886 38.1958C722.206 38.1958 723.523 38.1958 724.838 38.1958C726.153 38.1958 727.466 38.1958 728.776 38.1958C730.087 38.1958 731.395 38.1958 732.702 38.1958C734.008 38.1958 735.312 38.1958 736.614 38.1958C737.917 38.1958 739.217 38.1958 740.515 38.1958C741.812 38.1958 743.108 38.1958 744.402 38.1958C745.696 38.1958 746.987 38.1958 748.277 38.1958C749.567 38.1958 750.854 38.1958 752.14 38.1958C753.425 38.1958 754.709 38.1958 755.99 38.1958C757.272 38.1958 758.551 38.1958 759.828 38.1958C761.106 38.1958 762.381 38.1958 763.655 38.1958C764.928 38.1958 766.2 38.1958 767.469 38.1958C768.739 38.1958 770.006 38.1958 771.272 38.1958C772.538 38.1958 773.801 38.1958 775.063 38.1958C776.325 38.1958 777.585 38.1958 778.843 38.1958C780.101 38.1958 781.357 38.1958 782.611 38.1958C783.865 38.1958 785.117 38.1958 786.368 38.1958C787.618 38.1958 788.867 38.1958 790.113 38.1958C791.36 38.1958 792.605 38.1958 793.848 38.1958C795.091 38.1958 796.332 38.1958 797.572 38.1958C798.811 38.1958 800.049 38.1958 801.284 38.1958C802.52 38.1958 803.754 38.1958 804.986 38.1958C806.219 38.1958 807.449 38.1958 808.678 38.1958C809.907 38.1958 811.134 38.1958 812.359 38.1958C813.584 38.1958 814.808 38.1958 816.03 38.1958C817.252 38.1958 818.472 38.1958 819.69 38.1958C820.909 38.1958 822.125 38.1958 823.34 38.1958C824.556 38.1958 825.769 38.1958 826.981 38.1958C828.193 38.1958 829.403 38.1958 830.611 38.1958C831.82 38.1958 833.026 38.1958 834.232 38.1958C835.437 38.1958 836.641 38.1958 837.843 38.1958C839.045 38.1958 840.245 38.1958 841.444 38.1958C842.643 38.1958 843.84 38.1958 845.036 38.1958C846.232 38.1958 847.426 38.1958 848.619 38.1958C849.811 38.1958 851.002 38.1958 852.192 38.1958C853.382 38.1958 854.57 38.1958 855.756 38.1958C856.943 38.1958 858.128 38.1958 859.312 38.1958C860.495 38.1958 861.677 38.1958 862.858 38.1958C864.039 38.1958 865.218 38.1958 866.396 38.1958C867.574 38.1958 868.75 38.1958 869.925 38.1958C871.1 38.1958 872.273 38.1958 873.445 38.1958C874.618 38.1958 875.788 38.1958 876.958 38.1958C878.127 38.1958 879.295 38.1958 880.462 38.1958C881.628 38.1958 882.793 38.1958 883.957 38.1958C885.121 38.1958 886.284 38.1958 887.445 38.1958C888.606 38.1958 889.766 38.1958 890.925 38.1958C892.083 38.1958 893.241 38.1958 894.397 38.1958C895.553 38.1958 896.707 38.1958 897.861 38.1958C899.014 38.1958 900.167 38.1958 901.318 38.1958C902.469 38.1958 903.618 38.1958 904.767 38.1958C905.915 38.1958 907.063 38.1958 908.209 38.1958C909.355 38.1958 910.5 38.1958 911.643 38.1958C912.787 38.1958 913.929 38.1958 915.071 38.1958C916.212 38.1958 917.352 38.1958 918.491 38.1958C919.63 38.1958 920.768 38.1958 921.905 38.1958C923.042 38.1958 924.177 38.1958 925.312 38.1958C926.446 38.1958 927.58 38.1958 928.712 38.1958C929.844 38.1958 930.975 38.1958 932.105 38.1958C933.236 38.1958 934.365 38.1958 935.493 38.1958C936.621 38.1958 937.748 38.1958 938.874 38.1958C939.999 38.1958 941.124 38.1958 942.248 38.1958C943.372 38.1958 944.495 38.1958 945.617 38.1958C946.739 38.1958 947.86 38.1958 948.98 38.1958C950.099 38.1958 951.218 38.1958 952.336 38.1958C953.454 38.1958 954.571 38.1958 955.687 38.1958C956.804 38.1958 957.919 38.1958 959.033 38.1958C960.147 38.1958 961.26 38.1958 962.373 38.1958C963.485 38.1958 964.597 38.1958 965.707 38.1958C966.818 38.1958 967.928 38.1958 969.037 38.1958C970.146 38.1958 971.254 38.1958 972.361 38.1958C973.468 38.1958 974.575 38.1958 975.68 38.1958C976.786 38.1958 977.89 38.1958 978.994 38.1958C980.098 38.1958 981.201 38.1958 982.304 38.1958C983.406 38.1958 984.508 38.1958 985.608 38.1958C986.709 38.1958 987.809 38.1958 988.909 38.1958C990.008 38.1958 991.106 38.1958 992.204 38.1958C993.302 38.1958 994.399 38.1958 995.496 38.1958C996.592 38.1958 997.688 38.1958 998.783 38.1958C999.878 38.1958 1000.97 38.1958 1002.07 38.1958C1003.16 38.1958 1004.25 38.1958 1005.34 38.1958C1006.44 38.1958 1007.53 38.1958 1008.62 38.1958C1009.71 38.1958 1010.8 38.1958 1011.89 38.1958C1012.98 38.1958 1014.07 38.1958 1015.16 38.1958C1016.25 38.1958 1017.34 38.1958 1018.42 38.1958C1019.51 38.1958 1020.6 38.1958 1021.68 38.1958C1022.77 38.1958 1023.86 38.1958 1024.94 38.1958C1026.03 38.1958 1027.11 38.1958 1028.2 38.1958C1029.28 38.1958 1030.36 38.1958 1031.45 38.1958C1032.53 38.1958 1033.61 38.1958 1034.7 38.1958C1035.78 38.1958 1036.86 38.1958 1037.94 38.1958C1039.02 38.1958 1040.1 38.1958 1041.18 38.1958C1042.26 38.1958 1043.34 38.1958 1044.42 38.1958C1045.5 38.1958 1046.58 38.1958 1047.66 38.1958C1048.74 38.1958 1049.82 38.1958 1050.9 38.1958C1051.98 38.1958 1053.05 38.1958 1054.13 38.1958C1055.21 38.1958 1056.28 38.1958 1057.36 38.1958C1058.44 38.1958 1059.51 38.1958 1060.59 38.1958C1061.67 38.1958 1062.74 38.1958 1063.82 38.1958C1064.89 38.1958 1065.97 38.1958 1067.04 38.1958C1068.12 38.1958 1069.19 38.1958 1070.27 38.1958C1071.34 38.1958 1072.41 38.1958 1073.49 38.1958C1074.56 38.1958 1075.64 38.1958 1076.71 38.1958C1077.78 38.1958 1078.85 38.1958 1079.93 38.1958C1081 38.1958 1082.07 38.1958 1083.15 38.1958C1084.22 38.1958 1085.29 38.1958 1086.36 38.1958C1087.43 38.1958 1088.51 38.1958 1089.58 38.1958C1090.65 38.1958 1091.72 38.1958 1092.79 38.1958C1093.87 38.1958 1094.94 38.1958 1096.01 38.1958C1097.08 38.1958 1098.15 38.1958 1099.22 38.1958C1100.29 38.1958 1101.36 38.1958 1102.43 38.1958C1103.51 38.1958 1104.58 38.1958 1105.65 38.1958C1106.72 38.1958 1107.79 38.1958 1108.86 38.1958C1109.93 38.1958 1111 38.1958 1112.07 38.1958C1113.14 38.1958 1114.21 38.1958 1115.28 38.1958C1116.36 38.1958 1117.43 38.1958 1118.5 38.1958C1119.57 38.1958 1120.64 38.1958 1121.71 38.1958C1122.78 38.1958 1123.85 38.1958 1124.92 38.1958C1125.99 38.1958 1127.06 38.1958 1128.14 38.1958C1129.21 38.1958 1130.28 38.1958 1131.35 38.1958C1132.42 38.1958 1133.49 38.1958 1134.56 38.1958C1135.64 38.1958 1136.71 38.1958 1137.78 38.1958C1138.85 38.1958 1139.92 38.1958 1140.99 38.1958C1142.07 38.1958 1143.14 38.1958 1144.21 38.1958C1145.28 38.1958 1146.36 38.1958 1147.43 38.1958C1148.5 38.1958 1149.58 38.1958 1150.65 38.1958C1151.72 38.1958 1152.8 38.1958 1153.87 38.1958C1154.94 38.1958 1156.02 38.1958 1157.09 38.1958C1158.17 38.1958 1159.24 38.1958 1160.32 38.1958C1161.39 38.1958 1162.47 38.1958 1163.54 38.1958C1164.62 38.1958 1165.69 38.1958 1166.77 38.1958C1167.84 38.1958 1168.92 38.1958 1170 38.1958C1171.07 38.1958 1172.15 38.1958 1173.23 38.1958C1174.31 38.1958 1175.38 38.1958 1176.46 38.1958C1177.54 38.1958 1178.62 38.1958 1179.7 38.1958C1180.78 38.1958 1181.86 38.1958 1182.94 38.1958C1184.02 38.1958 1185.1 38.1958 1186.18 38.1958C1187.26 38.1958 1188.34 38.1958 1189.42 38.1958C1190.5 38.1958 1191.58 38.1958 1192.67 38.1958C1193.75 38.1958 1194.83 38.1958 1195.91 38.1958C1197 38.1958 1198.08 38.1958 1199.17 38.1958C1200.25 38.1958 1201.33 38.1958 1202.42 38.1958C1203.51 38.1958 1204.59 38.1958 1205.68 38.1958C1206.76 38.1958 1207.85 38.1958 1208.94 38.1958C1210.03 38.1958 1211.12 38.1958 1212.2 38.1958C1213.29 38.1958 1214.38 38.1958 1215.47 38.1958C1216.56 38.1958 1217.65 38.1958 1218.74 38.1958C1219.84 38.1958 1220.93 38.1958 1222.02 38.1958C1223.11 38.1958 1224.21 38.1958 1225.3 38.1958C1226.39 38.1958 1227.49 38.1958 1228.58 38.1958C1229.68 38.1958 1230.77 38.1958 1231.87 38.1958C1232.97 38.1958 1234.06 38.1958 1235.16 38.1958C1236.26 38.1958 1237.36 38.1958 1238.46 38.1958C1239.56 38.1958 1240.66 38.1958 1241.76 38.1958C1242.86 38.1958 1243.96 38.1958 1245.06 38.1958C1246.17 38.1958 1247.27 38.1958 1248.37 38.1958C1249.48 38.1958 1250.58 38.1958 1251.69 38.1958C1252.8 38.1958 1253.9 38.1958 1255.01 38.1958C1256.12 38.1958 1257.22 38.1958 1258.33 38.1958C1259.44 38.1958 1260.55 38.1958 1261.66 38.1958C1262.77 38.1958 1263.89 38.1958 1265 38.1958C1266.11 38.1958 1267.23 38.1958 1268.34 38.1958C1269.45 38.1958 1270.57 38.1958 1271.69 38.1958C1272.8 38.1958 1273.92 38.1958 1275.04 38.1958C1276.16 38.1958 1277.27 38.1958 1278.39 38.1958C1279.52 38.1958 1280.64 38.1958 1281.76 38.1958C1282.88 38.1958 1284 38.1958 1285.13 38.1958C1286.25 38.1958 1287.38 38.1958 1288.5 38.1958C1289.63 38.1958 1290.76 38.1958 1291.88 38.1958C1293.01 38.1958 1294.14 38.1958 1295.27 38.1958C1296.4 38.1958 1297.53 38.1958 1298.67 38.1958C1299.8 38.1958 1300.93 38.1958 1302.07 38.1958C1303.2 38.1958 1304.34 38.1958 1305.48 38.1958C1306.61 38.1958 1307.75 38.1958 1308.89 38.1958C1310.03 38.1958 1311.17 38.1958 1312.31 38.1958C1313.45 38.1958 1314.6 38.1958 1315.74 38.1958C1316.88 38.1958 1318.03 38.1958 1319.18 38.1958C1320.32 38.1958 1321.47 38.1958 1322.62 38.1958C1323.77 38.1958 1324.92 38.1958 1326.07 38.1958C1327.22 38.1958 1328.37 38.1958 1329.53 38.1958C1330.68 38.1958 1331.83 38.1958 1332.99 38.1958C1334.15 38.1958 1335.3 38.1958 1336.46 38.1958C1337.62 38.1958 1338.78 38.1958 1339.94 38.1958C1341.11 38.1958 1342.27 38.1958 1343.43 38.1958C1344.6 38.1958 1345.76 38.1958 1346.93 38.1958C1348.1 38.1958 1349.26 38.1958 1350.43 38.1958C1351.6 38.1958 1352.78 38.1958 1353.95 38.1958C1355.12 38.1958 1356.29 38.1958 1357.47 38.1958C1358.64 38.1958 1359.82 38.1958 1361 38.1958C1362.18 38.1958 1363.36 38.1958 1364.54 38.1958C1365.72 38.1958 1366.9 38.1958 1368.09 38.1958C1369.27 38.1958 1370.45 38.1958 1371.64 38.1958C1372.83 38.1958 1374.02 38.1958 1375.21 38.1958C1376.4 38.1958 1377.59 38.1958 1378.78 38.1958C1379.97 38.1958 1381.17 38.1958 1382.37 38.1958C1383.56 38.1958 1384.76 38.1958 1385.96 38.1958C1387.16 38.1958 1388.36 38.1958 1389.56 38.1958C1390.76 38.1958 1391.97 38.1958 1393.17 38.1958C1394.38 38.1958 1395.59 38.1958 1396.79 38.1958C1398 38.1958 1399.21 38.1958 1400.43 38.1958C1401.64 38.1958 1402.85 38.1958 1404.07 38.1958C1405.28 38.1958 1406.5 38.1958 1407.72 38.1958C1408.94 38.1958 1410.16 38.1958 1411.38 38.1958C1412.6 38.1958 1413.83 38.1958 1415.05 38.1958C1416.28 38.1958 1417.51 38.1958 1418.74 38.1958C1419.96 38.1958 1421.2 38.1958 1422.43 38.1958C1423.66 38.1958 1424.9 38.1958 1426.13 38.1958C1427.37 38.1958 1428.61 38.1958 1429.85 38.1958C1431.09 38.1958 1432.33 38.1958 1433.57 38.1958C1434.81 38.1958 1436.06 38.1958 1437.31 38.1958C1438.55 38.1958 1439.8 38.1958 1441.05 38.1958C1442.3 38.1958 1443.56 38.1958 1444.81 38.1958C1446.07 38.1958 1447.32 38.1958 1448.58 38.1958C1449.84 38.1958 1451.1 38.1958 1452.36 38.1958C1453.62 38.1958 1454.89 38.1958 1456.15 38.1958C1457.42 38.1958 1458.69 38.1958 1459.96 38.1958C1461.23 38.1958 1462.5 38.1958 1463.77 38.1958C1465.05 38.1958 1466.32 38.1958 1467.6 38.1958C1468.88 38.1958 1470.16 38.1958 1471.44 38.1958C1472.72 38.1958 1474.01 38.1958 1475.29 38.1958C1476.58 38.1958 1477.87 38.1958 1479.16 38.1958C1480.45 38.1958 1481.74 38.1958 1483.03 38.1958C1484.33 38.1958 1485.62 38.1958 1486.92 38.1958C1488.22 38.1958 1489.52 38.1958 1490.82 38.1958C1492.13 38.1958 1493.43 38.1958 1494.74 38.1958C1496.05 38.1958 1497.35 38.1958 1498.67 38.1958C1499.98 38.1958 1501.29 38.1958 1502.61 38.1958C1503.92 38.1958 1505.24 38.1958 1506.56 38.1958C1507.88 38.1958 1509.2 38.1958 1510.53 38.1958C1511.85 38.1958 1513.18 38.1958 1514.5 38.1958C1515.83 38.1958 1517.16 38.1958 1518.5 38.1958C1519.83 38.1958 1521.17 38.1958 1522.5 38.1958C1523.84 38.1958 1525.18 38.1958 1526.52 38.1958C1527.87 38.1958 1529.21 38.1958 1530.56 38.1958C1531.9 38.1958 1533.25 38.1958 1534.6 38.1958C1535.96 38.1958 1537.31 38.1958 1538.67 38.1958C1540.02 38.1958 1541.38 38.1958 1542.74 38.1958C1544.1 38.1958 1545.47 38.1958 1546.83 38.1958C1548.2 38.1958 1549.57 38.1958 1550.94 38.1958C1552.31 38.1958 1553.68 38.1958 1555.05 38.1958C1556.43 38.1958 1557.81 38.1958 1559.19 38.1958C1560.57 38.1958 1561.95 38.1958 1563.34 38.1958C1564.72 38.1958 1566.11 38.1958 1567.5 38.1958C1568.89 38.1958 1570.28 38.1958 1571.68 38.1958C1573.07 38.1958 1574.47 38.1958 1575.87 38.1958C1577.27 38.1958 1578.67 38.1958 1580.08 38.1958C1581.48 38.1958 1582.89 38.1958 1584.3 38.1958C1585.71 38.1958 1587.12 38.1958 1588.54 38.1958C1589.95 38.1958 1591.37 38.1958 1592.79 38.1958C1594.21 38.1958 1595.63 38.1958 1597.06 38.1958C1598.49 38.1958 1599.91 38.1958 1601.34 38.1958C1602.78 38.1958 1604.21 38.1958 1605.65 38.1958C1607.08 38.1958 1608.52 38.1958 1609.96 38.1958C1611.4 38.1958 1612.85 38.1958 1614.3 38.1958C1615.74 38.1958 1617.19 38.1958 1618.64 38.1958C1620.1 38.1958 1621.55 38.1958 1623.01 38.1958C1624.47 38.1958 1625.93 38.1958 1627.39 38.1958C1628.85 38.1958 1630.32 38.1958 1631.79 38.1958C1633.26 38.1958 1634.73 38.1958 1636.2 38.1958C1637.68 38.1958 1639.16 38.1958 1640.64 38.1958C1642.12 38.1958 1643.6 38.1958 1645.08 38.1958C1646.57 38.1958 1648.06 38.1958 1649.55 38.1958C1651.04 38.1958 1652.54 38.1958 1654.03 38.1958C1655.53 38.1958 1657.03 38.1958 1658.53 38.1958C1660.04 38.1958 1661.54 38.1958 1663.05 38.1958C1664.56 38.1958 1666.07 38.1958 1667.58 38.1958C1669.1 38.1958 1670.62 38.1958 1672.14 38.1958C1673.66 38.1958 1675.18 38.1958 1676.71 38.1958C1678.23 38.1958 1679.76 38.1958 1681.29 38.1958C1682.83 38.1958 1684.36 38.1958 1685.9 38.1958C1687.44 38.1958 1688.98 38.1958 1690.52 38.1958C1692.07 38.1958 1693.61 38.1958 1695.17 38.1958C1696.72 38.1958 1698.27 38.1958 1699.83 38.1958C1701.38 38.1958 1702.94 38.1958 1704.5 38.1958C1706.07 38.1958 1707.63 38.1958 1709.2 38.1958C1710.77 38.1958 1712.34 38.1958 1713.92 38.1958C1715.49 38.1958 1717.07 38.1958 1718.65 38.1958C1720.23 38.1958 1721.82 38.1958 1723.4 38.1958C1724.99 38.1958 1726.58 38.1958 1728.17 38.1958C1729.77 38.1958 1731.37 38.1958 1732.97 38.1958C1734.57 38.1958 1736.17 38.1958 1737.78 38.1958C1739.38 38.1958 1740.99 38.1958 1742.61 38.1958C1744.22 38.1958 1745.84 38.1958 1747.45 38.1958C1749.07 38.1958 1750.7 38.1958 1752.32 38.1958C1753.95 38.1958 1755.58 38.1958 1757.21 38.1958C1758.84 38.1958 1760.48 38.1958 1762.12 38.1958C1763.76 38.1958 1765.4 38.1958 1767.05 38.1958C1768.69 38.1958 1770.34 38.1958 1771.99 38.1958C1773.65 38.1958 1775.3 38.1958 1776.96 38.1958C1778.62 38.1958 1780.28 38.1958 1781.95 38.1958C1783.62 38.1958 1785.29 38.1958 1786.96 38.1958C1788.63 38.1958 1790.31 38.1958 1791.99 38.1958C1793.67 38.1958 1795.35 38.1958 1797.04 38.1958C1798.72 38.1958 1800.41 38.1958 1802.11 38.1958C1803.8 38.1958 1805.5 38.1958 1807.2 38.1958C1808.9 38.1958 1810.6 38.1958 1812.31 38.1958C1814.02 38.1958 1815.73 38.1958 1817.44 38.1958C1819.16 38.1958 1820.88 38.1958 1822.6 38.1958C1824.32 38.1958 1826.05 38.1958 1827.77 38.1958C1829.5 38.1958 1831.23 38.1958 1832.97 38.1958C1834.71 38.1958 1836.45 38.1958 1838.19 38.1958C1839.93 38.1958 1841.68 38.1958 1843.43 38.1958C1845.18 38.1958 1846.93 38.1958 1848.69 38.1958C1850.45 38.1958 1852.21 38.1958 1853.97 38.1958C1855.74 38.1958 1857.51 38.1958 1859.28 38.1958C1861.05 38.1958 1862.83 38.1958 1864.61 38.1958C1866.39 38.1958 1868.17 38.1958 1869.96 38.1958C1871.74 38.1958 1873.53 38.1958 1875.33 38.1958C1877.12 38.1958 1878.92 38.1958 1880.72 38.1958C1882.53 38.1958 1884.33 38.1958 1886.14 38.1958C1887.95 38.1958 1889.76 38.1958 1891.58 38.1958C1893.4 38.1958 1895.22 38.1958 1897.04 38.1958C1898.87 38.1958 1900.7 38.1958 1902.53 38.1958C1904.36 38.1958 1906.2 38.1958 1908.04 38.1958C1909.88 38.1958 1911.72 38.1958 1913.57 38.1958C1915.42 38.1958 1917.27 38.1958 1919.12 38.1958C1920.98 38.1958 1922.84 38.1958 1924.7 38.1958C1926.57 38.1958 1928.43 38.1958 1930.3 38.1958C1932.17 38.1958 1934.05 38.1958 1935.93 38.1958C1937.81 38.1958 1939.69 38.1958 1941.58 38.1958C1943.46 38.1958 1945.36 38.1958 1947.25 38.1958C1949.15 38.1958 1951.04 38.1958 1952.95 38.1958C1954.85 38.1958 1956.76 38.1958 1958.67 38.1958C1960.58 38.1958 1962.49 38.1958 1964.41 38.1958C1966.33 38.1958 1968.26 38.1958 1970.18 38.1958C1972.11 38.1958 1974.04 38.1958 1975.98 38.1958C1977.91 38.1958 1979.85 38.1958 1981.79 38.1958C1983.74 38.1958 1985.69 38.1958 1987.64 38.1958C1989.59 38.1958 1991.54 38.1958 1993.5 38.1958C1995.46 38.1958 1997.43 38.1958 1999.4 38.1958C2001.37 38.1958 2003.34 38.1958 2005.31 38.1958C2007.29 38.1958 2009.27 38.1958 2011.26 38.1958C2013.24 38.1958 2015.23 38.1958 2017.22 38.1958C2019.22 38.1958 2021.22 38.1958 2023.22 38.1958C2025.22 38.1958 2027.23 38.1958 2029.24 38.1958C2031.25 38.1958 2033.26 38.1958 2035.28 38.1958C2037.3 38.1958 2039.32 38.1958 2041.35 38.1958C2043.38 38.1958 2045.41 38.1958 2047.45 38.1958C2049.48 38.1958 2051.52 38.1958 2053.57 38.1958C2055.61 38.1958 2057.66 38.1958 2059.71 38.1958C2061.77 38.1958 2063.83 38.1958 2065.89 38.1958C2067.95 38.1958 2070.02 38.1958 2072.09 38.1958C2074.16 38.1958 2076.23 38.1958 2078.31 38.1958C2080.39 38.1958 2082.48 38.1958 2084.57 38.1958C2086.66 38.1958 2088.75 38.1958 2090.85 38.1958C2092.94 38.1958 2095.05 38.1958 2097.15 38.1958C2099.26 38.1958 2101.37 38.1958 2103.48 38.1958C2105.6 38.1958 2107.72 38.1958 2109.84 38.1958C2111.97 38.1958 2114.1 38.1958 2116.23 38.1958C2118.37 38.1958 2120.5 38.1958 2122.65 38.1958C2124.79 38.1958 2126.94 38.1958 2129.09 38.1958C2131.24 38.1958 2133.4 38.1958 2135.56 38.1958C2137.72 38.1958 2139.88 38.1958 2142.05 38.1958C2144.22 38.1958 2146.4 38.1958 2148.58 38.1958C2150.76 38.1958 2152.94 38.1958 2155.13 38.1958C2157.32 38.1958 2159.51 38.1958 2161.71 38.1958C2163.91 38.1958 2166.11 38.1958 2168.32 38.1958C2170.52 38.1958 2172.73 38.1958 2174.95 38.1958C2177.17 38.1958 2179.39 38.1958 2181.61 38.1958C2183.84 38.1958 2186.07 38.1958 2188.31 38.1958C2190.54 38.1958 2192.78 38.1958 2195.03 38.1958C2197.27 38.1958 2199.52 38.1958 2201.78 38.1958C2204.03 38.1958 2206.29 38.1958 2208.56 38.1958C2210.82 38.1958 2213.09 38.1958 2215.36 38.1958C2217.64 38.1958 2219.91 38.1958 2222.2 38.1958C2224.48 38.1958 2226.77 38.1958 2229.06 38.1958C2231.36 38.1958 2233.65 38.1958 2235.96 38.1958C2238.26 38.1958 2240.57 38.1958 2242.88 38.1958C2245.19 38.1958 2247.51 38.1958 2249.83 38.1958C2252.16 38.1958 2254.48 38.1958 2256.81 38.1958C2259.15 38.1958 2261.48 38.1958 2263.83 38.1958C2266.17 38.1958 2268.52 38.1958 2270.87 38.1958C2273.22 38.1958 2275.58 38.1958 2277.94 38.1958C2280.3 38.1958 2282.67 38.1958 2285.04 38.1958C2287.41 38.1958 2289.79 38.1958 2292.17 38.1958C2294.55 38.1958 2296.94 38.1958 2299.33 38.1958C2301.73 38.1958 2304.12 38.1958 2306.53 38.1958C2308.93 38.1958 2311.34 38.1958 2313.75 38.1958C2316.16 38.1958 2318.58 38.1958 2321 38.1958V36.1958C2318.58 36.1958 2316.16 36.1958 2313.75 36.1958C2311.34 36.1958 2308.93 36.1958 2306.53 36.1958C2304.12 36.1958 2301.73 36.1958 2299.33 36.1958C2296.94 36.1958 2294.55 36.1958 2292.17 36.1958C2289.79 36.1958 2287.41 36.1958 2285.04 36.1958C2282.67 36.1958 2280.3 36.1958 2277.94 36.1958C2275.58 36.1958 2273.22 36.1958 2270.87 36.1958C2268.52 36.1958 2266.17 36.1958 2263.83 36.1958C2261.48 36.1958 2259.15 36.1958 2256.81 36.1958C2254.48 36.1958 2252.16 36.1958 2249.83 36.1958C2247.51 36.1958 2245.19 36.1958 2242.88 36.1958C2240.57 36.1958 2238.26 36.1958 2235.96 36.1958C2233.65 36.1958 2231.36 36.1958 2229.06 36.1958C2226.77 36.1958 2224.48 36.1958 2222.2 36.1958C2219.91 36.1958 2217.64 36.1958 2215.36 36.1958C2213.09 36.1958 2210.82 36.1958 2208.56 36.1958C2206.29 36.1958 2204.03 36.1958 2201.78 36.1958C2199.52 36.1958 2197.27 36.1958 2195.03 36.1958C2192.78 36.1958 2190.54 36.1958 2188.31 36.1958C2186.07 36.1958 2183.84 36.1958 2181.61 36.1958C2179.39 36.1958 2177.17 36.1958 2174.95 36.1958C2172.73 36.1958 2170.52 36.1958 2168.32 36.1958C2166.11 36.1958 2163.91 36.1958 2161.71 36.1958C2159.51 36.1958 2157.32 36.1958 2155.13 36.1958C2152.94 36.1958 2150.76 36.1958 2148.58 36.1958C2146.4 36.1958 2144.22 36.1958 2142.05 36.1958C2139.88 36.1958 2137.72 36.1958 2135.56 36.1958C2133.4 36.1958 2131.24 36.1958 2129.09 36.1958C2126.94 36.1958 2124.79 36.1958 2122.65 36.1958C2120.5 36.1958 2118.37 36.1958 2116.23 36.1958C2114.1 36.1958 2111.97 36.1958 2109.84 36.1958C2107.72 36.1958 2105.6 36.1958 2103.48 36.1958C2101.37 36.1958 2099.26 36.1958 2097.15 36.1958C2095.05 36.1958 2092.94 36.1958 2090.85 36.1958C2088.75 36.1958 2086.66 36.1958 2084.57 36.1958C2082.48 36.1958 2080.39 36.1958 2078.31 36.1958C2076.23 36.1958 2074.16 36.1958 2072.09 36.1958C2070.02 36.1958 2067.95 36.1958 2065.89 36.1958C2063.83 36.1958 2061.77 36.1958 2059.71 36.1958C2057.66 36.1958 2055.61 36.1958 2053.57 36.1958C2051.52 36.1958 2049.48 36.1958 2047.45 36.1958C2045.41 36.1958 2043.38 36.1958 2041.35 36.1958C2039.32 36.1958 2037.3 36.1958 2035.28 36.1958C2033.26 36.1958 2031.25 36.1958 2029.24 36.1958C2027.23 36.1958 2025.22 36.1958 2023.22 36.1958C2021.22 36.1958 2019.22 36.1958 2017.22 36.1958C2015.23 36.1958 2013.24 36.1958 2011.26 36.1958C2009.27 36.1958 2007.29 36.1958 2005.31 36.1958C2003.34 36.1958 2001.37 36.1958 1999.4 36.1958C1997.43 36.1958 1995.46 36.1958 1993.5 36.1958C1991.54 36.1958 1989.59 36.1958 1987.64 36.1958C1985.69 36.1958 1983.74 36.1958 1981.79 36.1958C1979.85 36.1958 1977.91 36.1958 1975.98 36.1958C1974.04 36.1958 1972.11 36.1958 1970.18 36.1958C1968.26 36.1958 1966.33 36.1958 1964.41 36.1958C1962.49 36.1958 1960.58 36.1958 1958.67 36.1958C1956.76 36.1958 1954.85 36.1958 1952.95 36.1958C1951.04 36.1958 1949.15 36.1958 1947.25 36.1958C1945.36 36.1958 1943.46 36.1958 1941.58 36.1958C1939.69 36.1958 1937.81 36.1958 1935.93 36.1958C1934.05 36.1958 1932.17 36.1958 1930.3 36.1958C1928.43 36.1958 1926.57 36.1958 1924.7 36.1958C1922.84 36.1958 1920.98 36.1958 1919.12 36.1958C1917.27 36.1958 1915.42 36.1958 1913.57 36.1958C1911.72 36.1958 1909.88 36.1958 1908.04 36.1958C1906.2 36.1958 1904.36 36.1958 1902.53 36.1958C1900.7 36.1958 1898.87 36.1958 1897.04 36.1958C1895.22 36.1958 1893.4 36.1958 1891.58 36.1958C1889.76 36.1958 1887.95 36.1958 1886.14 36.1958C1884.33 36.1958 1882.53 36.1958 1880.72 36.1958C1878.92 36.1958 1877.12 36.1958 1875.33 36.1958C1873.53 36.1958 1871.74 36.1958 1869.96 36.1958C1868.17 36.1958 1866.39 36.1958 1864.61 36.1958C1862.83 36.1958 1861.05 36.1958 1859.28 36.1958C1857.51 36.1958 1855.74 36.1958 1853.97 36.1958C1852.21 36.1958 1850.45 36.1958 1848.69 36.1958C1846.93 36.1958 1845.18 36.1958 1843.43 36.1958C1841.68 36.1958 1839.93 36.1958 1838.19 36.1958C1836.45 36.1958 1834.71 36.1958 1832.97 36.1958C1831.23 36.1958 1829.5 36.1958 1827.77 36.1958C1826.05 36.1958 1824.32 36.1958 1822.6 36.1958C1820.88 36.1958 1819.16 36.1958 1817.44 36.1958C1815.73 36.1958 1814.02 36.1958 1812.31 36.1958C1810.6 36.1958 1808.9 36.1958 1807.2 36.1958C1805.5 36.1958 1803.8 36.1958 1802.11 36.1958C1800.41 36.1958 1798.72 36.1958 1797.04 36.1958C1795.35 36.1958 1793.67 36.1958 1791.99 36.1958C1790.31 36.1958 1788.63 36.1958 1786.96 36.1958C1785.29 36.1958 1783.62 36.1958 1781.95 36.1958C1780.28 36.1958 1778.62 36.1958 1776.96 36.1958C1775.3 36.1958 1773.65 36.1958 1771.99 36.1958C1770.34 36.1958 1768.69 36.1958 1767.05 36.1958C1765.4 36.1958 1763.76 36.1958 1762.12 36.1958C1760.48 36.1958 1758.84 36.1958 1757.21 36.1958C1755.58 36.1958 1753.95 36.1958 1752.32 36.1958C1750.7 36.1958 1749.07 36.1958 1747.45 36.1958C1745.84 36.1958 1744.22 36.1958 1742.61 36.1958C1740.99 36.1958 1739.38 36.1958 1737.78 36.1958C1736.17 36.1958 1734.57 36.1958 1732.97 36.1958C1731.37 36.1958 1729.77 36.1958 1728.17 36.1958C1726.58 36.1958 1724.99 36.1958 1723.4 36.1958C1721.82 36.1958 1720.23 36.1958 1718.65 36.1958C1717.07 36.1958 1715.49 36.1958 1713.92 36.1958C1712.34 36.1958 1710.77 36.1958 1709.2 36.1958C1707.63 36.1958 1706.07 36.1958 1704.5 36.1958C1702.94 36.1958 1701.38 36.1958 1699.83 36.1958C1698.27 36.1958 1696.72 36.1958 1695.17 36.1958C1693.61 36.1958 1692.07 36.1958 1690.52 36.1958C1688.98 36.1958 1687.44 36.1958 1685.9 36.1958C1684.36 36.1958 1682.83 36.1958 1681.29 36.1958C1679.76 36.1958 1678.23 36.1958 1676.71 36.1958C1675.18 36.1958 1673.66 36.1958 1672.14 36.1958C1670.62 36.1958 1669.1 36.1958 1667.58 36.1958C1666.07 36.1958 1664.56 36.1958 1663.05 36.1958C1661.54 36.1958 1660.04 36.1958 1658.53 36.1958C1657.03 36.1958 1655.53 36.1958 1654.03 36.1958C1652.54 36.1958 1651.04 36.1958 1649.55 36.1958C1648.06 36.1958 1646.57 36.1958 1645.08 36.1958C1643.6 36.1958 1642.12 36.1958 1640.64 36.1958C1639.16 36.1958 1637.68 36.1958 1636.2 36.1958C1634.73 36.1958 1633.26 36.1958 1631.79 36.1958C1630.32 36.1958 1628.85 36.1958 1627.39 36.1958C1625.93 36.1958 1624.47 36.1958 1623.01 36.1958C1621.55 36.1958 1620.1 36.1958 1618.64 36.1958C1617.19 36.1958 1615.74 36.1958 1614.3 36.1958C1612.85 36.1958 1611.4 36.1958 1609.96 36.1958C1608.52 36.1958 1607.08 36.1958 1605.65 36.1958C1604.21 36.1958 1602.78 36.1958 1601.34 36.1958C1599.91 36.1958 1598.49 36.1958 1597.06 36.1958C1595.63 36.1958 1594.21 36.1958 1592.79 36.1958C1591.37 36.1958 1589.95 36.1958 1588.54 36.1958C1587.12 36.1958 1585.71 36.1958 1584.3 36.1958C1582.89 36.1958 1581.48 36.1958 1580.08 36.1958C1578.67 36.1958 1577.27 36.1958 1575.87 36.1958C1574.47 36.1958 1573.07 36.1958 1571.68 36.1958C1570.28 36.1958 1568.89 36.1958 1567.5 36.1958C1566.11 36.1958 1564.72 36.1958 1563.34 36.1958C1561.95 36.1958 1560.57 36.1958 1559.19 36.1958C1557.81 36.1958 1556.43 36.1958 1555.05 36.1958C1553.68 36.1958 1552.31 36.1958 1550.94 36.1958C1549.57 36.1958 1548.2 36.1958 1546.83 36.1958C1545.47 36.1958 1544.1 36.1958 1542.74 36.1958C1541.38 36.1958 1540.02 36.1958 1538.67 36.1958C1537.31 36.1958 1535.96 36.1958 1534.6 36.1958C1533.25 36.1958 1531.9 36.1958 1530.56 36.1958C1529.21 36.1958 1527.87 36.1958 1526.52 36.1958C1525.18 36.1958 1523.84 36.1958 1522.5 36.1958C1521.17 36.1958 1519.83 36.1958 1518.5 36.1958C1517.16 36.1958 1515.83 36.1958 1514.5 36.1958C1513.18 36.1958 1511.85 36.1958 1510.53 36.1958C1509.2 36.1958 1507.88 36.1958 1506.56 36.1958C1505.24 36.1958 1503.92 36.1958 1502.61 36.1958C1501.29 36.1958 1499.98 36.1958 1498.67 36.1958C1497.35 36.1958 1496.05 36.1958 1494.74 36.1958C1493.43 36.1958 1492.13 36.1958 1490.82 36.1958C1489.52 36.1958 1488.22 36.1958 1486.92 36.1958C1485.62 36.1958 1484.33 36.1958 1483.03 36.1958C1481.74 36.1958 1480.45 36.1958 1479.16 36.1958C1477.87 36.1958 1476.58 36.1958 1475.29 36.1958C1474.01 36.1958 1472.72 36.1958 1471.44 36.1958C1470.16 36.1958 1468.88 36.1958 1467.6 36.1958C1466.32 36.1958 1465.05 36.1958 1463.77 36.1958C1462.5 36.1958 1461.23 36.1958 1459.96 36.1958C1458.69 36.1958 1457.42 36.1958 1456.15 36.1958C1454.89 36.1958 1453.62 36.1958 1452.36 36.1958C1451.1 36.1958 1449.84 36.1958 1448.58 36.1958C1447.32 36.1958 1446.07 36.1958 1444.81 36.1958C1443.56 36.1958 1442.3 36.1958 1441.05 36.1958C1439.8 36.1958 1438.55 36.1958 1437.31 36.1958C1436.06 36.1958 1434.81 36.1958 1433.57 36.1958C1432.33 36.1958 1431.09 36.1958 1429.85 36.1958C1428.61 36.1958 1427.37 36.1958 1426.13 36.1958C1424.9 36.1958 1423.66 36.1958 1422.43 36.1958C1421.2 36.1958 1419.96 36.1958 1418.74 36.1958C1417.51 36.1958 1416.28 36.1958 1415.05 36.1958C1413.83 36.1958 1412.6 36.1958 1411.38 36.1958C1410.16 36.1958 1408.94 36.1958 1407.72 36.1958C1406.5 36.1958 1405.28 36.1958 1404.07 36.1958C1402.85 36.1958 1401.64 36.1958 1400.43 36.1958C1399.21 36.1958 1398 36.1958 1396.79 36.1958C1395.59 36.1958 1394.38 36.1958 1393.17 36.1958C1391.97 36.1958 1390.76 36.1958 1389.56 36.1958C1388.36 36.1958 1387.16 36.1958 1385.96 36.1958C1384.76 36.1958 1383.56 36.1958 1382.37 36.1958C1381.17 36.1958 1379.97 36.1958 1378.78 36.1958C1377.59 36.1958 1376.4 36.1958 1375.21 36.1958C1374.02 36.1958 1372.83 36.1958 1371.64 36.1958C1370.45 36.1958 1369.27 36.1958 1368.09 36.1958C1366.9 36.1958 1365.72 36.1958 1364.54 36.1958C1363.36 36.1958 1362.18 36.1958 1361 36.1958C1359.82 36.1958 1358.64 36.1958 1357.47 36.1958C1356.29 36.1958 1355.12 36.1958 1353.95 36.1958C1352.78 36.1958 1351.6 36.1958 1350.43 36.1958C1349.26 36.1958 1348.1 36.1958 1346.93 36.1958C1345.76 36.1958 1344.6 36.1958 1343.43 36.1958C1342.27 36.1958 1341.11 36.1958 1339.94 36.1958C1338.78 36.1958 1337.62 36.1958 1336.46 36.1958C1335.3 36.1958 1334.15 36.1958 1332.99 36.1958C1331.83 36.1958 1330.68 36.1958 1329.53 36.1958C1328.37 36.1958 1327.22 36.1958 1326.07 36.1958C1324.92 36.1958 1323.77 36.1958 1322.62 36.1958C1321.47 36.1958 1320.32 36.1958 1319.18 36.1958C1318.03 36.1958 1316.88 36.1958 1315.74 36.1958C1314.6 36.1958 1313.45 36.1958 1312.31 36.1958C1311.17 36.1958 1310.03 36.1958 1308.89 36.1958C1307.75 36.1958 1306.61 36.1958 1305.48 36.1958C1304.34 36.1958 1303.2 36.1958 1302.07 36.1958C1300.93 36.1958 1299.8 36.1958 1298.67 36.1958C1297.53 36.1958 1296.4 36.1958 1295.27 36.1958C1294.14 36.1958 1293.01 36.1958 1291.88 36.1958C1290.76 36.1958 1289.63 36.1958 1288.5 36.1958C1287.38 36.1958 1286.25 36.1958 1285.13 36.1958C1284 36.1958 1282.88 36.1958 1281.76 36.1958C1280.64 36.1958 1279.52 36.1958 1278.39 36.1958C1277.27 36.1958 1276.16 36.1958 1275.04 36.1958C1273.92 36.1958 1272.8 36.1958 1271.69 36.1958C1270.57 36.1958 1269.45 36.1958 1268.34 36.1958C1267.23 36.1958 1266.11 36.1958 1265 36.1958C1263.89 36.1958 1262.77 36.1958 1261.66 36.1958C1260.55 36.1958 1259.44 36.1958 1258.33 36.1958C1257.22 36.1958 1256.12 36.1958 1255.01 36.1958C1253.9 36.1958 1252.8 36.1958 1251.69 36.1958C1250.58 36.1958 1249.48 36.1958 1248.37 36.1958C1247.27 36.1958 1246.17 36.1958 1245.06 36.1958C1243.96 36.1958 1242.86 36.1958 1241.76 36.1958C1240.66 36.1958 1239.56 36.1958 1238.46 36.1958C1237.36 36.1958 1236.26 36.1958 1235.16 36.1958C1234.06 36.1958 1232.97 36.1958 1231.87 36.1958C1230.77 36.1958 1229.68 36.1958 1228.58 36.1958C1227.49 36.1958 1226.39 36.1958 1225.3 36.1958C1224.21 36.1958 1223.11 36.1958 1222.02 36.1958C1220.93 36.1958 1219.84 36.1958 1218.74 36.1958C1217.65 36.1958 1216.56 36.1958 1215.47 36.1958C1214.38 36.1958 1213.29 36.1958 1212.2 36.1958C1211.12 36.1958 1210.03 36.1958 1208.94 36.1958C1207.85 36.1958 1206.76 36.1958 1205.68 36.1958C1204.59 36.1958 1203.51 36.1958 1202.42 36.1958C1201.33 36.1958 1200.25 36.1958 1199.17 36.1958C1198.08 36.1958 1197 36.1958 1195.91 36.1958C1194.83 36.1958 1193.75 36.1958 1192.67 36.1958C1191.58 36.1958 1190.5 36.1958 1189.42 36.1958C1188.34 36.1958 1187.26 36.1958 1186.18 36.1958C1185.1 36.1958 1184.02 36.1958 1182.94 36.1958C1181.86 36.1958 1180.78 36.1958 1179.7 36.1958C1178.62 36.1958 1177.54 36.1958 1176.46 36.1958C1175.38 36.1958 1174.31 36.1958 1173.23 36.1958C1172.15 36.1958 1171.07 36.1958 1170 36.1958C1168.92 36.1958 1167.84 36.1958 1166.77 36.1958C1165.69 36.1958 1164.62 36.1958 1163.54 36.1958C1162.47 36.1958 1161.39 36.1958 1160.32 36.1958C1159.24 36.1958 1158.17 36.1958 1157.09 36.1958C1156.02 36.1958 1154.94 36.1958 1153.87 36.1958C1152.8 36.1958 1151.72 36.1958 1150.65 36.1958C1149.58 36.1958 1148.5 36.1958 1147.43 36.1958C1146.36 36.1958 1145.28 36.1958 1144.21 36.1958C1143.14 36.1958 1142.07 36.1958 1140.99 36.1958C1139.92 36.1958 1138.85 36.1958 1137.78 36.1958C1136.71 36.1958 1135.64 36.1958 1134.56 36.1958C1133.49 36.1958 1132.42 36.1958 1131.35 36.1958C1130.28 36.1958 1129.21 36.1958 1128.14 36.1958C1127.06 36.1958 1125.99 36.1958 1124.92 36.1958C1123.85 36.1958 1122.78 36.1958 1121.71 36.1958C1120.64 36.1958 1119.57 36.1958 1118.5 36.1958C1117.43 36.1958 1116.36 36.1958 1115.28 36.1958C1114.21 36.1958 1113.14 36.1958 1112.07 36.1958C1111 36.1958 1109.93 36.1958 1108.86 36.1958C1107.79 36.1958 1106.72 36.1958 1105.65 36.1958C1104.58 36.1958 1103.51 36.1958 1102.43 36.1958C1101.36 36.1958 1100.29 36.1958 1099.22 36.1958C1098.15 36.1958 1097.08 36.1958 1096.01 36.1958C1094.94 36.1958 1093.87 36.1958 1092.79 36.1958C1091.72 36.1958 1090.65 36.1958 1089.58 36.1958C1088.51 36.1958 1087.43 36.1958 1086.36 36.1958C1085.29 36.1958 1084.22 36.1958 1083.15 36.1958C1082.07 36.1958 1081 36.1958 1079.93 36.1958C1078.85 36.1958 1077.78 36.1958 1076.71 36.1958C1075.64 36.1958 1074.56 36.1958 1073.49 36.1958C1072.41 36.1958 1071.34 36.1958 1070.27 36.1958C1069.19 36.1958 1068.12 36.1958 1067.04 36.1958C1065.97 36.1958 1064.89 36.1958 1063.82 36.1958C1062.74 36.1958 1061.67 36.1958 1060.59 36.1958C1059.51 36.1958 1058.44 36.1958 1057.36 36.1958C1056.28 36.1958 1055.21 36.1958 1054.13 36.1958C1053.05 36.1958 1051.98 36.1958 1050.9 36.1958C1049.82 36.1958 1048.74 36.1958 1047.66 36.1958C1046.58 36.1958 1045.5 36.1958 1044.42 36.1958C1043.34 36.1958 1042.26 36.1958 1041.18 36.1958C1040.1 36.1958 1039.02 36.1958 1037.94 36.1958C1036.86 36.1958 1035.78 36.1958 1034.7 36.1958C1033.61 36.1958 1032.53 36.1958 1031.45 36.1958C1030.36 36.1958 1029.28 36.1958 1028.2 36.1958C1027.11 36.1958 1026.03 36.1958 1024.94 36.1958C1023.86 36.1958 1022.77 36.1958 1021.68 36.1958C1020.6 36.1958 1019.51 36.1958 1018.42 36.1958C1017.34 36.1958 1016.25 36.1958 1015.16 36.1958C1014.07 36.1958 1012.98 36.1958 1011.89 36.1958C1010.8 36.1958 1009.71 36.1958 1008.62 36.1958C1007.53 36.1958 1006.44 36.1958 1005.34 36.1958C1004.25 36.1958 1003.16 36.1958 1002.07 36.1958C1000.97 36.1958 999.878 36.1958 998.783 36.1958C997.688 36.1958 996.592 36.1958 995.496 36.1958C994.399 36.1958 993.302 36.1958 992.204 36.1958C991.106 36.1958 990.008 36.1958 988.909 36.1958C987.809 36.1958 986.709 36.1958 985.608 36.1958C984.508 36.1958 983.406 36.1958 982.304 36.1958C981.201 36.1958 980.098 36.1958 978.994 36.1958C977.89 36.1958 976.786 36.1958 975.68 36.1958C974.575 36.1958 973.468 36.1958 972.361 36.1958C971.254 36.1958 970.146 36.1958 969.037 36.1958C967.928 36.1958 966.818 36.1958 965.707 36.1958C964.597 36.1958 963.485 36.1958 962.373 36.1958C961.26 36.1958 960.147 36.1958 959.033 36.1958C957.919 36.1958 956.804 36.1958 955.687 36.1958C954.571 36.1958 953.454 36.1958 952.336 36.1958C951.218 36.1958 950.099 36.1958 948.98 36.1958C947.86 36.1958 946.739 36.1958 945.617 36.1958C944.495 36.1958 943.372 36.1958 942.248 36.1958C941.124 36.1958 939.999 36.1958 938.874 36.1958C937.748 36.1958 936.621 36.1958 935.493 36.1958C934.365 36.1958 933.236 36.1958 932.105 36.1958C930.975 36.1958 929.844 36.1958 928.712 36.1958C927.58 36.1958 926.446 36.1958 925.312 36.1958C924.177 36.1958 923.042 36.1958 921.905 36.1958C920.768 36.1958 919.63 36.1958 918.491 36.1958C917.352 36.1958 916.212 36.1958 915.071 36.1958C913.929 36.1958 912.787 36.1958 911.643 36.1958C910.5 36.1958 909.355 36.1958 908.209 36.1958C907.063 36.1958 905.915 36.1958 904.767 36.1958C903.618 36.1958 902.469 36.1958 901.318 36.1958C900.167 36.1958 899.014 36.1958 897.861 36.1958C896.707 36.1958 895.553 36.1958 894.397 36.1958C893.241 36.1958 892.083 36.1958 890.925 36.1958C889.766 36.1958 888.606 36.1958 887.445 36.1958C886.284 36.1958 885.121 36.1958 883.957 36.1958C882.793 36.1958 881.628 36.1958 880.462 36.1958C879.295 36.1958 878.127 36.1958 876.958 36.1958C875.788 36.1958 874.618 36.1958 873.445 36.1958C872.273 36.1958 871.1 36.1958 869.925 36.1958C868.75 36.1958 867.574 36.1958 866.396 36.1958C865.218 36.1958 864.039 36.1958 862.858 36.1958C861.677 36.1958 860.495 36.1958 859.312 36.1958C858.128 36.1958 856.943 36.1958 855.756 36.1958C854.57 36.1958 853.382 36.1958 852.192 36.1958C851.002 36.1958 849.811 36.1958 848.619 36.1958C847.426 36.1958 846.232 36.1958 845.036 36.1958C843.84 36.1958 842.643 36.1958 841.444 36.1958C840.245 36.1958 839.045 36.1958 837.843 36.1958C836.641 36.1958 835.437 36.1958 834.232 36.1958C833.026 36.1958 831.82 36.1958 830.611 36.1958C829.403 36.1958 828.193 36.1958 826.981 36.1958C825.769 36.1958 824.556 36.1958 823.34 36.1958C822.125 36.1958 820.909 36.1958 819.69 36.1958C818.472 36.1958 817.252 36.1958 816.03 36.1958C814.808 36.1958 813.584 36.1958 812.359 36.1958C811.134 36.1958 809.907 36.1958 808.678 36.1958C807.449 36.1958 806.219 36.1958 804.986 36.1958C803.754 36.1958 802.52 36.1958 801.284 36.1958C800.049 36.1958 798.811 36.1958 797.572 36.1958C796.332 36.1958 795.091 36.1958 793.848 36.1958C792.605 36.1958 791.36 36.1958 790.113 36.1958C788.867 36.1958 787.618 36.1958 786.368 36.1958C785.117 36.1958 783.865 36.1958 782.611 36.1958C781.357 36.1958 780.101 36.1958 778.843 36.1958C777.585 36.1958 776.325 36.1958 775.063 36.1958C773.801 36.1958 772.538 36.1958 771.272 36.1958C770.006 36.1958 768.739 36.1958 767.469 36.1958C766.2 36.1958 764.928 36.1958 763.655 36.1958C762.381 36.1958 761.106 36.1958 759.828 36.1958C758.551 36.1958 757.272 36.1958 755.99 36.1958C754.709 36.1958 753.425 36.1958 752.14 36.1958C750.854 36.1958 749.567 36.1958 748.277 36.1958C746.987 36.1958 745.696 36.1958 744.402 36.1958C743.108 36.1958 741.812 36.1958 740.515 36.1958C739.217 36.1958 737.917 36.1958 736.614 36.1958C735.312 36.1958 734.008 36.1958 732.702 36.1958C731.395 36.1958 730.087 36.1958 728.776 36.1958C727.466 36.1958 726.153 36.1958 724.838 36.1958C723.523 36.1958 722.206 36.1958 720.886 36.1958C719.567 36.1958 718.246 36.1958 716.922 36.1958C715.598 36.1958 714.272 36.1958 712.944 36.1958C711.616 36.1958 710.285 36.1958 708.953 36.1958C707.62 36.1958 706.285 36.1958 704.948 36.1958C703.611 36.1958 702.271 36.1958 700.93 36.1958C699.588 36.1958 698.244 36.1958 696.898 36.1958C695.551 36.1958 694.203 36.1958 692.852 36.1958C691.501 36.1958 690.147 36.1958 688.792 36.1958C687.436 36.1958 686.078 36.1958 684.718 36.1958C683.357 36.1958 681.995 36.1958 680.63 36.1958C679.265 36.1958 677.897 36.1958 676.527 36.1958C675.157 36.1958 673.785 36.1958 672.41 36.1958C671.036 36.1958 669.659 36.1958 668.279 36.1958C666.899 36.1958 665.517 36.1958 664.133 36.1958C662.748 36.1958 661.362 36.1958 659.972 36.1958C658.583 36.1958 657.191 36.1958 655.796 36.1958C654.402 36.1958 653.005 36.1958 651.606 36.1958C650.206 36.1958 648.804 36.1958 647.4 36.1958C645.995 36.1958 644.588 36.1958 643.179 36.1958C641.769 36.1958 640.357 36.1958 638.942 36.1958C637.528 36.1958 636.11 36.1958 634.69 36.1958C633.271 36.1958 631.848 36.1958 630.423 36.1958C628.998 36.1958 627.57 36.1958 626.14 36.1958C624.709 36.1958 623.276 36.1958 621.841 36.1958C620.405 36.1958 618.967 36.1958 617.526 36.1958C616.085 36.1958 614.641 36.1958 613.195 36.1958C611.749 36.1958 610.3 36.1958 608.848 36.1958C607.396 36.1958 605.942 36.1958 604.485 36.1958C603.027 36.1958 601.567 36.1958 600.105 36.1958C598.642 36.1958 597.177 36.1958 595.708 36.1958C594.24 36.1958 592.769 36.1958 591.296 36.1958C589.822 36.1958 588.345 36.1958 586.866 36.1958C585.387 36.1958 583.904 36.1958 582.419 36.1958C580.934 36.1958 579.447 36.1958 577.956 36.1958C576.465 36.1958 574.972 36.1958 573.475 36.1958C571.979 36.1958 570.48 36.1958 568.978 36.1958C567.475 36.1958 565.97 36.1958 564.462 36.1958C562.955 36.1958 561.444 36.1958 559.93 36.1958C558.416 36.1958 556.9 36.1958 555.38 36.1958C553.86 36.1958 552.338 36.1958 550.812 36.1958C549.287 36.1958 547.758 36.1958 546.227 36.1958C544.695 36.1958 543.161 36.1958 541.623 36.1958C540.086 36.1958 538.545 36.1958 537.002 36.1958C535.458 36.1958 533.912 36.1958 532.362 36.1958C530.813 36.1958 529.26 36.1958 527.704 36.1958C526.149 36.1958 524.59 36.1958 523.028 36.1958C521.466 36.1958 519.901 36.1958 518.333 36.1958C516.766 36.1958 515.194 36.1958 513.62 36.1958C512.046 36.1958 510.469 36.1958 508.888 36.1958C507.308 36.1958 505.724 36.1958 504.137 36.1958C502.551 36.1958 500.961 36.1958 499.368 36.1958C497.775 36.1958 496.178 36.1958 494.579 36.1958C492.979 36.1958 491.377 36.1958 489.771 36.1958C488.165 36.1958 486.556 36.1958 484.944 36.1958C483.331 36.1958 481.716 36.1958 480.097 36.1958C478.478 36.1958 476.856 36.1958 475.231 36.1958C473.606 36.1958 471.977 36.1958 470.345 36.1958C468.713 36.1958 467.078 36.1958 465.439 36.1958C463.801 36.1958 462.159 36.1958 460.514 36.1958C458.869 36.1958 457.22 36.1958 455.569 36.1958C453.917 36.1958 452.262 36.1958 450.603 36.1958C448.945 36.1958 447.283 36.1958 445.617 36.1958C443.952 36.1958 442.283 36.1958 440.611 36.1958C438.939 36.1958 437.264 36.1958 435.585 36.1958C433.906 36.1958 432.223 36.1958 430.538 36.1958C428.852 36.1958 427.163 36.1958 425.47 36.1958C423.777 36.1958 422.081 36.1958 420.381 36.1958C418.682 36.1958 416.978 36.1958 415.272 36.1958C413.565 36.1958 411.855 36.1958 410.141 36.1958C408.428 36.1958 406.71 36.1958 404.99 36.1958C403.269 36.1958 401.545 36.1958 399.817 36.1958C398.089 36.1958 396.357 36.1958 394.622 36.1958C392.887 36.1958 391.149 36.1958 389.407 36.1958C387.664 36.1958 385.919 36.1958 384.169 36.1958C382.42 36.1958 380.667 36.1958 378.91 36.1958C377.153 36.1958 375.393 36.1958 373.629 36.1958C371.865 36.1958 370.098 36.1958 368.326 36.1958C366.555 36.1958 364.78 36.1958 363.001 36.1958C361.223 36.1958 359.44 36.1958 357.654 36.1958C355.868 36.1958 354.078 36.1958 352.285 36.1958C350.491 36.1958 348.694 36.1958 346.893 36.1958C345.092 36.1958 343.287 36.1958 341.478 36.1958C339.67 36.1958 337.857 36.1958 336.041 36.1958C334.225 36.1958 332.405 36.1958 330.581 36.1958C328.758 36.1958 326.93 36.1958 325.099 36.1958C323.267 36.1958 321.432 36.1958 319.593 36.1958C317.754 36.1958 315.911 36.1958 314.064 36.1958C312.217 36.1958 310.367 36.1958 308.512 36.1958C306.657 36.1958 304.799 36.1958 302.937 36.1958C301.074 36.1958 299.208 36.1958 297.338 36.1958C295.467 36.1958 293.593 36.1958 291.715 36.1958C289.837 36.1958 287.955 36.1958 286.069 36.1958C284.183 36.1958 282.293 36.1958 280.399 36.1958C278.505 36.1958 276.607 36.1958 274.705 36.1958C272.803 36.1958 270.897 36.1958 268.987 36.1958C267.077 36.1958 265.163 36.1958 263.245 36.1958C261.327 36.1958 259.405 36.1958 257.479 36.1958C255.553 36.1958 253.622 36.1958 251.688 36.1958C249.754 36.1958 247.815 36.1958 245.873 36.1958C243.93 36.1958 241.984 36.1958 240.033 36.1958C238.082 36.1958 236.127 36.1958 234.168 36.1958C232.209 36.1958 230.246 36.1958 228.279 36.1958C226.312 36.1958 224.34 36.1958 222.364 36.1958C220.389 36.1958 218.409 36.1958 216.425 36.1958C214.441 36.1958 212.453 36.1958 210.46 36.1958C208.468 36.1958 206.471 36.1958 204.47 36.1958C202.469 36.1958 200.464 36.1958 198.455 36.1958C196.445 36.1958 194.432 36.1958 192.414 36.1958C190.396 36.1958 188.373 36.1958 186.347 36.1958C184.32 36.1958 182.29 36.1958 180.255 36.1958C178.219 36.1958 176.18 36.1958 174.136 36.1958C172.092 36.1958 170.044 36.1958 167.992 36.1958C165.939 36.1958 163.882 36.1958 161.821 36.1958C159.76 36.1958 157.695 36.1958 155.625 36.1958C153.555 36.1958 151.48 36.1958 149.401 36.1958C147.323 36.1958 145.239 36.1958 143.152 36.1958C141.064 36.1958 138.972 36.1958 136.876 36.1958C134.779 36.1958 132.678 36.1958 130.573 36.1958C128.467 36.1958 126.357 36.1958 124.243 36.1958C122.129 36.1958 120.01 36.1958 117.886 36.1958C115.763 36.1958 113.635 36.1958 111.503 36.1958C109.37 36.1958 107.233 36.1958 105.092 36.1958C102.95 36.1958 100.804 36.1958 98.6538 36.1958C96.5031 36.1958 94.348 36.1958 92.1882 36.1958C90.0284 36.1958 87.8641 36.1958 85.6951 36.1958C83.5262 36.1958 81.3526 36.1958 79.1744 36.1958C76.9962 36.1958 74.8134 36.1958 72.626 36.1958C70.4385 36.1958 68.2464 36.1958 66.0496 36.1958C63.8529 36.1958 61.6514 36.1958 59.4453 36.1958C57.2392 36.1958 55.0284 36.1958 52.8129 36.1958C50.5974 36.1958 48.3772 36.1958 46.1523 36.1958C43.9274 36.1958 41.6977 36.1958 39.4634 36.1958C37.229 36.1958 34.9898 36.1958 32.746 36.1958C30.5021 36.1958 28.2534 36.1958 26 36.1958V38.1958Z" fill="white"/>
<path d="M2321 43.2255V27.2255" stroke="white"/>
<path d="M2301.08 16V14.16L2304.66 10.432C2305.11 9.96267 2305.44 9.54667 2305.64 9.184C2305.84 8.82133 2305.94 8.448 2305.94 8.064C2305.94 7.584 2305.79 7.22133 2305.48 6.976C2305.17 6.73067 2304.73 6.608 2304.15 6.608C2303.67 6.608 2303.2 6.69867 2302.73 6.88C2302.27 7.05067 2301.82 7.31733 2301.37 7.68L2300.58 5.856C2301.05 5.45067 2301.64 5.13067 2302.33 4.896C2303.02 4.66133 2303.74 4.544 2304.49 4.544C2305.75 4.544 2306.71 4.82667 2307.38 5.392C2308.06 5.94667 2308.39 6.74133 2308.39 7.776C2308.39 8.46933 2308.23 9.13067 2307.91 9.76C2307.59 10.3893 2307.08 11.056 2306.36 11.76L2303.48 14.592V13.952H2308.82V16H2301.08ZM2315.91 16.176C2314.55 16.176 2313.51 15.6693 2312.77 14.656C2312.04 13.632 2311.68 12.192 2311.68 10.336C2311.68 8.448 2312.04 7.01333 2312.77 6.032C2313.51 5.04 2314.55 4.544 2315.91 4.544C2317.27 4.544 2318.32 5.04 2319.04 6.032C2319.77 7.01333 2320.13 8.44267 2320.13 10.32C2320.13 12.1867 2319.77 13.632 2319.04 14.656C2318.32 15.6693 2317.27 16.176 2315.91 16.176ZM2315.91 14.16C2316.52 14.16 2316.98 13.856 2317.28 13.248C2317.59 12.6293 2317.75 11.6533 2317.75 10.32C2317.75 8.98667 2317.59 8.02667 2317.28 7.44C2316.98 6.85333 2316.52 6.56 2315.91 6.56C2315.29 6.56 2314.82 6.85333 2314.51 7.44C2314.22 8.02667 2314.07 8.98133 2314.07 10.304C2314.07 11.648 2314.22 12.6293 2314.53 13.248C2314.84 13.856 2315.3 14.16 2315.91 14.16ZM2323.47 16V14.16L2327.05 10.432C2327.5 9.96267 2327.83 9.54667 2328.03 9.184C2328.23 8.82133 2328.33 8.448 2328.33 8.064C2328.33 7.584 2328.18 7.22133 2327.87 6.976C2327.56 6.73067 2327.12 6.608 2326.54 6.608C2326.06 6.608 2325.59 6.69867 2325.12 6.88C2324.66 7.05067 2324.2 7.31733 2323.76 7.68L2322.97 5.856C2323.44 5.45067 2324.02 5.13067 2324.72 4.896C2325.41 4.66133 2326.13 4.544 2326.88 4.544C2328.13 4.544 2329.1 4.82667 2329.77 5.392C2330.44 5.94667 2330.78 6.74133 2330.78 7.776C2330.78 8.46933 2330.62 9.13067 2330.3 9.76C2329.98 10.3893 2329.46 11.056 2328.75 11.76L2325.87 14.592V13.952H2331.21V16H2323.47ZM2338.71 16.176C2337.26 16.176 2336.14 15.68 2335.35 14.688C2334.56 13.696 2334.17 12.304 2334.17 10.512C2334.17 9.25333 2334.37 8.18133 2334.77 7.296C2335.18 6.4 2335.76 5.71733 2336.5 5.248C2337.26 4.77867 2338.17 4.544 2339.22 4.544C2339.83 4.544 2340.43 4.65067 2341.03 4.864C2341.64 5.06667 2342.17 5.36533 2342.61 5.76L2341.81 7.6C2341.42 7.26933 2341 7.024 2340.55 6.864C2340.1 6.69333 2339.65 6.608 2339.19 6.608C2338.32 6.608 2337.65 6.896 2337.19 7.472C2336.73 8.048 2336.5 8.90667 2336.5 10.048V11.088H2336.29C2336.38 10.576 2336.56 10.144 2336.82 9.792C2337.09 9.42933 2337.43 9.152 2337.85 8.96C2338.26 8.768 2338.72 8.672 2339.22 8.672C2339.86 8.672 2340.43 8.832 2340.93 9.152C2341.45 9.46133 2341.85 9.89333 2342.13 10.448C2342.42 10.992 2342.57 11.616 2342.57 12.32C2342.57 13.0667 2342.4 13.7333 2342.07 14.32C2341.74 14.896 2341.29 15.3493 2340.71 15.68C2340.14 16.0107 2339.48 16.176 2338.71 16.176ZM2338.58 14.24C2338.92 14.24 2339.22 14.1653 2339.48 14.016C2339.73 13.8667 2339.93 13.6533 2340.07 13.376C2340.21 13.0987 2340.28 12.7787 2340.28 12.416C2340.28 12.0533 2340.21 11.7387 2340.07 11.472C2339.93 11.1947 2339.73 10.9813 2339.48 10.832C2339.22 10.672 2338.92 10.592 2338.58 10.592C2338.24 10.592 2337.94 10.672 2337.69 10.832C2337.43 10.9813 2337.23 11.1947 2337.08 11.472C2336.94 11.7387 2336.87 12.0533 2336.87 12.416C2336.87 12.7787 2336.94 13.0987 2337.08 13.376C2337.23 13.6533 2337.43 13.8667 2337.69 14.016C2337.94 14.1653 2338.24 14.24 2338.58 14.24Z" fill="white"/>
<path d="M25.9971 43.2255L25.9971 27.2255" stroke="white"/>
<path d="M6.0805 16V14.16L9.6645 10.432C10.1125 9.96267 10.4378 9.54667 10.6405 9.184C10.8432 8.82133 10.9445 8.448 10.9445 8.064C10.9445 7.584 10.7898 7.22133 10.4805 6.976C10.1712 6.73067 9.7285 6.608 9.1525 6.608C8.6725 6.608 8.19783 6.69867 7.7285 6.88C7.26983 7.05067 6.8165 7.31733 6.3685 7.68L5.5845 5.856C6.05383 5.45067 6.63517 5.13067 7.3285 4.896C8.02183 4.66133 8.74183 4.544 9.4885 4.544C10.7472 4.544 11.7125 4.82667 12.3845 5.392C13.0565 5.94667 13.3925 6.74133 13.3925 7.776C13.3925 8.46933 13.2325 9.13067 12.9125 9.76C12.5925 10.3893 12.0752 11.056 11.3605 11.76L8.4805 14.592V13.952H13.8245V16H6.0805ZM20.9063 16.176C19.5516 16.176 18.5063 15.6693 17.7703 14.656C17.0449 13.632 16.6823 12.192 16.6823 10.336C16.6823 8.448 17.0449 7.01333 17.7703 6.032C18.5063 5.04 19.5516 4.544 20.9063 4.544C22.2716 4.544 23.3169 5.04 24.0423 6.032C24.7676 7.01333 25.1303 8.44267 25.1303 10.32C25.1303 12.1867 24.7676 13.632 24.0423 14.656C23.3169 15.6693 22.2716 16.176 20.9063 16.176ZM20.9063 14.16C21.5249 14.16 21.9836 13.856 22.2823 13.248C22.5916 12.6293 22.7463 11.6533 22.7463 10.32C22.7463 8.98667 22.5916 8.02667 22.2823 7.44C21.9836 6.85333 21.5249 6.56 20.9063 6.56C20.2876 6.56 19.8236 6.85333 19.5143 7.44C19.2156 8.02667 19.0663 8.98133 19.0663 10.304C19.0663 11.648 19.2209 12.6293 19.5303 13.248C19.8396 13.856 20.2983 14.16 20.9063 14.16ZM28.468 16V14.16L32.052 10.432C32.5 9.96267 32.8253 9.54667 33.028 9.184C33.2307 8.82133 33.332 8.448 33.332 8.064C33.332 7.584 33.1773 7.22133 32.868 6.976C32.5587 6.73067 32.116 6.608 31.54 6.608C31.06 6.608 30.5853 6.69867 30.116 6.88C29.6573 7.05067 29.204 7.31733 28.756 7.68L27.972 5.856C28.4413 5.45067 29.0227 5.13067 29.716 4.896C30.4093 4.66133 31.1293 4.544 31.876 4.544C33.1347 4.544 34.1 4.82667 34.772 5.392C35.444 5.94667 35.78 6.74133 35.78 7.776C35.78 8.46933 35.62 9.13067 35.3 9.76C34.98 10.3893 34.4627 11.056 33.748 11.76L30.868 14.592V13.952H36.212V16H28.468ZM39.6618 16V14.16L43.2458 10.432C43.6938 9.96267 44.0191 9.54667 44.2218 9.184C44.4244 8.82133 44.5258 8.448 44.5258 8.064C44.5258 7.584 44.3711 7.22133 44.0618 6.976C43.7524 6.73067 43.3098 6.608 42.7338 6.608C42.2538 6.608 41.7791 6.69867 41.3098 6.88C40.8511 7.05067 40.3978 7.31733 39.9498 7.68L39.1658 5.856C39.6351 5.45067 40.2164 5.13067 40.9098 4.896C41.6031 4.66133 42.3231 4.544 43.0698 4.544C44.3284 4.544 45.2938 4.82667 45.9658 5.392C46.6378 5.94667 46.9738 6.74133 46.9738 7.776C46.9738 8.46933 46.8138 9.13067 46.4938 9.76C46.1738 10.3893 45.6564 11.056 44.9418 11.76L42.0618 14.592V13.952H47.4058V16H39.6618Z" fill="white"/>
</svg>
