<svg width="2376" height="45" viewBox="0 0 2376 45" fill="none" xmlns="http://www.w3.org/2000/svg">
<path d="M2320.77 37.9963L2315 32.2237L2309.23 37.9982L2315 43.7708L2320.77 37.9963ZM15.2265 38.3926L21.001 44.1651L26.7735 38.3906L20.999 32.6181L15.2265 38.3926ZM21.0002 39.3916C23.2526 39.3912 25.5003 39.3908 27.7432 39.3904C29.9861 39.3901 32.2242 39.3897 34.4577 39.3893C36.6911 39.3889 38.9197 39.3885 41.1437 39.3881C43.3676 39.3878 45.5869 39.3874 47.8014 39.387C50.0159 39.3866 52.2258 39.3862 54.4309 39.3859C56.6361 39.3855 58.8365 39.3851 61.0323 39.3847C63.2281 39.3843 65.4193 39.384 67.6058 39.3836C69.7923 39.3832 71.9742 39.3828 74.1514 39.3825C76.3286 39.3821 78.5013 39.3817 80.6693 39.3813C82.8373 39.381 85.0007 39.3806 87.1595 39.3802C89.3183 39.3799 91.4726 39.3795 93.6222 39.3791C95.7719 39.3787 97.917 39.3784 100.058 39.378C102.198 39.3776 104.334 39.3773 106.466 39.3769C108.597 39.3765 110.724 39.3762 112.847 39.3758C114.969 39.3754 117.087 39.3751 119.2 39.3747C121.314 39.3744 123.423 39.374 125.527 39.3736C127.632 39.3733 129.732 39.3729 131.828 39.3725C133.923 39.3722 136.014 39.3718 138.101 39.3715C140.188 39.3711 142.27 39.3708 144.348 39.3704C146.426 39.37 148.499 39.3697 150.568 39.3693C152.637 39.369 154.702 39.3686 156.762 39.3683C158.823 39.3679 160.878 39.3676 162.93 39.3672C164.982 39.3669 167.029 39.3665 169.072 39.3661C171.115 39.3658 173.153 39.3654 175.187 39.3651C177.222 39.3647 179.252 39.3644 181.277 39.364C183.303 39.3637 185.324 39.3634 187.341 39.363C189.358 39.3627 191.371 39.3623 193.38 39.362C195.388 39.3616 197.392 39.3613 199.393 39.3609C201.393 39.3606 203.388 39.3602 205.38 39.3599C207.372 39.3596 209.359 39.3592 211.342 39.3589C213.325 39.3585 215.304 39.3582 217.279 39.3579C219.254 39.3575 221.224 39.3572 223.191 39.3568C225.157 39.3565 227.12 39.3562 229.078 39.3558C231.036 39.3555 232.99 39.3552 234.94 39.3548C236.89 39.3545 238.835 39.3542 240.777 39.3538C242.719 39.3535 244.656 39.3532 246.59 39.3528C248.523 39.3525 250.453 39.3522 252.378 39.3518C254.303 39.3515 256.225 39.3512 258.142 39.3508C260.059 39.3505 261.972 39.3502 263.882 39.3498C265.791 39.3495 267.696 39.3492 269.597 39.3489C271.498 39.3485 273.395 39.3482 275.288 39.3479C277.182 39.3476 279.071 39.3472 280.956 39.3469C282.841 39.3466 284.722 39.3463 286.6 39.3459C288.477 39.3456 290.35 39.3453 292.22 39.345C294.089 39.3447 295.954 39.3443 297.816 39.344C299.678 39.3437 301.535 39.3434 303.389 39.3431C305.243 39.3427 307.093 39.3424 308.939 39.3421C310.785 39.3418 312.627 39.3415 314.465 39.3412C316.303 39.3408 318.138 39.3405 319.968 39.3402C321.799 39.3399 323.626 39.3396 325.449 39.3393C327.272 39.339 329.091 39.3386 330.906 39.3383C332.722 39.338 334.533 39.3377 336.341 39.3374C338.149 39.3371 339.953 39.3368 341.753 39.3365C343.553 39.3362 345.35 39.3358 347.143 39.3355C348.935 39.3352 350.724 39.3349 352.51 39.3346C354.295 39.3343 356.077 39.334 357.854 39.3337C359.632 39.3334 361.407 39.3331 363.177 39.3328C364.948 39.3325 366.715 39.3322 368.478 39.3319C370.241 39.3316 372.001 39.3313 373.756 39.331C375.512 39.3307 377.265 39.3304 379.013 39.3301C380.762 39.3298 382.507 39.3295 384.248 39.3292C385.99 39.3289 387.728 39.3286 389.462 39.3283C391.196 39.328 392.927 39.3277 394.654 39.3274C396.381 39.3271 398.105 39.3268 399.825 39.3265C401.545 39.3262 403.261 39.3259 404.974 39.3256C406.687 39.3253 408.396 39.325 410.102 39.3247C411.808 39.3244 413.511 39.3241 415.209 39.3238C416.908 39.3235 418.604 39.3233 420.296 39.323C421.988 39.3227 423.676 39.3224 425.361 39.3221C427.046 39.3218 428.728 39.3215 430.406 39.3212C432.085 39.3209 433.759 39.3206 435.431 39.3204C437.102 39.3201 438.77 39.3198 440.435 39.3195C442.099 39.3192 443.76 39.3189 445.418 39.3186C447.076 39.3184 448.73 39.3181 450.381 39.3178C452.033 39.3175 453.68 39.3172 455.325 39.3169C456.969 39.3167 458.61 39.3164 460.248 39.3161C461.886 39.3158 463.52 39.3155 465.152 39.3152C466.783 39.315 468.411 39.3147 470.035 39.3144C471.66 39.3141 473.281 39.3139 474.899 39.3136C476.517 39.3133 478.132 39.313 479.744 39.3127C481.355 39.3125 482.964 39.3122 484.569 39.3119C486.174 39.3116 487.776 39.3114 489.375 39.3111C490.974 39.3108 492.569 39.3105 494.162 39.3103C495.754 39.31 497.343 39.3097 498.929 39.3094C500.515 39.3092 502.098 39.3089 503.678 39.3086C505.258 39.3084 506.834 39.3081 508.408 39.3078C509.981 39.3075 511.552 39.3073 513.119 39.307C514.686 39.3067 516.251 39.3065 517.812 39.3062C519.373 39.3059 520.931 39.3057 522.486 39.3054C524.041 39.3051 525.593 39.3049 527.142 39.3046C528.69 39.3043 530.236 39.3041 531.779 39.3038C533.322 39.3035 534.862 39.3033 536.399 39.303C537.935 39.3027 539.469 39.3025 541 39.3022C542.531 39.3019 544.059 39.3017 545.583 39.3014C547.108 39.3012 548.63 39.3009 550.149 39.3006C551.668 39.3004 553.184 39.3001 554.697 39.2999C556.21 39.2996 557.721 39.2993 559.228 39.2991C560.735 39.2988 562.24 39.2986 563.741 39.2983C565.242 39.298 566.741 39.2978 568.237 39.2975C569.733 39.2973 571.225 39.297 572.715 39.2968C574.205 39.2965 575.693 39.2962 577.177 39.296C578.661 39.2957 580.143 39.2955 581.622 39.2952C583.1 39.295 584.576 39.2947 586.049 39.2945C587.522 39.2942 588.993 39.294 590.46 39.2937C591.928 39.2935 593.393 39.2932 594.855 39.293C596.317 39.2927 597.776 39.2925 599.232 39.2922C600.689 39.2919 602.143 39.2917 603.594 39.2915C605.045 39.2912 606.493 39.291 607.939 39.2907C609.385 39.2905 610.828 39.2902 612.268 39.29C613.709 39.2897 615.146 39.2895 616.581 39.2892C618.016 39.289 619.449 39.2887 620.878 39.2885C622.308 39.2882 623.735 39.288 625.16 39.2877C626.584 39.2875 628.006 39.2873 629.425 39.287C630.845 39.2868 632.261 39.2865 633.675 39.2863C635.089 39.286 636.501 39.2858 637.91 39.2856C639.319 39.2853 640.725 39.2851 642.129 39.2848C643.533 39.2846 644.934 39.2843 646.333 39.2841C647.732 39.2839 649.128 39.2836 650.522 39.2834C651.916 39.2831 653.307 39.2829 654.696 39.2827C656.085 39.2824 657.471 39.2822 658.855 39.282C660.239 39.2817 661.62 39.2815 662.999 39.2812C664.378 39.281 665.755 39.2808 667.129 39.2805C668.503 39.2803 669.875 39.2801 671.244 39.2798C672.613 39.2796 673.98 39.2794 675.344 39.2791C676.709 39.2789 678.071 39.2786 679.431 39.2784C680.791 39.2782 682.148 39.2779 683.503 39.2777C684.858 39.2775 686.211 39.2772 687.561 39.277C688.911 39.2768 690.26 39.2766 691.605 39.2763C692.951 39.2761 694.294 39.2759 695.636 39.2756C696.977 39.2754 698.316 39.2752 699.652 39.2749C700.989 39.2747 702.323 39.2745 703.655 39.2742C704.987 39.274 706.317 39.2738 707.645 39.2736C708.972 39.2733 710.298 39.2731 711.621 39.2729C712.944 39.2727 714.265 39.2724 715.584 39.2722C716.902 39.272 718.219 39.2717 719.533 39.2715C720.848 39.2713 722.16 39.2711 723.47 39.2708C724.78 39.2706 726.088 39.2704 727.394 39.2702C728.7 39.2699 730.003 39.2697 731.305 39.2695C732.606 39.2693 733.906 39.269 735.203 39.2688C736.5 39.2686 737.796 39.2684 739.089 39.2682C740.382 39.2679 741.673 39.2677 742.962 39.2675C744.251 39.2673 745.538 39.267 746.823 39.2668C748.108 39.2666 749.391 39.2664 750.672 39.2662C751.953 39.2659 753.232 39.2657 754.509 39.2655C755.786 39.2653 757.06 39.2651 758.333 39.2648C759.606 39.2646 760.877 39.2644 762.146 39.2642C763.415 39.264 764.682 39.2638 765.947 39.2635C767.212 39.2633 768.475 39.2631 769.737 39.2629C770.998 39.2627 772.257 39.2625 773.515 39.2622C774.772 39.262 776.027 39.2618 777.281 39.2616C778.535 39.2614 779.786 39.2612 781.036 39.2609C782.286 39.2607 783.534 39.2605 784.78 39.2603C786.026 39.2601 787.271 39.2599 788.513 39.2597C789.756 39.2594 790.996 39.2592 792.235 39.259C793.474 39.2588 794.711 39.2586 795.947 39.2584C797.182 39.2582 798.415 39.258 799.647 39.2577C800.879 39.2575 802.109 39.2573 803.337 39.2571C804.565 39.2569 805.792 39.2567 807.016 39.2565C808.241 39.2563 809.464 39.2561 810.685 39.2559C811.907 39.2556 813.126 39.2554 814.344 39.2552C815.562 39.255 816.778 39.2548 817.993 39.2546C819.208 39.2544 820.42 39.2542 821.632 39.254C822.843 39.2538 824.053 39.2536 825.261 39.2533C826.468 39.2531 827.675 39.2529 828.88 39.2527C830.084 39.2525 831.287 39.2523 832.489 39.2521C833.69 39.2519 834.89 39.2517 836.089 39.2515C837.287 39.2513 838.484 39.2511 839.679 39.2509C840.874 39.2507 842.068 39.2505 843.26 39.2503C844.452 39.25 845.643 39.2498 846.832 39.2496C848.021 39.2494 849.209 39.2492 850.395 39.249C851.581 39.2488 852.765 39.2486 853.948 39.2484C855.132 39.2482 856.313 39.248 857.493 39.2478C858.674 39.2476 859.852 39.2474 861.03 39.2472C862.207 39.247 863.383 39.2468 864.557 39.2466C865.732 39.2464 866.905 39.2462 868.076 39.246C869.248 39.2458 870.418 39.2456 871.587 39.2454C872.756 39.2452 873.923 39.245 875.089 39.2448C876.255 39.2446 877.42 39.2444 878.583 39.2442C879.747 39.244 880.909 39.2438 882.07 39.2436C883.23 39.2434 884.39 39.2432 885.548 39.243C886.706 39.2428 887.863 39.2426 889.018 39.2424C890.174 39.2422 891.328 39.242 892.481 39.2418C893.634 39.2416 894.786 39.2414 895.936 39.2412C897.087 39.241 898.236 39.2408 899.384 39.2406C900.532 39.2404 901.679 39.2402 902.824 39.24C903.97 39.2398 905.114 39.2396 906.257 39.2394C907.401 39.2392 908.543 39.239 909.683 39.2388C910.824 39.2386 911.964 39.2384 913.102 39.2382C914.241 39.238 915.378 39.2379 916.514 39.2377C917.651 39.2375 918.786 39.2373 919.92 39.2371C921.054 39.2369 922.187 39.2367 923.318 39.2365C924.45 39.2363 925.581 39.2361 926.711 39.2359C927.84 39.2357 928.969 39.2355 930.096 39.2353C931.224 39.2351 932.35 39.2349 933.476 39.2347C934.601 39.2345 935.726 39.2344 936.849 39.2342C937.972 39.234 939.095 39.2338 940.216 39.2336C941.337 39.2334 942.458 39.2332 943.577 39.233C944.697 39.2328 945.815 39.2326 946.933 39.2324C948.05 39.2322 949.167 39.232 950.282 39.2319C951.398 39.2317 952.513 39.2315 953.626 39.2313C954.74 39.2311 955.853 39.2309 956.965 39.2307C958.077 39.2305 959.188 39.2303 960.298 39.2301C961.408 39.2299 962.517 39.2297 963.626 39.2296C964.734 39.2294 965.842 39.2292 966.949 39.229C968.055 39.2288 969.161 39.2286 970.266 39.2284C971.371 39.2282 972.476 39.228 973.579 39.2278C974.682 39.2277 975.785 39.2275 976.887 39.2273C977.989 39.2271 979.09 39.2269 980.19 39.2267C981.291 39.2265 982.39 39.2263 983.489 39.2261C984.588 39.226 985.686 39.2258 986.783 39.2256C987.881 39.2254 988.977 39.2252 990.073 39.225C991.169 39.2248 992.264 39.2246 993.359 39.2244C994.453 39.2243 995.547 39.2241 996.64 39.2239C997.734 39.2237 998.826 39.2235 999.918 39.2233C1001.01 39.2231 1002.1 39.2229 1003.19 39.2228C1004.28 39.2226 1005.37 39.2224 1006.46 39.2222C1007.55 39.222 1008.64 39.2218 1009.73 39.2216C1010.82 39.2214 1011.9 39.2213 1012.99 39.2211C1014.08 39.2209 1015.16 39.2207 1016.25 39.2205C1017.34 39.2203 1018.42 39.2201 1019.51 39.22C1020.59 39.2198 1021.68 39.2196 1022.76 39.2194C1023.84 39.2192 1024.93 39.219 1026.01 39.2188C1027.09 39.2186 1028.17 39.2185 1029.26 39.2183C1030.34 39.2181 1031.42 39.2179 1032.5 39.2177C1033.58 39.2175 1034.66 39.2173 1035.74 39.2172C1036.82 39.217 1037.9 39.2168 1038.98 39.2166C1040.06 39.2164 1041.14 39.2162 1042.22 39.216C1043.29 39.2159 1044.37 39.2157 1045.45 39.2155C1046.53 39.2153 1047.61 39.2151 1048.68 39.2149C1049.76 39.2148 1050.84 39.2146 1051.91 39.2144C1052.99 39.2142 1054.06 39.214 1055.14 39.2138C1056.21 39.2136 1057.29 39.2135 1058.36 39.2133C1059.44 39.2131 1060.51 39.2129 1061.59 39.2127C1062.66 39.2125 1063.74 39.2123 1064.81 39.2122C1065.88 39.212 1066.96 39.2118 1068.03 39.2116C1069.1 39.2114 1070.18 39.2112 1071.25 39.2111C1072.32 39.2109 1073.4 39.2107 1074.47 39.2105C1075.54 39.2103 1076.61 39.2101 1077.68 39.21C1078.76 39.2098 1079.83 39.2096 1080.9 39.2094C1081.97 39.2092 1083.04 39.209 1084.11 39.2088C1085.19 39.2087 1086.26 39.2085 1087.33 39.2083C1088.4 39.2081 1089.47 39.2079 1090.54 39.2077C1091.61 39.2076 1092.68 39.2074 1093.75 39.2072C1094.82 39.207 1095.9 39.2068 1096.97 39.2066C1098.04 39.2065 1099.11 39.2063 1100.18 39.2061C1101.25 39.2059 1102.32 39.2057 1103.39 39.2055C1104.46 39.2053 1105.53 39.2052 1106.6 39.205C1107.67 39.2048 1108.74 39.2046 1109.81 39.2044C1110.88 39.2042 1111.95 39.2041 1113.02 39.2039C1114.09 39.2037 1115.16 39.2035 1116.23 39.2033C1117.3 39.2031 1118.37 39.203 1119.44 39.2028C1120.51 39.2026 1121.58 39.2024 1122.66 39.2022C1123.73 39.202 1124.8 39.2019 1125.87 39.2017C1126.94 39.2015 1128.01 39.2013 1129.08 39.2011C1130.15 39.2009 1131.22 39.2007 1132.29 39.2006C1133.37 39.2004 1134.44 39.2002 1135.51 39.2C1136.58 39.1998 1137.65 39.1996 1138.72 39.1995C1139.8 39.1993 1140.87 39.1991 1141.94 39.1989C1143.01 39.1987 1144.09 39.1985 1145.16 39.1984C1146.23 39.1982 1147.31 39.198 1148.38 39.1978C1149.45 39.1976 1150.53 39.1974 1151.6 39.1972C1152.67 39.1971 1153.75 39.1969 1154.82 39.1967C1155.9 39.1965 1156.97 39.1963 1158.05 39.1961C1159.12 39.196 1160.2 39.1958 1161.27 39.1956C1162.35 39.1954 1163.42 39.1952 1164.5 39.195C1165.58 39.1948 1166.65 39.1947 1167.73 39.1945C1168.81 39.1943 1169.88 39.1941 1170.96 39.1939C1172.04 39.1937 1173.12 39.1935 1174.2 39.1934C1175.27 39.1932 1176.35 39.193 1177.43 39.1928C1178.51 39.1926 1179.59 39.1924 1180.67 39.1922C1181.75 39.1921 1182.83 39.1919 1183.91 39.1917C1184.99 39.1915 1186.07 39.1913 1187.16 39.1911C1188.24 39.1909 1189.32 39.1908 1190.4 39.1906C1191.49 39.1904 1192.57 39.1902 1193.65 39.19C1194.74 39.1898 1195.82 39.1896 1196.91 39.1895C1197.99 39.1893 1199.08 39.1891 1200.16 39.1889C1201.25 39.1887 1202.34 39.1885 1203.42 39.1883C1204.51 39.1881 1205.6 39.188 1206.69 39.1878C1207.78 39.1876 1208.86 39.1874 1209.95 39.1872C1211.04 39.187 1212.13 39.1868 1213.22 39.1867C1214.32 39.1865 1215.41 39.1863 1216.5 39.1861C1217.59 39.1859 1218.68 39.1857 1219.78 39.1855C1220.87 39.1853 1221.96 39.1851 1223.06 39.185C1224.15 39.1848 1225.25 39.1846 1226.34 39.1844C1227.44 39.1842 1228.54 39.184 1229.64 39.1838C1230.73 39.1836 1231.83 39.1835 1232.93 39.1833C1234.03 39.1831 1235.13 39.1829 1236.23 39.1827C1237.33 39.1825 1238.43 39.1823 1239.53 39.1821C1240.64 39.1819 1241.74 39.1817 1242.84 39.1816C1243.95 39.1814 1245.05 39.1812 1246.16 39.181C1247.26 39.1808 1248.37 39.1806 1249.47 39.1804C1250.58 39.1802 1251.69 39.18 1252.8 39.1798C1253.91 39.1797 1255.01 39.1795 1256.13 39.1793C1257.24 39.1791 1258.35 39.1789 1259.46 39.1787C1260.57 39.1785 1261.68 39.1783 1262.8 39.1781C1263.91 39.1779 1265.03 39.1777 1266.14 39.1776C1267.26 39.1774 1268.38 39.1772 1269.49 39.177C1270.61 39.1768 1271.73 39.1766 1272.85 39.1764C1273.97 39.1762 1275.09 39.176 1276.21 39.1758C1277.33 39.1756 1278.46 39.1754 1279.58 39.1752C1280.7 39.1751 1281.83 39.1749 1282.95 39.1747C1284.08 39.1745 1285.21 39.1743 1286.33 39.1741C1287.46 39.1739 1288.59 39.1737 1289.72 39.1735C1290.85 39.1733 1291.98 39.1731 1293.11 39.1729C1294.24 39.1727 1295.38 39.1725 1296.51 39.1723C1297.65 39.1721 1298.78 39.1719 1299.92 39.1717C1301.05 39.1716 1302.19 39.1714 1303.33 39.1712C1304.47 39.171 1305.61 39.1708 1306.75 39.1706C1307.89 39.1704 1309.03 39.1702 1310.18 39.17C1311.32 39.1698 1312.47 39.1696 1313.61 39.1694C1314.76 39.1692 1315.9 39.169 1317.05 39.1688C1318.2 39.1686 1319.35 39.1684 1320.5 39.1682C1321.65 39.168 1322.8 39.1678 1323.96 39.1676C1325.11 39.1674 1326.27 39.1672 1327.42 39.167C1328.58 39.1668 1329.73 39.1666 1330.89 39.1664C1332.05 39.1662 1333.21 39.166 1334.37 39.1658C1335.53 39.1656 1336.69 39.1654 1337.86 39.1652C1339.02 39.165 1340.19 39.1648 1341.35 39.1646C1342.52 39.1644 1343.69 39.1642 1344.86 39.164C1346.03 39.1638 1347.2 39.1636 1348.37 39.1634C1349.54 39.1632 1350.71 39.163 1351.89 39.1628C1353.06 39.1626 1354.24 39.1624 1355.42 39.1622C1356.6 39.162 1357.77 39.1618 1358.95 39.1616C1360.14 39.1614 1361.32 39.1612 1362.5 39.161C1363.68 39.1608 1364.87 39.1606 1366.06 39.1604C1367.24 39.1602 1368.43 39.16 1369.62 39.1598C1370.81 39.1596 1372 39.1594 1373.19 39.1592C1374.38 39.1589 1375.58 39.1587 1376.77 39.1585C1377.97 39.1583 1379.17 39.1581 1380.37 39.1579C1381.56 39.1577 1382.76 39.1575 1383.97 39.1573C1385.17 39.1571 1386.37 39.1569 1387.58 39.1567C1388.78 39.1565 1389.99 39.1563 1391.2 39.1561C1392.41 39.1558 1393.62 39.1556 1394.83 39.1554C1396.04 39.1552 1397.25 39.155 1398.47 39.1548C1399.68 39.1546 1400.9 39.1544 1402.12 39.1542C1403.34 39.154 1404.56 39.1538 1405.78 39.1536C1407 39.1533 1408.22 39.1531 1409.45 39.1529C1410.67 39.1527 1411.9 39.1525 1413.13 39.1523C1414.36 39.1521 1415.59 39.1519 1416.82 39.1517C1418.05 39.1514 1419.29 39.1512 1420.52 39.151C1421.76 39.1508 1422.99 39.1506 1424.23 39.1504C1425.47 39.1502 1426.71 39.15 1427.96 39.1497C1429.2 39.1495 1430.44 39.1493 1431.69 39.1491C1432.94 39.1489 1434.19 39.1487 1435.44 39.1485C1436.69 39.1482 1437.94 39.148 1439.19 39.1478C1440.45 39.1476 1441.7 39.1474 1442.96 39.1472C1444.22 39.1469 1445.48 39.1467 1446.74 39.1465C1448 39.1463 1449.27 39.1461 1450.53 39.1459C1451.8 39.1456 1453.06 39.1454 1454.33 39.1452C1455.6 39.145 1456.87 39.1448 1458.15 39.1445C1459.42 39.1443 1460.7 39.1441 1461.97 39.1439C1463.25 39.1437 1464.53 39.1435 1465.81 39.1432C1467.09 39.143 1468.38 39.1428 1469.66 39.1426C1470.95 39.1423 1472.23 39.1421 1473.52 39.1419C1474.81 39.1417 1476.11 39.1415 1477.4 39.1412C1478.69 39.141 1479.99 39.1408 1481.29 39.1406C1482.58 39.1403 1483.88 39.1401 1485.19 39.1399C1486.49 39.1397 1487.79 39.1395 1489.1 39.1392C1490.41 39.139 1491.71 39.1388 1493.02 39.1386C1494.33 39.1383 1495.65 39.1381 1496.96 39.1379C1498.28 39.1376 1499.59 39.1374 1500.91 39.1372C1502.23 39.137 1503.55 39.1367 1504.88 39.1365C1506.2 39.1363 1507.53 39.1361 1508.86 39.1358C1510.18 39.1356 1511.51 39.1354 1512.85 39.1351C1514.18 39.1349 1515.51 39.1347 1516.85 39.1345C1518.19 39.1342 1519.53 39.134 1520.87 39.1338C1522.21 39.1335 1523.56 39.1333 1524.9 39.1331C1526.25 39.1328 1527.6 39.1326 1528.95 39.1324C1530.3 39.1321 1531.65 39.1319 1533.01 39.1317C1534.36 39.1314 1535.72 39.1312 1537.08 39.131C1538.44 39.1307 1539.8 39.1305 1541.17 39.1303C1542.53 39.13 1543.9 39.1298 1545.27 39.1296C1546.64 39.1293 1548.01 39.1291 1549.39 39.1289C1550.76 39.1286 1552.14 39.1284 1553.52 39.1282C1554.9 39.1279 1556.28 39.1277 1557.67 39.1274C1559.05 39.1272 1560.44 39.127 1561.83 39.1267C1563.22 39.1265 1564.61 39.1262 1566 39.126C1567.4 39.1258 1568.79 39.1255 1570.19 39.1253C1571.59 39.125 1572.99 39.1248 1574.4 39.1246C1575.8 39.1243 1577.21 39.1241 1578.62 39.1238C1580.03 39.1236 1581.44 39.1234 1582.86 39.1231C1584.27 39.1229 1585.69 39.1226 1587.11 39.1224C1588.53 39.1221 1589.95 39.1219 1591.38 39.1216C1592.8 39.1214 1594.23 39.1212 1595.66 39.1209C1597.09 39.1207 1598.52 39.1204 1599.96 39.1202C1601.39 39.1199 1602.83 39.1197 1604.27 39.1194C1605.71 39.1192 1607.16 39.1189 1608.6 39.1187C1610.05 39.1184 1611.5 39.1182 1612.95 39.1179C1614.4 39.1177 1615.86 39.1174 1617.31 39.1172C1618.77 39.1169 1620.23 39.1167 1621.69 39.1164C1623.16 39.1162 1624.62 39.1159 1626.09 39.1157C1627.56 39.1154 1629.03 39.1152 1630.5 39.1149C1631.98 39.1147 1633.45 39.1144 1634.93 39.1142C1636.41 39.1139 1637.89 39.1136 1639.38 39.1134C1640.86 39.1131 1642.35 39.1129 1643.84 39.1126C1645.33 39.1124 1646.83 39.1121 1648.32 39.1119C1649.82 39.1116 1651.32 39.1113 1652.82 39.1111C1654.32 39.1108 1655.83 39.1106 1657.34 39.1103C1658.84 39.11 1660.36 39.1098 1661.87 39.1095C1663.38 39.1093 1664.9 39.109 1666.42 39.1087C1667.94 39.1085 1669.46 39.1082 1670.99 39.108C1672.51 39.1077 1674.04 39.1074 1675.57 39.1072C1677.1 39.1069 1678.64 39.1066 1680.18 39.1064C1681.71 39.1061 1683.25 39.1059 1684.8 39.1056C1686.34 39.1053 1687.89 39.1051 1689.44 39.1048C1690.99 39.1045 1692.54 39.1043 1694.1 39.104C1695.65 39.1037 1697.21 39.1035 1698.77 39.1032C1700.33 39.1029 1701.9 39.1026 1703.47 39.1024C1705.03 39.1021 1706.61 39.1018 1708.18 39.1016C1709.75 39.1013 1711.33 39.101 1712.91 39.1008C1714.49 39.1005 1716.08 39.1002 1717.66 39.0999C1719.25 39.0997 1720.84 39.0994 1722.43 39.0991C1724.03 39.0988 1725.62 39.0986 1727.22 39.0983C1728.82 39.098 1730.42 39.0977 1732.03 39.0975C1733.64 39.0972 1735.25 39.0969 1736.86 39.0966C1738.47 39.0964 1740.09 39.0961 1741.7 39.0958C1743.32 39.0955 1744.95 39.0952 1746.57 39.095C1748.2 39.0947 1749.82 39.0944 1751.46 39.0941C1753.09 39.0938 1754.72 39.0936 1756.36 39.0933C1758 39.093 1759.64 39.0927 1761.29 39.0924C1762.93 39.0922 1764.58 39.0919 1766.23 39.0916C1767.89 39.0913 1769.54 39.091 1771.2 39.0907C1772.86 39.0904 1774.52 39.0902 1776.19 39.0899C1777.85 39.0896 1779.52 39.0893 1781.19 39.089C1782.86 39.0887 1784.54 39.0884 1786.22 39.0882C1787.9 39.0879 1789.58 39.0876 1791.27 39.0873C1792.95 39.087 1794.64 39.0867 1796.33 39.0864C1798.03 39.0861 1799.72 39.0858 1801.42 39.0855C1803.12 39.0852 1804.83 39.085 1806.53 39.0847C1808.24 39.0844 1809.95 39.0841 1811.66 39.0838C1813.38 39.0835 1815.09 39.0832 1816.82 39.0829C1818.54 39.0826 1820.26 39.0823 1821.99 39.082C1823.72 39.0817 1825.45 39.0814 1827.18 39.0811C1828.92 39.0808 1830.66 39.0805 1832.4 39.0802C1834.14 39.0799 1835.89 39.0796 1837.64 39.0793C1839.39 39.079 1841.14 39.0787 1842.9 39.0784C1844.65 39.0781 1846.41 39.0778 1848.18 39.0775C1849.94 39.0772 1851.71 39.0769 1853.48 39.0766C1855.25 39.0763 1857.03 39.076 1858.81 39.0757C1860.58 39.0754 1862.37 39.0751 1864.15 39.0748C1865.94 39.0744 1867.73 39.0741 1869.52 39.0738C1871.32 39.0735 1873.11 39.0732 1874.92 39.0729C1876.72 39.0726 1878.52 39.0723 1880.33 39.072C1882.14 39.0717 1883.95 39.0713 1885.77 39.071C1887.58 39.0707 1889.4 39.0704 1891.23 39.0701C1893.05 39.0698 1894.88 39.0695 1896.71 39.0692C1898.54 39.0688 1900.38 39.0685 1902.22 39.0682C1904.06 39.0679 1905.9 39.0676 1907.75 39.0673C1909.59 39.0669 1911.44 39.0666 1913.3 39.0663C1915.15 39.066 1917.01 39.0657 1918.87 39.0653C1920.74 39.065 1922.6 39.0647 1924.47 39.0644C1926.34 39.0641 1928.22 39.0637 1930.1 39.0634C1931.97 39.0631 1933.86 39.0628 1935.74 39.0624C1937.63 39.0621 1939.52 39.0618 1941.41 39.0615C1943.31 39.0611 1945.21 39.0608 1947.11 39.0605C1949.01 39.0602 1950.92 39.0598 1952.83 39.0595C1954.74 39.0592 1956.65 39.0589 1958.57 39.0585C1960.49 39.0582 1962.41 39.0579 1964.33 39.0575C1966.26 39.0572 1968.19 39.0569 1970.13 39.0565C1972.06 39.0562 1974 39.0559 1975.94 39.0555C1977.88 39.0552 1979.83 39.0549 1981.78 39.0545C1983.73 39.0542 1985.69 39.0539 1987.65 39.0535C1989.61 39.0532 1991.57 39.0528 1993.54 39.0525C1995.5 39.0522 1997.48 39.0518 1999.45 39.0515C2001.43 39.0512 2003.41 39.0508 2005.39 39.0505C2007.38 39.0501 2009.36 39.0498 2011.36 39.0494C2013.35 39.0491 2015.35 39.0488 2017.35 39.0484C2019.35 39.0481 2021.35 39.0477 2023.36 39.0474C2025.37 39.047 2027.39 39.0467 2029.4 39.0463C2031.42 39.046 2033.44 39.0457 2035.47 39.0453C2037.5 39.045 2039.53 39.0446 2041.56 39.0443C2043.6 39.0439 2045.64 39.0436 2047.68 39.0432C2049.73 39.0429 2051.78 39.0425 2053.83 39.0421C2055.88 39.0418 2057.94 39.0414 2060 39.0411C2062.06 39.0407 2064.13 39.0404 2066.2 39.04C2068.27 39.0397 2070.34 39.0393 2072.42 39.039C2074.5 39.0386 2076.58 39.0382 2078.67 39.0379C2080.76 39.0375 2082.85 39.0372 2084.95 39.0368C2087.04 39.0364 2089.14 39.0361 2091.25 39.0357C2093.35 39.0354 2095.46 39.035 2097.58 39.0346C2099.69 39.0343 2101.81 39.0339 2103.94 39.0335C2106.06 39.0332 2108.19 39.0328 2110.32 39.0324C2112.45 39.0321 2114.59 39.0317 2116.73 39.0313C2118.87 39.031 2121.02 39.0306 2123.17 39.0302C2125.32 39.0299 2127.48 39.0295 2129.64 39.0291C2131.8 39.0287 2133.96 39.0284 2136.13 39.028C2138.3 39.0276 2140.47 39.0273 2142.65 39.0269C2144.83 39.0265 2147.01 39.0261 2149.2 39.0258C2151.39 39.0254 2153.58 39.025 2155.78 39.0246C2157.97 39.0242 2160.18 39.0239 2162.38 39.0235C2164.59 39.0231 2166.8 39.0227 2169.01 39.0223C2171.23 39.022 2173.45 39.0216 2175.68 39.0212C2177.9 39.0208 2180.13 39.0204 2182.36 39.0201C2184.6 39.0197 2186.84 39.0193 2189.08 39.0189C2191.33 39.0185 2193.58 39.0181 2195.83 39.0177C2198.08 39.0173 2200.34 39.017 2202.6 39.0166C2204.87 39.0162 2207.14 39.0158 2209.41 39.0154C2211.68 39.015 2213.96 39.0146 2216.24 39.0142C2218.52 39.0138 2220.81 39.0134 2223.1 39.013C2225.39 39.0127 2227.69 39.0123 2229.99 39.0119C2232.3 39.0115 2234.6 39.0111 2236.91 39.0107C2239.23 39.0103 2241.54 39.0099 2243.86 39.0095C2246.18 39.0091 2248.51 39.0087 2250.84 39.0083C2253.17 39.0079 2255.51 39.0075 2257.85 39.0071C2260.19 39.0067 2262.54 39.0063 2264.89 39.0059C2267.24 39.0055 2269.6 39.0051 2271.96 39.0046C2274.32 39.0042 2276.68 39.0038 2279.06 39.0034C2281.43 39.003 2283.8 39.0026 2286.18 39.0022C2288.57 39.0018 2290.95 39.0014 2293.34 39.001C2295.73 39.0006 2298.13 39.0001 2300.53 38.9997C2302.93 38.9993 2305.34 38.9989 2307.75 38.9985C2310.16 38.9981 2312.58 38.9977 2315 38.9972L2315 36.9972C2312.58 36.9977 2310.16 36.9981 2307.75 36.9985C2305.34 36.9989 2302.93 36.9993 2300.53 36.9997C2298.13 37.0001 2295.73 37.0006 2293.34 37.001C2290.95 37.0014 2288.56 37.0018 2286.18 37.0022C2283.8 37.0026 2281.43 37.003 2279.06 37.0034C2276.68 37.0038 2274.32 37.0042 2271.96 37.0046C2269.6 37.0051 2267.24 37.0055 2264.89 37.0059C2262.54 37.0063 2260.19 37.0067 2257.85 37.0071C2255.51 37.0075 2253.17 37.0079 2250.84 37.0083C2248.51 37.0087 2246.18 37.0091 2243.86 37.0095C2241.54 37.0099 2239.22 37.0103 2236.91 37.0107C2234.6 37.0111 2232.29 37.0115 2229.99 37.0119C2227.69 37.0123 2225.39 37.0127 2223.1 37.013C2220.81 37.0134 2218.52 37.0138 2216.24 37.0142C2213.96 37.0146 2211.68 37.015 2209.41 37.0154C2207.13 37.0158 2204.87 37.0162 2202.6 37.0166C2200.34 37.017 2198.08 37.0173 2195.83 37.0177C2193.58 37.0181 2191.33 37.0185 2189.08 37.0189C2186.84 37.0193 2184.6 37.0197 2182.36 37.0201C2180.13 37.0204 2177.9 37.0208 2175.67 37.0212C2173.45 37.0216 2171.23 37.022 2169.01 37.0223C2166.8 37.0227 2164.59 37.0231 2162.38 37.0235C2160.17 37.0239 2157.97 37.0242 2155.78 37.0246C2153.58 37.025 2151.39 37.0254 2149.2 37.0258C2147.01 37.0261 2144.83 37.0265 2142.65 37.0269C2140.47 37.0273 2138.3 37.0276 2136.13 37.028C2133.96 37.0284 2131.8 37.0287 2129.64 37.0291C2127.48 37.0295 2125.32 37.0299 2123.17 37.0302C2121.02 37.0306 2118.87 37.031 2116.73 37.0313C2114.59 37.0317 2112.45 37.0321 2110.32 37.0324C2108.19 37.0328 2106.06 37.0332 2103.94 37.0335C2101.81 37.0339 2099.69 37.0343 2097.58 37.0346C2095.46 37.035 2093.35 37.0354 2091.25 37.0357C2089.14 37.0361 2087.04 37.0364 2084.95 37.0368C2082.85 37.0372 2080.76 37.0375 2078.67 37.0379C2076.58 37.0382 2074.5 37.0386 2072.42 37.039C2070.34 37.0393 2068.27 37.0397 2066.2 37.04C2064.13 37.0404 2062.06 37.0407 2060 37.0411C2057.94 37.0414 2055.88 37.0418 2053.83 37.0421C2051.77 37.0425 2049.73 37.0429 2047.68 37.0432C2045.64 37.0436 2043.6 37.0439 2041.56 37.0443C2039.53 37.0446 2037.5 37.045 2035.47 37.0453C2033.44 37.0457 2031.42 37.046 2029.4 37.0463C2027.39 37.0467 2025.37 37.047 2023.36 37.0474C2021.35 37.0477 2019.35 37.0481 2017.35 37.0484C2015.35 37.0488 2013.35 37.0491 2011.36 37.0494C2009.36 37.0498 2007.38 37.0501 2005.39 37.0505C2003.41 37.0508 2001.43 37.0512 1999.45 37.0515C1997.48 37.0518 1995.5 37.0522 1993.54 37.0525C1991.57 37.0528 1989.61 37.0532 1987.65 37.0535C1985.69 37.0539 1983.73 37.0542 1981.78 37.0545C1979.83 37.0549 1977.88 37.0552 1975.94 37.0555C1974 37.0559 1972.06 37.0562 1970.13 37.0565C1968.19 37.0569 1966.26 37.0572 1964.33 37.0575C1962.41 37.0579 1960.49 37.0582 1958.57 37.0585C1956.65 37.0589 1954.74 37.0592 1952.83 37.0595C1950.92 37.0598 1949.01 37.0602 1947.11 37.0605C1945.2 37.0608 1943.31 37.0611 1941.41 37.0615C1939.52 37.0618 1937.63 37.0621 1935.74 37.0624C1933.86 37.0628 1931.97 37.0631 1930.1 37.0634C1928.22 37.0637 1926.34 37.0641 1924.47 37.0644C1922.6 37.0647 1920.74 37.065 1918.87 37.0653C1917.01 37.0657 1915.15 37.066 1913.3 37.0663C1911.44 37.0666 1909.59 37.0669 1907.75 37.0673C1905.9 37.0676 1904.06 37.0679 1902.22 37.0682C1900.38 37.0685 1898.54 37.0688 1896.71 37.0692C1894.88 37.0695 1893.05 37.0698 1891.23 37.0701C1889.4 37.0704 1887.58 37.0707 1885.77 37.071C1883.95 37.0713 1882.14 37.0717 1880.33 37.072C1878.52 37.0723 1876.72 37.0726 1874.92 37.0729C1873.11 37.0732 1871.32 37.0735 1869.52 37.0738C1867.73 37.0741 1865.94 37.0744 1864.15 37.0748C1862.37 37.0751 1860.58 37.0754 1858.81 37.0757C1857.03 37.076 1855.25 37.0763 1853.48 37.0766C1851.71 37.0769 1849.94 37.0772 1848.18 37.0775C1846.41 37.0778 1844.65 37.0781 1842.9 37.0784C1841.14 37.0787 1839.39 37.079 1837.64 37.0793C1835.89 37.0796 1834.14 37.0799 1832.4 37.0802C1830.66 37.0805 1828.92 37.0808 1827.18 37.0811C1825.45 37.0814 1823.72 37.0817 1821.99 37.082C1820.26 37.0823 1818.54 37.0826 1816.81 37.0829C1815.09 37.0832 1813.38 37.0835 1811.66 37.0838C1809.95 37.0841 1808.24 37.0844 1806.53 37.0847C1804.83 37.085 1803.12 37.0852 1801.42 37.0855C1799.72 37.0858 1798.03 37.0861 1796.33 37.0864C1794.64 37.0867 1792.95 37.087 1791.27 37.0873C1789.58 37.0876 1787.9 37.0879 1786.22 37.0882C1784.54 37.0884 1782.86 37.0887 1781.19 37.089C1779.52 37.0893 1777.85 37.0896 1776.19 37.0899C1774.52 37.0902 1772.86 37.0904 1771.2 37.0907C1769.54 37.091 1767.89 37.0913 1766.23 37.0916C1764.58 37.0919 1762.93 37.0922 1761.29 37.0924C1759.64 37.0927 1758 37.093 1756.36 37.0933C1754.72 37.0936 1753.09 37.0938 1751.46 37.0941C1749.82 37.0944 1748.2 37.0947 1746.57 37.095C1744.95 37.0952 1743.32 37.0955 1741.7 37.0958C1740.09 37.0961 1738.47 37.0964 1736.86 37.0966C1735.24 37.0969 1733.64 37.0972 1732.03 37.0975C1730.42 37.0977 1728.82 37.098 1727.22 37.0983C1725.62 37.0986 1724.03 37.0988 1722.43 37.0991C1720.84 37.0994 1719.25 37.0997 1717.66 37.0999C1716.08 37.1002 1714.49 37.1005 1712.91 37.1008C1711.33 37.101 1709.75 37.1013 1708.18 37.1016C1706.61 37.1018 1705.03 37.1021 1703.47 37.1024C1701.9 37.1026 1700.33 37.1029 1698.77 37.1032C1697.21 37.1035 1695.65 37.1037 1694.1 37.104C1692.54 37.1043 1690.99 37.1045 1689.44 37.1048C1687.89 37.1051 1686.34 37.1053 1684.8 37.1056C1683.25 37.1059 1681.71 37.1061 1680.18 37.1064C1678.64 37.1066 1677.1 37.1069 1675.57 37.1072C1674.04 37.1074 1672.51 37.1077 1670.99 37.108C1669.46 37.1082 1667.94 37.1085 1666.42 37.1087C1664.9 37.109 1663.38 37.1093 1661.87 37.1095C1660.35 37.1098 1658.84 37.11 1657.34 37.1103C1655.83 37.1106 1654.32 37.1108 1652.82 37.1111C1651.32 37.1113 1649.82 37.1116 1648.32 37.1119C1646.83 37.1121 1645.33 37.1124 1643.84 37.1126C1642.35 37.1129 1640.86 37.1131 1639.38 37.1134C1637.89 37.1136 1636.41 37.1139 1634.93 37.1142C1633.45 37.1144 1631.98 37.1147 1630.5 37.1149C1629.03 37.1152 1627.56 37.1154 1626.09 37.1157C1624.62 37.1159 1623.16 37.1162 1621.69 37.1164C1620.23 37.1167 1618.77 37.1169 1617.31 37.1172C1615.86 37.1174 1614.4 37.1177 1612.95 37.1179C1611.5 37.1182 1610.05 37.1184 1608.6 37.1187C1607.16 37.1189 1605.71 37.1192 1604.27 37.1194C1602.83 37.1197 1601.39 37.1199 1599.96 37.1202C1598.52 37.1204 1597.09 37.1207 1595.66 37.1209C1594.23 37.1212 1592.8 37.1214 1591.37 37.1216C1589.95 37.1219 1588.53 37.1221 1587.11 37.1224C1585.69 37.1226 1584.27 37.1229 1582.86 37.1231C1581.44 37.1234 1580.03 37.1236 1578.62 37.1238C1577.21 37.1241 1575.8 37.1243 1574.4 37.1246C1572.99 37.1248 1571.59 37.125 1570.19 37.1253C1568.79 37.1255 1567.4 37.1258 1566 37.126C1564.61 37.1262 1563.22 37.1265 1561.83 37.1267C1560.44 37.127 1559.05 37.1272 1557.67 37.1274C1556.28 37.1277 1554.9 37.1279 1553.52 37.1282C1552.14 37.1284 1550.76 37.1286 1549.39 37.1289C1548.01 37.1291 1546.64 37.1293 1545.27 37.1296C1543.9 37.1298 1542.53 37.13 1541.17 37.1303C1539.8 37.1305 1538.44 37.1307 1537.08 37.131C1535.72 37.1312 1534.36 37.1314 1533.01 37.1317C1531.65 37.1319 1530.3 37.1321 1528.95 37.1324C1527.6 37.1326 1526.25 37.1328 1524.9 37.1331C1523.55 37.1333 1522.21 37.1335 1520.87 37.1338C1519.53 37.134 1518.19 37.1342 1516.85 37.1345C1515.51 37.1347 1514.18 37.1349 1512.85 37.1351C1511.51 37.1354 1510.18 37.1356 1508.86 37.1358C1507.53 37.1361 1506.2 37.1363 1504.88 37.1365C1503.55 37.1367 1502.23 37.137 1500.91 37.1372C1499.59 37.1374 1498.28 37.1376 1496.96 37.1379C1495.65 37.1381 1494.33 37.1383 1493.02 37.1386C1491.71 37.1388 1490.4 37.139 1489.1 37.1392C1487.79 37.1395 1486.49 37.1397 1485.19 37.1399C1483.88 37.1401 1482.58 37.1403 1481.29 37.1406C1479.99 37.1408 1478.69 37.141 1477.4 37.1412C1476.11 37.1415 1474.81 37.1417 1473.52 37.1419C1472.23 37.1421 1470.95 37.1423 1469.66 37.1426C1468.38 37.1428 1467.09 37.143 1465.81 37.1432C1464.53 37.1435 1463.25 37.1437 1461.97 37.1439C1460.7 37.1441 1459.42 37.1443 1458.15 37.1445C1456.87 37.1448 1455.6 37.145 1454.33 37.1452C1453.06 37.1454 1451.8 37.1456 1450.53 37.1459C1449.27 37.1461 1448 37.1463 1446.74 37.1465C1445.48 37.1467 1444.22 37.1469 1442.96 37.1472C1441.7 37.1474 1440.45 37.1476 1439.19 37.1478C1437.94 37.148 1436.69 37.1482 1435.44 37.1485C1434.19 37.1487 1432.94 37.1489 1431.69 37.1491C1430.44 37.1493 1429.2 37.1495 1427.96 37.1497C1426.71 37.15 1425.47 37.1502 1424.23 37.1504C1422.99 37.1506 1421.76 37.1508 1420.52 37.151C1419.28 37.1512 1418.05 37.1514 1416.82 37.1517C1415.59 37.1519 1414.36 37.1521 1413.13 37.1523C1411.9 37.1525 1410.67 37.1527 1409.45 37.1529C1408.22 37.1531 1407 37.1533 1405.78 37.1536C1404.56 37.1538 1403.34 37.154 1402.12 37.1542C1400.9 37.1544 1399.68 37.1546 1398.47 37.1548C1397.25 37.155 1396.04 37.1552 1394.83 37.1554C1393.62 37.1556 1392.41 37.1558 1391.2 37.1561C1389.99 37.1563 1388.78 37.1565 1387.58 37.1567C1386.37 37.1569 1385.17 37.1571 1383.97 37.1573C1382.76 37.1575 1381.56 37.1577 1380.37 37.1579C1379.17 37.1581 1377.97 37.1583 1376.77 37.1585C1375.58 37.1587 1374.38 37.1589 1373.19 37.1592C1372 37.1594 1370.81 37.1596 1369.62 37.1598C1368.43 37.16 1367.24 37.1602 1366.06 37.1604C1364.87 37.1606 1363.68 37.1608 1362.5 37.161C1361.32 37.1612 1360.13 37.1614 1358.95 37.1616C1357.77 37.1618 1356.59 37.162 1355.42 37.1622C1354.24 37.1624 1353.06 37.1626 1351.89 37.1628C1350.71 37.163 1349.54 37.1632 1348.37 37.1634C1347.2 37.1636 1346.03 37.1638 1344.86 37.164C1343.69 37.1642 1342.52 37.1644 1341.35 37.1646C1340.19 37.1648 1339.02 37.165 1337.86 37.1652C1336.69 37.1654 1335.53 37.1656 1334.37 37.1658C1333.21 37.166 1332.05 37.1662 1330.89 37.1664C1329.73 37.1666 1328.58 37.1668 1327.42 37.167C1326.26 37.1672 1325.11 37.1674 1323.96 37.1676C1322.8 37.1678 1321.65 37.168 1320.5 37.1682C1319.35 37.1684 1318.2 37.1686 1317.05 37.1688C1315.9 37.169 1314.76 37.1692 1313.61 37.1694C1312.47 37.1696 1311.32 37.1698 1310.18 37.17C1309.03 37.1702 1307.89 37.1704 1306.75 37.1706C1305.61 37.1708 1304.47 37.171 1303.33 37.1712C1302.19 37.1714 1301.05 37.1716 1299.92 37.1717C1298.78 37.1719 1297.65 37.1721 1296.51 37.1723C1295.38 37.1725 1294.24 37.1727 1293.11 37.1729C1291.98 37.1731 1290.85 37.1733 1289.72 37.1735C1288.59 37.1737 1287.46 37.1739 1286.33 37.1741C1285.2 37.1743 1284.08 37.1745 1282.95 37.1747C1281.83 37.1749 1280.7 37.1751 1279.58 37.1752C1278.45 37.1754 1277.33 37.1756 1276.21 37.1758C1275.09 37.176 1273.97 37.1762 1272.85 37.1764C1271.73 37.1766 1270.61 37.1768 1269.49 37.177C1268.37 37.1772 1267.26 37.1774 1266.14 37.1776C1265.03 37.1777 1263.91 37.1779 1262.8 37.1781C1261.68 37.1783 1260.57 37.1785 1259.46 37.1787C1258.35 37.1789 1257.24 37.1791 1256.12 37.1793C1255.01 37.1795 1253.9 37.1797 1252.8 37.1798C1251.69 37.18 1250.58 37.1802 1249.47 37.1804C1248.37 37.1806 1247.26 37.1808 1246.15 37.181C1245.05 37.1812 1243.95 37.1814 1242.84 37.1816C1241.74 37.1817 1240.63 37.1819 1239.53 37.1821C1238.43 37.1823 1237.33 37.1825 1236.23 37.1827C1235.13 37.1829 1234.03 37.1831 1232.93 37.1833C1231.83 37.1835 1230.73 37.1836 1229.63 37.1838C1228.54 37.184 1227.44 37.1842 1226.34 37.1844C1225.25 37.1846 1224.15 37.1848 1223.06 37.185C1221.96 37.1851 1220.87 37.1853 1219.78 37.1855C1218.68 37.1857 1217.59 37.1859 1216.5 37.1861C1215.41 37.1863 1214.31 37.1865 1213.22 37.1867C1212.13 37.1868 1211.04 37.187 1209.95 37.1872C1208.86 37.1874 1207.78 37.1876 1206.69 37.1878C1205.6 37.188 1204.51 37.1881 1203.42 37.1883C1202.34 37.1885 1201.25 37.1887 1200.16 37.1889C1199.08 37.1891 1197.99 37.1893 1196.91 37.1895C1195.82 37.1896 1194.74 37.1898 1193.65 37.19C1192.57 37.1902 1191.49 37.1904 1190.4 37.1906C1189.32 37.1908 1188.24 37.1909 1187.16 37.1911C1186.07 37.1913 1184.99 37.1915 1183.91 37.1917C1182.83 37.1919 1181.75 37.1921 1180.67 37.1922C1179.59 37.1924 1178.51 37.1926 1177.43 37.1928C1176.35 37.193 1175.27 37.1932 1174.19 37.1934C1173.12 37.1935 1172.04 37.1937 1170.96 37.1939C1169.88 37.1941 1168.81 37.1943 1167.73 37.1945C1166.65 37.1947 1165.58 37.1948 1164.5 37.195C1163.42 37.1952 1162.35 37.1954 1161.27 37.1956C1160.2 37.1958 1159.12 37.196 1158.05 37.1961C1156.97 37.1963 1155.9 37.1965 1154.82 37.1967C1153.75 37.1969 1152.67 37.1971 1151.6 37.1972C1150.53 37.1974 1149.45 37.1976 1148.38 37.1978C1147.3 37.198 1146.23 37.1982 1145.16 37.1984C1144.09 37.1985 1143.01 37.1987 1141.94 37.1989C1140.87 37.1991 1139.8 37.1993 1138.72 37.1995C1137.65 37.1996 1136.58 37.1998 1135.51 37.2C1134.44 37.2002 1133.37 37.2004 1132.29 37.2006C1131.22 37.2007 1130.15 37.2009 1129.08 37.2011C1128.01 37.2013 1126.94 37.2015 1125.87 37.2017C1124.8 37.2019 1123.73 37.202 1122.65 37.2022C1121.58 37.2024 1120.51 37.2026 1119.44 37.2028C1118.37 37.203 1117.3 37.2031 1116.23 37.2033C1115.16 37.2035 1114.09 37.2037 1113.02 37.2039C1111.95 37.2041 1110.88 37.2042 1109.81 37.2044C1108.74 37.2046 1107.67 37.2048 1106.6 37.205C1105.53 37.2052 1104.46 37.2053 1103.39 37.2055C1102.32 37.2057 1101.25 37.2059 1100.18 37.2061C1099.11 37.2063 1098.04 37.2065 1096.97 37.2066C1095.89 37.2068 1094.82 37.207 1093.75 37.2072C1092.68 37.2074 1091.61 37.2076 1090.54 37.2077C1089.47 37.2079 1088.4 37.2081 1087.33 37.2083C1086.26 37.2085 1085.19 37.2087 1084.11 37.2088C1083.04 37.209 1081.97 37.2092 1080.9 37.2094C1079.83 37.2096 1078.76 37.2098 1077.68 37.21C1076.61 37.2101 1075.54 37.2103 1074.47 37.2105C1073.4 37.2107 1072.32 37.2109 1071.25 37.2111C1070.18 37.2112 1069.1 37.2114 1068.03 37.2116C1066.96 37.2118 1065.88 37.212 1064.81 37.2122C1063.74 37.2123 1062.66 37.2125 1061.59 37.2127C1060.51 37.2129 1059.44 37.2131 1058.36 37.2133C1057.29 37.2135 1056.21 37.2136 1055.14 37.2138C1054.06 37.214 1052.99 37.2142 1051.91 37.2144C1050.84 37.2146 1049.76 37.2148 1048.68 37.2149C1047.6 37.2151 1046.53 37.2153 1045.45 37.2155C1044.37 37.2157 1043.29 37.2159 1042.22 37.216C1041.14 37.2162 1040.06 37.2164 1038.98 37.2166C1037.9 37.2168 1036.82 37.217 1035.74 37.2172C1034.66 37.2173 1033.58 37.2175 1032.5 37.2177C1031.42 37.2179 1030.34 37.2181 1029.26 37.2183C1028.17 37.2185 1027.09 37.2186 1026.01 37.2188C1024.93 37.219 1023.84 37.2192 1022.76 37.2194C1021.68 37.2196 1020.59 37.2198 1019.51 37.22C1018.42 37.2201 1017.34 37.2203 1016.25 37.2205C1015.16 37.2207 1014.08 37.2209 1012.99 37.2211C1011.9 37.2213 1010.82 37.2214 1009.73 37.2216C1008.64 37.2218 1007.55 37.222 1006.46 37.2222C1005.37 37.2224 1004.28 37.2226 1003.19 37.2228C1002.1 37.2229 1001.01 37.2231 999.918 37.2233C998.826 37.2235 997.733 37.2237 996.64 37.2239C995.547 37.2241 994.453 37.2243 993.358 37.2244C992.264 37.2246 991.169 37.2248 990.073 37.225C988.977 37.2252 987.88 37.2254 986.783 37.2256C985.685 37.2258 984.587 37.226 983.489 37.2261C982.39 37.2263 981.29 37.2265 980.19 37.2267C979.09 37.2269 977.988 37.2271 976.887 37.2273C975.785 37.2275 974.682 37.2277 973.579 37.2278C972.475 37.228 971.371 37.2282 970.266 37.2284C969.161 37.2286 968.055 37.2288 966.948 37.229C965.841 37.2292 964.734 37.2294 963.625 37.2296C962.517 37.2297 961.408 37.2299 960.298 37.2301C959.187 37.2303 958.076 37.2305 956.964 37.2307C955.853 37.2309 954.74 37.2311 953.626 37.2313C952.512 37.2315 951.398 37.2317 950.282 37.2319C949.166 37.232 948.05 37.2322 946.932 37.2324C945.815 37.2326 944.696 37.2328 943.577 37.233C942.458 37.2332 941.337 37.2334 940.216 37.2336C939.094 37.2338 937.972 37.234 936.849 37.2342C935.725 37.2344 934.601 37.2345 933.475 37.2347C932.35 37.2349 931.223 37.2351 930.096 37.2353C928.968 37.2355 927.84 37.2357 926.71 37.2359C925.581 37.2361 924.45 37.2363 923.318 37.2365C922.186 37.2367 921.053 37.2369 919.919 37.2371C918.785 37.2373 917.65 37.2375 916.514 37.2377C915.378 37.2379 914.24 37.238 913.102 37.2382C911.963 37.2384 910.824 37.2386 909.683 37.2388C908.542 37.239 907.4 37.2392 906.257 37.2394C905.114 37.2396 903.969 37.2398 902.824 37.24C901.678 37.2402 900.532 37.2404 899.384 37.2406C898.236 37.2408 897.086 37.241 895.936 37.2412C894.785 37.2414 893.634 37.2416 892.481 37.2418C891.328 37.242 890.173 37.2422 889.018 37.2424C887.862 37.2426 886.706 37.2428 885.547 37.243C884.389 37.2432 883.23 37.2434 882.069 37.2436C880.909 37.2438 879.746 37.244 878.583 37.2442C877.42 37.2444 876.255 37.2446 875.089 37.2448C873.923 37.245 872.755 37.2452 871.586 37.2454C870.418 37.2456 869.247 37.2458 868.076 37.246C866.904 37.2462 865.731 37.2464 864.557 37.2466C863.382 37.2468 862.206 37.247 861.029 37.2472C859.852 37.2474 858.673 37.2476 857.493 37.2478C856.313 37.248 855.131 37.2482 853.948 37.2484C852.765 37.2486 851.58 37.2488 850.394 37.249C849.208 37.2492 848.021 37.2494 846.832 37.2496C845.642 37.2498 844.452 37.25 843.26 37.2503C842.068 37.2505 840.874 37.2507 839.679 37.2509C838.483 37.2511 837.287 37.2513 836.088 37.2515C834.89 37.2517 833.69 37.2519 832.489 37.2521C831.287 37.2523 830.084 37.2525 828.879 37.2527C827.674 37.2529 826.468 37.2531 825.26 37.2533C824.052 37.2536 822.843 37.2538 821.631 37.254C820.42 37.2542 819.207 37.2544 817.993 37.2546C816.778 37.2548 815.562 37.255 814.344 37.2552C813.126 37.2554 811.906 37.2556 810.685 37.2559C809.464 37.2561 808.241 37.2563 807.016 37.2565C805.791 37.2567 804.565 37.2569 803.337 37.2571C802.108 37.2573 800.878 37.2575 799.647 37.2577C798.415 37.258 797.181 37.2582 795.946 37.2584C794.711 37.2586 793.474 37.2588 792.235 37.259C790.996 37.2592 789.755 37.2594 788.513 37.2597C787.27 37.2599 786.026 37.2601 784.78 37.2603C783.534 37.2605 782.286 37.2607 781.036 37.2609C779.786 37.2612 778.534 37.2614 777.281 37.2616C776.027 37.2618 774.772 37.262 773.514 37.2622C772.257 37.2625 770.997 37.2627 769.736 37.2629C768.475 37.2631 767.212 37.2633 765.947 37.2635C764.682 37.2638 763.415 37.264 762.146 37.2642C760.877 37.2644 759.606 37.2646 758.333 37.2648C757.06 37.2651 755.785 37.2653 754.508 37.2655C753.231 37.2657 751.953 37.2659 750.672 37.2662C749.391 37.2664 748.108 37.2666 746.823 37.2668C745.538 37.267 744.251 37.2673 742.962 37.2675C741.673 37.2677 740.382 37.2679 739.089 37.2682C737.795 37.2684 736.5 37.2686 735.203 37.2688C733.905 37.269 732.606 37.2693 731.304 37.2695C730.003 37.2697 728.699 37.2699 727.394 37.2702C726.088 37.2704 724.78 37.2706 723.47 37.2708C722.16 37.2711 720.847 37.2713 719.533 37.2715C718.219 37.2717 716.902 37.272 715.583 37.2722C714.265 37.2724 712.944 37.2727 711.62 37.2729C710.297 37.2731 708.972 37.2733 707.644 37.2736C706.317 37.2738 704.987 37.274 703.655 37.2742C702.323 37.2745 700.988 37.2747 699.652 37.2749C698.315 37.2752 696.976 37.2754 695.635 37.2756C694.294 37.2759 692.951 37.2761 691.605 37.2763C690.259 37.2766 688.911 37.2768 687.561 37.277C686.21 37.2772 684.858 37.2775 683.503 37.2777C682.148 37.2779 680.79 37.2782 679.43 37.2784C678.071 37.2786 676.709 37.2789 675.344 37.2791C673.98 37.2794 672.613 37.2796 671.243 37.2798C669.874 37.2801 668.502 37.2803 667.128 37.2805C665.754 37.2808 664.378 37.281 662.999 37.2812C661.62 37.2815 660.238 37.2817 658.855 37.282C657.471 37.2822 656.084 37.2824 654.696 37.2827C653.307 37.2829 651.915 37.2831 650.522 37.2834C649.128 37.2836 647.732 37.2839 646.333 37.2841C644.934 37.2843 643.533 37.2846 642.129 37.2848C640.725 37.2851 639.318 37.2853 637.91 37.2856C636.501 37.2858 635.089 37.286 633.675 37.2863C632.261 37.2865 630.844 37.2868 629.425 37.287C628.006 37.2873 626.584 37.2875 625.159 37.2877C623.735 37.288 622.308 37.2882 620.878 37.2885C619.448 37.2887 618.016 37.289 616.581 37.2892C615.146 37.2895 613.708 37.2897 612.268 37.29C610.828 37.2902 609.385 37.2905 607.939 37.2907C606.493 37.291 605.045 37.2912 603.594 37.2915C602.143 37.2917 600.689 37.2919 599.232 37.2922C597.776 37.2925 596.316 37.2927 594.854 37.293C593.392 37.2932 591.927 37.2935 590.46 37.2937C588.992 37.294 587.522 37.2942 586.049 37.2945C584.576 37.2947 583.1 37.295 581.621 37.2952C580.142 37.2955 578.661 37.2957 577.177 37.296C575.692 37.2962 574.205 37.2965 572.715 37.2968C571.225 37.297 569.732 37.2973 568.236 37.2975C566.741 37.2978 565.242 37.298 563.741 37.2983C562.239 37.2986 560.735 37.2988 559.228 37.2991C557.72 37.2993 556.21 37.2996 554.697 37.2999C553.184 37.3001 551.668 37.3004 550.149 37.3006C548.63 37.3009 547.108 37.3012 545.583 37.3014C544.058 37.3017 542.53 37.3019 541 37.3022C539.469 37.3025 537.935 37.3027 536.398 37.303C534.861 37.3033 533.322 37.3035 531.779 37.3038C530.236 37.3041 528.69 37.3043 527.141 37.3046C525.592 37.3049 524.04 37.3051 522.485 37.3054C520.93 37.3057 519.372 37.3059 517.811 37.3062C516.25 37.3065 514.686 37.3067 513.119 37.307C511.551 37.3073 509.981 37.3075 508.407 37.3078C506.834 37.3081 505.257 37.3084 503.678 37.3086C502.098 37.3089 500.515 37.3092 498.929 37.3094C497.343 37.3097 495.754 37.31 494.161 37.3103C492.569 37.3105 490.973 37.3108 489.374 37.3111C487.776 37.3114 486.174 37.3116 484.569 37.3119C482.963 37.3122 481.355 37.3125 479.743 37.3127C478.132 37.313 476.517 37.3133 474.899 37.3136C473.281 37.3139 471.659 37.3141 470.035 37.3144C468.41 37.3147 466.782 37.315 465.151 37.3152C463.52 37.3155 461.886 37.3158 460.248 37.3161C458.61 37.3164 456.969 37.3167 455.324 37.3169C453.68 37.3172 452.032 37.3175 450.381 37.3178C448.73 37.3181 447.076 37.3184 445.418 37.3186C443.76 37.3189 442.099 37.3192 440.434 37.3195C438.77 37.3198 437.102 37.3201 435.43 37.3204C433.759 37.3206 432.084 37.3209 430.406 37.3212C428.728 37.3215 427.046 37.3218 425.361 37.3221C423.676 37.3224 421.987 37.3227 420.296 37.323C418.604 37.3233 416.908 37.3235 415.209 37.3238C413.51 37.3241 411.808 37.3244 410.102 37.3247C408.396 37.325 406.687 37.3253 404.974 37.3256C403.261 37.3259 401.544 37.3262 399.824 37.3265C398.104 37.3268 396.381 37.3271 394.654 37.3274C392.926 37.3277 391.196 37.328 389.462 37.3283C387.727 37.3286 385.989 37.3289 384.248 37.3292C382.507 37.3295 380.762 37.3298 379.013 37.3301C377.264 37.3304 375.512 37.3307 373.756 37.331C372 37.3313 370.241 37.3316 368.477 37.3319C366.714 37.3322 364.947 37.3325 363.177 37.3328C361.406 37.3331 359.632 37.3334 357.854 37.3337C356.076 37.334 354.295 37.3343 352.509 37.3346C350.724 37.3349 348.935 37.3352 347.142 37.3355C345.349 37.3358 343.553 37.3362 341.753 37.3365C339.952 37.3368 338.148 37.3371 336.341 37.3374C334.533 37.3377 332.721 37.338 330.906 37.3383C329.091 37.3386 327.271 37.339 325.448 37.3393C323.625 37.3396 321.799 37.3399 319.968 37.3402C318.137 37.3405 316.303 37.3408 314.465 37.3412C312.626 37.3415 310.784 37.3418 308.938 37.3421C307.092 37.3424 305.242 37.3427 303.389 37.3431C301.535 37.3434 299.677 37.3437 297.816 37.344C295.954 37.3443 294.089 37.3447 292.219 37.345C290.35 37.3453 288.476 37.3456 286.599 37.3459C284.722 37.3463 282.841 37.3466 280.956 37.3469C279.07 37.3472 277.181 37.3476 275.288 37.3479C273.395 37.3482 271.498 37.3485 269.597 37.3489C267.695 37.3492 265.79 37.3495 263.881 37.3498C261.972 37.3502 260.059 37.3505 258.142 37.3508C256.224 37.3512 254.303 37.3515 252.378 37.3518C250.452 37.3522 248.523 37.3525 246.59 37.3528C244.656 37.3532 242.718 37.3535 240.777 37.3538C238.835 37.3542 236.889 37.3545 234.939 37.3548C232.99 37.3552 231.036 37.3555 229.077 37.3558C227.119 37.3562 225.157 37.3565 223.191 37.3568C221.224 37.3572 219.253 37.3575 217.279 37.3579C215.304 37.3582 213.325 37.3585 211.342 37.3589C209.359 37.3592 207.371 37.3596 205.38 37.3599C203.388 37.3602 201.392 37.3606 199.392 37.3609C197.392 37.3613 195.388 37.3616 193.379 37.362C191.371 37.3623 189.358 37.3627 187.341 37.363C185.324 37.3634 183.303 37.3637 181.277 37.364C179.251 37.3644 177.221 37.3647 175.187 37.3651C173.153 37.3654 171.114 37.3658 169.071 37.3661C167.028 37.3665 164.981 37.3669 162.93 37.3672C160.878 37.3676 158.822 37.3679 156.762 37.3683C154.702 37.3686 152.637 37.369 150.568 37.3693C148.499 37.3697 146.425 37.37 144.347 37.3704C142.27 37.3708 140.187 37.3711 138.101 37.3715C136.014 37.3718 133.923 37.3722 131.827 37.3725C129.732 37.3729 127.632 37.3733 125.527 37.3736C123.423 37.374 121.314 37.3744 119.2 37.3747C117.087 37.3751 114.969 37.3754 112.846 37.3758C110.724 37.3762 108.597 37.3765 106.465 37.3769C104.334 37.3773 102.198 37.3776 100.057 37.378C97.9167 37.3784 95.7716 37.3787 93.6219 37.3791C91.4722 37.3795 89.318 37.3799 87.1592 37.3802C85.0003 37.3806 82.8369 37.381 80.6689 37.3813C78.5009 37.3817 76.3283 37.3821 74.1511 37.3825C71.9738 37.3828 69.792 37.3832 67.6055 37.3836C65.419 37.384 63.2278 37.3843 61.032 37.3847C58.8362 37.3851 56.6357 37.3855 54.4306 37.3859C52.2254 37.3862 50.0156 37.3866 47.8011 37.387C45.5865 37.3874 43.3673 37.3878 41.1433 37.3881C38.9194 37.3885 36.6907 37.3889 34.4573 37.3893C32.2239 37.3897 29.9858 37.3901 27.7428 37.3904C25.4999 37.3908 23.2523 37.3912 20.9998 37.3916L21.0002 39.3916Z" fill="white"/>
<path d="M20.9971 41.2255L20.9971 25.2255" stroke="white"/>
<path d="M1.0805 14V12.16L4.6645 8.432C5.1125 7.96267 5.43783 7.54667 5.6405 7.184C5.84317 6.82133 5.9445 6.448 5.9445 6.064C5.9445 5.584 5.78983 5.22133 5.4805 4.976C5.17117 4.73067 4.7285 4.608 4.1525 4.608C3.6725 4.608 3.19783 4.69867 2.7285 4.88C2.26983 5.05067 1.8165 5.31733 1.3685 5.68L0.5845 3.856C1.05383 3.45067 1.63517 3.13067 2.3285 2.896C3.02183 2.66133 3.74183 2.544 4.4885 2.544C5.74717 2.544 6.7125 2.82667 7.3845 3.392C8.0565 3.94667 8.3925 4.74133 8.3925 5.776C8.3925 6.46933 8.2325 7.13067 7.9125 7.76C7.5925 8.38933 7.07517 9.056 6.3605 9.76L3.4805 12.592V11.952H8.8245V14H1.0805ZM15.9063 14.176C14.5516 14.176 13.5063 13.6693 12.7703 12.656C12.0449 11.632 11.6823 10.192 11.6823 8.336C11.6823 6.448 12.0449 5.01333 12.7703 4.032C13.5063 3.04 14.5516 2.544 15.9063 2.544C17.2716 2.544 18.3169 3.04 19.0423 4.032C19.7676 5.01333 20.1303 6.44267 20.1303 8.32C20.1303 10.1867 19.7676 11.632 19.0423 12.656C18.3169 13.6693 17.2716 14.176 15.9063 14.176ZM15.9063 12.16C16.5249 12.16 16.9836 11.856 17.2823 11.248C17.5916 10.6293 17.7463 9.65333 17.7463 8.32C17.7463 6.98667 17.5916 6.02667 17.2823 5.44C16.9836 4.85333 16.5249 4.56 15.9063 4.56C15.2876 4.56 14.8236 4.85333 14.5143 5.44C14.2156 6.02667 14.0663 6.98133 14.0663 8.304C14.0663 9.648 14.2209 10.6293 14.5303 11.248C14.8396 11.856 15.2983 12.16 15.9063 12.16ZM23.916 14V11.952H26.476V4.8H27.644L24.188 6.816V4.48L27.196 2.72H28.972V11.952H31.372V14H23.916ZM38.2938 14.176C36.9498 14.176 35.8938 13.888 35.1258 13.312C34.3684 12.736 33.9898 11.9413 33.9898 10.928C33.9898 10.128 34.2298 9.46667 34.7098 8.944C35.1898 8.42133 35.8084 8.112 36.5658 8.016V8.432C35.8831 8.28267 35.3284 7.95733 34.9018 7.456C34.4858 6.944 34.2778 6.33067 34.2778 5.616C34.2778 4.656 34.6351 3.904 35.3498 3.36C36.0751 2.816 37.0564 2.544 38.2938 2.544C39.5418 2.544 40.5231 2.816 41.2378 3.36C41.9524 3.904 42.3098 4.656 42.3098 5.616C42.3098 6.34133 42.1071 6.96 41.7018 7.472C41.3071 7.984 40.7791 8.29333 40.1178 8.4V8.016C40.8538 8.12267 41.4511 8.43733 41.9098 8.96C42.3791 9.48267 42.6138 10.1387 42.6138 10.928C42.6138 11.9413 42.2298 12.736 41.4618 13.312C40.7044 13.888 39.6484 14.176 38.2938 14.176ZM38.2938 12.272C38.9764 12.272 39.4831 12.144 39.8138 11.888C40.1551 11.632 40.3258 11.2533 40.3258 10.752C40.3258 10.2507 40.1551 9.87733 39.8138 9.632C39.4831 9.376 38.9764 9.248 38.2938 9.248C37.6218 9.248 37.1151 9.376 36.7738 9.632C36.4324 9.87733 36.2618 10.2507 36.2618 10.752C36.2618 11.2533 36.4324 11.632 36.7738 11.888C37.1151 12.144 37.6218 12.272 38.2938 12.272ZM38.2938 7.344C38.8591 7.344 39.2911 7.216 39.5898 6.96C39.8884 6.69333 40.0378 6.336 40.0378 5.888C40.0378 5.44 39.8884 5.088 39.5898 4.832C39.2911 4.576 38.8591 4.448 38.2938 4.448C37.7391 4.448 37.3124 4.576 37.0138 4.832C36.7151 5.088 36.5658 5.44 36.5658 5.888C36.5658 6.336 36.7151 6.69333 37.0138 6.96C37.3124 7.216 37.7391 7.344 38.2938 7.344Z" fill="white"/>
<path d="M593.997 41.2255V25.2255" stroke="white"/>
<path d="M574.081 14V12.16L577.665 8.432C578.113 7.96267 578.438 7.54667 578.641 7.184C578.843 6.82133 578.945 6.448 578.945 6.064C578.945 5.584 578.79 5.22133 578.481 4.976C578.171 4.73067 577.729 4.608 577.153 4.608C576.673 4.608 576.198 4.69867 575.729 4.88C575.27 5.05067 574.817 5.31733 574.369 5.68L573.585 3.856C574.054 3.45067 574.635 3.13067 575.329 2.896C576.022 2.66133 576.742 2.544 577.489 2.544C578.747 2.544 579.713 2.82667 580.385 3.392C581.057 3.94667 581.393 4.74133 581.393 5.776C581.393 6.46933 581.233 7.13067 580.913 7.76C580.593 8.38933 580.075 9.056 579.361 9.76L576.481 12.592V11.952H581.825V14H574.081ZM588.906 14.176C587.552 14.176 586.506 13.6693 585.77 12.656C585.045 11.632 584.682 10.192 584.682 8.336C584.682 6.448 585.045 5.01333 585.77 4.032C586.506 3.04 587.552 2.544 588.906 2.544C590.272 2.544 591.317 3.04 592.042 4.032C592.768 5.01333 593.13 6.44267 593.13 8.32C593.13 10.1867 592.768 11.632 592.042 12.656C591.317 13.6693 590.272 14.176 588.906 14.176ZM588.906 12.16C589.525 12.16 589.984 11.856 590.282 11.248C590.592 10.6293 590.746 9.65333 590.746 8.32C590.746 6.98667 590.592 6.02667 590.282 5.44C589.984 4.85333 589.525 4.56 588.906 4.56C588.288 4.56 587.824 4.85333 587.514 5.44C587.216 6.02667 587.066 6.98133 587.066 8.304C587.066 9.648 587.221 10.6293 587.53 11.248C587.84 11.856 588.298 12.16 588.906 12.16ZM596.916 14V11.952H599.476V4.8H600.644L597.188 6.816V4.48L600.196 2.72H601.972V11.952H604.372V14H596.916ZM610.382 14.176C609.763 14.176 609.155 14.0693 608.558 13.856C607.96 13.632 607.438 13.328 606.99 12.944L607.79 11.104C608.184 11.4347 608.6 11.6853 609.038 11.856C609.486 12.0267 609.939 12.112 610.398 12.112C611.283 12.112 611.955 11.824 612.414 11.248C612.872 10.6613 613.102 9.80267 613.102 8.672V7.632H613.31C613.235 8.13333 613.059 8.56533 612.782 8.928C612.504 9.29067 612.158 9.568 611.742 9.76C611.336 9.952 610.883 10.048 610.382 10.048C609.742 10.048 609.166 9.89333 608.654 9.584C608.152 9.264 607.752 8.82667 607.454 8.272C607.166 7.71733 607.022 7.09333 607.022 6.4C607.022 5.65333 607.187 4.992 607.518 4.416C607.848 3.82933 608.302 3.37067 608.878 3.04C609.454 2.70933 610.12 2.544 610.878 2.544C612.339 2.544 613.464 3.04 614.254 4.032C615.043 5.01333 615.438 6.40533 615.438 8.208C615.438 9.46667 615.235 10.544 614.83 11.44C614.435 12.3253 613.859 13.0027 613.102 13.472C612.344 13.9413 611.438 14.176 610.382 14.176ZM611.022 8.112C611.352 8.112 611.646 8.03733 611.902 7.888C612.158 7.73867 612.355 7.52533 612.494 7.248C612.643 6.97067 612.718 6.656 612.718 6.304C612.718 5.93067 612.643 5.61067 612.494 5.344C612.355 5.06667 612.158 4.85333 611.902 4.704C611.646 4.544 611.352 4.464 611.022 4.464C610.68 4.464 610.382 4.544 610.126 4.704C609.87 4.85333 609.672 5.06667 609.534 5.344C609.395 5.61067 609.326 5.93067 609.326 6.304C609.326 6.656 609.395 6.97067 609.534 7.248C609.672 7.52533 609.87 7.73867 610.126 7.888C610.382 8.03733 610.68 8.112 611.022 8.112Z" fill="white"/>
<path d="M1167 41.2255V25.2255" stroke="white"/>
<path d="M1147.08 14V12.16L1150.66 8.432C1151.11 7.96267 1151.44 7.54667 1151.64 7.184C1151.84 6.82133 1151.94 6.448 1151.94 6.064C1151.94 5.584 1151.79 5.22133 1151.48 4.976C1151.17 4.73067 1150.73 4.608 1150.15 4.608C1149.67 4.608 1149.2 4.69867 1148.73 4.88C1148.27 5.05067 1147.82 5.31733 1147.37 5.68L1146.58 3.856C1147.05 3.45067 1147.64 3.13067 1148.33 2.896C1149.02 2.66133 1149.74 2.544 1150.49 2.544C1151.75 2.544 1152.71 2.82667 1153.38 3.392C1154.06 3.94667 1154.39 4.74133 1154.39 5.776C1154.39 6.46933 1154.23 7.13067 1153.91 7.76C1153.59 8.38933 1153.08 9.056 1152.36 9.76L1149.48 12.592V11.952H1154.82V14H1147.08ZM1161.91 14.176C1160.55 14.176 1159.51 13.6693 1158.77 12.656C1158.04 11.632 1157.68 10.192 1157.68 8.336C1157.68 6.448 1158.04 5.01333 1158.77 4.032C1159.51 3.04 1160.55 2.544 1161.91 2.544C1163.27 2.544 1164.32 3.04 1165.04 4.032C1165.77 5.01333 1166.13 6.44267 1166.13 8.32C1166.13 10.1867 1165.77 11.632 1165.04 12.656C1164.32 13.6693 1163.27 14.176 1161.91 14.176ZM1161.91 12.16C1162.52 12.16 1162.98 11.856 1163.28 11.248C1163.59 10.6293 1163.75 9.65333 1163.75 8.32C1163.75 6.98667 1163.59 6.02667 1163.28 5.44C1162.98 4.85333 1162.52 4.56 1161.91 4.56C1161.29 4.56 1160.82 4.85333 1160.51 5.44C1160.22 6.02667 1160.07 6.98133 1160.07 8.304C1160.07 9.648 1160.22 10.6293 1160.53 11.248C1160.84 11.856 1161.3 12.16 1161.91 12.16ZM1169.47 14V12.16L1173.05 8.432C1173.5 7.96267 1173.83 7.54667 1174.03 7.184C1174.23 6.82133 1174.33 6.448 1174.33 6.064C1174.33 5.584 1174.18 5.22133 1173.87 4.976C1173.56 4.73067 1173.12 4.608 1172.54 4.608C1172.06 4.608 1171.59 4.69867 1171.12 4.88C1170.66 5.05067 1170.2 5.31733 1169.76 5.68L1168.97 3.856C1169.44 3.45067 1170.02 3.13067 1170.72 2.896C1171.41 2.66133 1172.13 2.544 1172.88 2.544C1174.13 2.544 1175.1 2.82667 1175.77 3.392C1176.44 3.94667 1176.78 4.74133 1176.78 5.776C1176.78 6.46933 1176.62 7.13067 1176.3 7.76C1175.98 8.38933 1175.46 9.056 1174.75 9.76L1171.87 12.592V11.952H1177.21V14H1169.47ZM1184.29 14.176C1182.94 14.176 1181.89 13.6693 1181.16 12.656C1180.43 11.632 1180.07 10.192 1180.07 8.336C1180.07 6.448 1180.43 5.01333 1181.16 4.032C1181.89 3.04 1182.94 2.544 1184.29 2.544C1185.66 2.544 1186.7 3.04 1187.43 4.032C1188.16 5.01333 1188.52 6.44267 1188.52 8.32C1188.52 10.1867 1188.16 11.632 1187.43 12.656C1186.7 13.6693 1185.66 14.176 1184.29 14.176ZM1184.29 12.16C1184.91 12.16 1185.37 11.856 1185.67 11.248C1185.98 10.6293 1186.13 9.65333 1186.13 8.32C1186.13 6.98667 1185.98 6.02667 1185.67 5.44C1185.37 4.85333 1184.91 4.56 1184.29 4.56C1183.68 4.56 1183.21 4.85333 1182.9 5.44C1182.6 6.02667 1182.45 6.98133 1182.45 8.304C1182.45 9.648 1182.61 10.6293 1182.92 11.248C1183.23 11.856 1183.69 12.16 1184.29 12.16Z" fill="white"/>
<path d="M1741 41.2255V25.2255" stroke="white"/>
<path d="M1721.08 14V12.16L1724.66 8.432C1725.11 7.96267 1725.44 7.54667 1725.64 7.184C1725.84 6.82133 1725.94 6.448 1725.94 6.064C1725.94 5.584 1725.79 5.22133 1725.48 4.976C1725.17 4.73067 1724.73 4.608 1724.15 4.608C1723.67 4.608 1723.2 4.69867 1722.73 4.88C1722.27 5.05067 1721.82 5.31733 1721.37 5.68L1720.58 3.856C1721.05 3.45067 1721.64 3.13067 1722.33 2.896C1723.02 2.66133 1723.74 2.544 1724.49 2.544C1725.75 2.544 1726.71 2.82667 1727.38 3.392C1728.06 3.94667 1728.39 4.74133 1728.39 5.776C1728.39 6.46933 1728.23 7.13067 1727.91 7.76C1727.59 8.38933 1727.08 9.056 1726.36 9.76L1723.48 12.592V11.952H1728.82V14H1721.08ZM1735.91 14.176C1734.55 14.176 1733.51 13.6693 1732.77 12.656C1732.04 11.632 1731.68 10.192 1731.68 8.336C1731.68 6.448 1732.04 5.01333 1732.77 4.032C1733.51 3.04 1734.55 2.544 1735.91 2.544C1737.27 2.544 1738.32 3.04 1739.04 4.032C1739.77 5.01333 1740.13 6.44267 1740.13 8.32C1740.13 10.1867 1739.77 11.632 1739.04 12.656C1738.32 13.6693 1737.27 14.176 1735.91 14.176ZM1735.91 12.16C1736.52 12.16 1736.98 11.856 1737.28 11.248C1737.59 10.6293 1737.75 9.65333 1737.75 8.32C1737.75 6.98667 1737.59 6.02667 1737.28 5.44C1736.98 4.85333 1736.52 4.56 1735.91 4.56C1735.29 4.56 1734.82 4.85333 1734.51 5.44C1734.22 6.02667 1734.07 6.98133 1734.07 8.304C1734.07 9.648 1734.22 10.6293 1734.53 11.248C1734.84 11.856 1735.3 12.16 1735.91 12.16ZM1743.47 14V12.16L1747.05 8.432C1747.5 7.96267 1747.83 7.54667 1748.03 7.184C1748.23 6.82133 1748.33 6.448 1748.33 6.064C1748.33 5.584 1748.18 5.22133 1747.87 4.976C1747.56 4.73067 1747.12 4.608 1746.54 4.608C1746.06 4.608 1745.59 4.69867 1745.12 4.88C1744.66 5.05067 1744.2 5.31733 1743.76 5.68L1742.97 3.856C1743.44 3.45067 1744.02 3.13067 1744.72 2.896C1745.41 2.66133 1746.13 2.544 1746.88 2.544C1748.13 2.544 1749.1 2.82667 1749.77 3.392C1750.44 3.94667 1750.78 4.74133 1750.78 5.776C1750.78 6.46933 1750.62 7.13067 1750.3 7.76C1749.98 8.38933 1749.46 9.056 1748.75 9.76L1745.87 12.592V11.952H1751.21V14H1743.47ZM1755.11 14V11.952H1757.67V4.8H1758.84L1755.38 6.816V4.48L1758.39 2.72H1760.17V11.952H1762.57V14H1755.11Z" fill="white"/>
<path d="M2315 39.2255V23.2255" stroke="white"/>
<path d="M2295.08 12V10.16L2298.66 6.432C2299.11 5.96267 2299.44 5.54667 2299.64 5.184C2299.84 4.82133 2299.94 4.448 2299.94 4.064C2299.94 3.584 2299.79 3.22133 2299.48 2.976C2299.17 2.73067 2298.73 2.608 2298.15 2.608C2297.67 2.608 2297.2 2.69867 2296.73 2.88C2296.27 3.05067 2295.82 3.31733 2295.37 3.68L2294.58 1.856C2295.05 1.45067 2295.64 1.13067 2296.33 0.896C2297.02 0.661333 2297.74 0.544 2298.49 0.544C2299.75 0.544 2300.71 0.826666 2301.38 1.392C2302.06 1.94667 2302.39 2.74133 2302.39 3.776C2302.39 4.46933 2302.23 5.13067 2301.91 5.76C2301.59 6.38933 2301.08 7.056 2300.36 7.76L2297.48 10.592V9.952H2302.82V12H2295.08ZM2309.91 12.176C2308.55 12.176 2307.51 11.6693 2306.77 10.656C2306.04 9.632 2305.68 8.192 2305.68 6.336C2305.68 4.448 2306.04 3.01333 2306.77 2.032C2307.51 1.04 2308.55 0.544 2309.91 0.544C2311.27 0.544 2312.32 1.04 2313.04 2.032C2313.77 3.01333 2314.13 4.44267 2314.13 6.32C2314.13 8.18667 2313.77 9.632 2313.04 10.656C2312.32 11.6693 2311.27 12.176 2309.91 12.176ZM2309.91 10.16C2310.52 10.16 2310.98 9.856 2311.28 9.248C2311.59 8.62933 2311.75 7.65333 2311.75 6.32C2311.75 4.98667 2311.59 4.02667 2311.28 3.44C2310.98 2.85333 2310.52 2.56 2309.91 2.56C2309.29 2.56 2308.82 2.85333 2308.51 3.44C2308.22 4.02667 2308.07 4.98133 2308.07 6.304C2308.07 7.648 2308.22 8.62933 2308.53 9.248C2308.84 9.856 2309.3 10.16 2309.91 10.16ZM2317.47 12V10.16L2321.05 6.432C2321.5 5.96267 2321.83 5.54667 2322.03 5.184C2322.23 4.82133 2322.33 4.448 2322.33 4.064C2322.33 3.584 2322.18 3.22133 2321.87 2.976C2321.56 2.73067 2321.12 2.608 2320.54 2.608C2320.06 2.608 2319.59 2.69867 2319.12 2.88C2318.66 3.05067 2318.2 3.31733 2317.76 3.68L2316.97 1.856C2317.44 1.45067 2318.02 1.13067 2318.72 0.896C2319.41 0.661333 2320.13 0.544 2320.88 0.544C2322.13 0.544 2323.1 0.826666 2323.77 1.392C2324.44 1.94667 2324.78 2.74133 2324.78 3.776C2324.78 4.46933 2324.62 5.13067 2324.3 5.76C2323.98 6.38933 2323.46 7.056 2322.75 7.76L2319.87 10.592V9.952H2325.21V12H2317.47ZM2328.66 12V10.16L2332.25 6.432C2332.69 5.96267 2333.02 5.54667 2333.22 5.184C2333.42 4.82133 2333.53 4.448 2333.53 4.064C2333.53 3.584 2333.37 3.22133 2333.06 2.976C2332.75 2.73067 2332.31 2.608 2331.73 2.608C2331.25 2.608 2330.78 2.69867 2330.31 2.88C2329.85 3.05067 2329.4 3.31733 2328.95 3.68L2328.17 1.856C2328.64 1.45067 2329.22 1.13067 2329.91 0.896C2330.6 0.661333 2331.32 0.544 2332.07 0.544C2333.33 0.544 2334.29 0.826666 2334.97 1.392C2335.64 1.94667 2335.97 2.74133 2335.97 3.776C2335.97 4.46933 2335.81 5.13067 2335.49 5.76C2335.17 6.38933 2334.66 7.056 2333.94 7.76L2331.06 10.592V9.952H2336.41V12H2328.66Z" fill="white"/>
</svg>
