<svg width="43" height="44" viewBox="0 0 43 44" fill="none" xmlns="http://www.w3.org/2000/svg">
<path d="M36.366 37.1138H30.0418V27.21C30.0418 24.8481 29.9997 21.809 26.7524 21.809C23.4588 21.809 22.9541 24.3812 22.9541 27.0396V37.1138H16.6319V16.7467H22.7038V19.5292H22.7879C24.0267 17.4134 26.3275 16.1494 28.7777 16.2398C35.1882 16.2398 36.3681 20.4567 36.3681 25.9397L36.366 37.1138ZM9.49583 13.9621C7.46837 13.9621 5.82579 12.3195 5.82579 10.2921C5.82579 8.26459 7.46837 6.62201 9.49583 6.62201C11.5233 6.62201 13.1659 8.26459 13.1659 10.2921C13.1659 12.3195 11.5233 13.9621 9.49583 13.9621ZM12.6569 37.1138H6.32635V16.7467H12.6569V37.1138ZM39.5187 0.749949H3.14845C1.43016 0.73102 0.0210317 2.1086 0 3.82689V40.3464C0.0210317 42.0668 1.43016 43.4444 3.14845 43.4255H39.5187C41.2412 43.4465 42.6566 42.0689 42.6797 40.3464V3.82479C42.6545 2.10229 41.2391 0.724711 39.5187 0.747846" fill="#FA8E41"/>
</svg>
