<svg width="51" height="51" viewBox="0 0 51 51" fill="none" xmlns="http://www.w3.org/2000/svg">
<g clip-path="url(#clip0_5292_1309)">
<path fill-rule="evenodd" clip-rule="evenodd" d="M43.0373 7.33587C38.3135 2.60794 32.0334 0.00210317 25.3432 0C11.5569 0 0.3365 11.2183 0.330191 25.011C0.328087 29.4192 1.48063 33.7223 3.67003 37.5164L0.119873 50.4762L13.3783 46.9975C17.0315 48.9914 21.1453 50.0408 25.3306 50.0429H25.3411C39.1254 50.0429 50.3479 38.8225 50.3542 25.0299C50.3584 18.3481 47.7589 12.0617 43.0373 7.33587ZM25.3432 45.8177H25.3348C21.6038 45.8177 17.9464 44.8144 14.7538 42.9195L13.9945 42.4694L6.12654 44.5326L8.22761 36.8602L7.73337 36.0737C5.65122 32.7633 4.55337 28.9376 4.55547 25.011C4.55967 13.5487 13.8873 4.22317 25.3538 4.22317C30.9061 4.22317 36.1262 6.38944 40.0507 10.3182C43.9753 14.249 46.1352 19.4712 46.1331 25.0257C46.1268 36.4922 36.8013 45.8177 25.3432 45.8177ZM36.7467 30.2479C36.122 29.9345 33.0493 28.4223 32.4751 28.2141C31.903 28.0059 31.4866 27.9007 31.0681 28.5254C30.6496 29.15 29.455 30.5591 29.089 30.9777C28.7252 31.3941 28.3592 31.4467 27.7346 31.1333C27.1099 30.8199 25.0951 30.1616 22.708 28.0311C20.8509 26.3738 19.5953 24.3274 19.2314 23.7007C18.8676 23.0739 19.1936 22.7374 19.5048 22.4262C19.7867 22.1464 20.1295 21.6964 20.4429 21.3304C20.7583 20.9687 20.8614 20.7079 21.0717 20.2893C21.2799 19.8729 21.1769 19.5069 21.0191 19.1936C20.8614 18.8823 19.6121 15.8054 19.0926 14.554C18.5857 13.3341 18.0705 13.5003 17.6856 13.4813C17.3217 13.4624 16.9053 13.4603 16.4868 13.4603C16.0703 13.4603 15.3931 13.616 14.8211 14.2427C14.249 14.8694 12.6338 16.3816 12.6338 19.4565C12.6338 22.5334 14.8736 25.5052 15.1849 25.9216C15.4962 26.3381 19.5911 32.6518 25.8606 35.3586C27.3518 36.0021 28.5169 36.387 29.4234 36.6752C30.9209 37.1505 32.2837 37.0832 33.3605 36.9233C34.5615 36.7446 37.0579 35.4112 37.5795 33.9515C38.1011 32.4919 38.1011 31.2385 37.9434 30.9798C37.7877 30.7169 37.3713 30.5612 36.7467 30.2479Z" fill="#FA8E41"/>
</g>
<defs>
<clipPath id="clip0_5292_1309">
<rect width="50.4762" height="50.4762" fill="white"/>
</clipPath>
</defs>
</svg>
